<svg width="14" height="22" viewBox="0 0 14 22" fill="none" xmlns="http://www.w3.org/2000/svg">
<path fill-rule="evenodd" clip-rule="evenodd" d="M6.90338 0.824585C4.93227 1.63485 4.06203 3.20259 4.06163 5.94515L4.06081 8.17206H2.03041H0V9.96843V11.7648L1.92889 11.8654L3.85777 11.9661L3.97026 16.6673L4.08315 21.3685H6.29426H8.50538L8.61827 16.6673L8.73075 11.9661L10.4148 11.8664C12.2442 11.7579 12.5719 11.3613 12.5828 9.24428C12.5885 8.17701 12.5792 8.17206 10.5581 8.17206H8.52771V6.58551C8.52771 4.50641 9.11206 3.93731 11.3703 3.81623L13.1976 3.71825V2.06868V0.419123L10.7612 0.329717C9.05602 0.267034 7.89828 0.415494 6.90338 0.824585Z" fill="#848383"/>
</svg>
