<svg width="150" height="150" viewBox="0 0 94 94" fill="none" xmlns="http://www.w3.org/2000/svg">
<rect x="46.4182" y="0.707096" width="65" height="65" rx="9.5" transform="rotate(44.6878 46.4182 0.707096)" fill="#F5C331" stroke="#333333" stroke-linejoin="round"/>
<mask id="mask0_224_1186" style="mask-type:alpha" maskUnits="userSpaceOnUse" x="4" y="4" width="86" height="86">
<rect x="46.4182" y="0.707096" width="65" height="65" rx="9.5" transform="rotate(44.6878 46.4182 0.707096)" fill="#F5C331" stroke="#333333" stroke-linejoin="round"/>
</mask>
<g mask="url(#mask0_224_1186)">
<path fill-rule="evenodd" clip-rule="evenodd" d="M56.4661 53.28C62.1364 53.8989 67.3061 50.1568 69.0006 44.2073L69.9384 40.9158L84.492 34.4937C98.7918 28.1836 99.0704 28.0907 100.451 29.1412C106.367 33.6442 115.946 30.875 118.672 23.8741C120.888 18.1831 117.534 10.554 111.843 8.33824C109.042 7.2475 106.008 7.41088 102.789 8.8257C98.4482 10.7337 96.0399 13.893 95.6423 18.2006C95.4827 19.9282 95.2258 20.0706 80.9077 26.339L66.3355 32.7186L63.2764 31.1839C59.3053 29.1909 56.014 29.1416 52.1775 31.0176C49.0301 32.5569 46.4086 35.8306 45.8704 38.8946L45.5698 40.6053L50.9347 38.2692L56.2997 35.933L59.6785 36.263L62.309 38.2727L64.3221 42.3857L62.811 46.2669L55.4354 48.5089L50.0866 50.8817L51.5924 51.844C53.3968 52.9974 53.1168 52.9148 56.4661 53.28ZM102.914 24.4415C100.546 22.6251 100.507 22.5368 100.771 19.5636C101.152 15.255 101.41 14.8522 104.744 13.3493C108.065 11.8519 108.602 11.9441 112.065 14.5993C114.434 16.4157 114.472 16.504 114.209 19.4772C113.827 23.7858 113.57 24.1886 110.236 25.6915C106.915 27.1888 106.377 27.0967 102.914 24.4415Z" fill="#333333"/>
<path fill-rule="evenodd" clip-rule="evenodd" d="M56.4661 53.28C62.1364 53.8989 67.3061 50.1568 69.0006 44.2073L69.9384 40.9158L84.492 34.4937C98.7918 28.1836 99.0704 28.0907 100.451 29.1412C106.367 33.6442 115.946 30.875 118.672 23.8741C120.888 18.1831 117.534 10.554 111.843 8.33824C109.042 7.2475 106.008 7.41088 102.789 8.8257C98.4482 10.7337 96.0399 13.893 95.6423 18.2006C95.4827 19.9282 95.2258 20.0706 80.9077 26.339L66.3355 32.7186L63.2764 31.1839C59.3053 29.1909 56.014 29.1416 52.1775 31.0176C49.0301 32.5569 46.4086 35.8306 45.8704 38.8946L45.5698 40.6053L50.9347 38.2692L56.2997 35.933L59.6785 36.263L62.309 38.2727L64.3221 42.3857L62.811 46.2669L55.4354 48.5089L50.0866 50.8817L51.5924 51.844C53.3968 52.9974 53.1168 52.9148 56.4661 53.28ZM102.914 24.4415C100.546 22.6251 100.507 22.5368 100.771 19.5636C101.152 15.255 101.41 14.8522 104.744 13.3493C108.065 11.8519 108.602 11.9441 112.065 14.5993C114.434 16.4157 114.472 16.504 114.209 19.4772C113.827 23.7858 113.57 24.1886 110.236 25.6915C106.915 27.1888 106.377 27.0967 102.914 24.4415Z" fill="#333333"/>
</g>
<circle cx="81.0002" cy="47" r="2" fill="#C4C4C4"/>
<circle cx="47.0002" cy="12" r="2" fill="#C4C4C4"/>
<circle cx="47.0002" cy="81" r="2" fill="#C4C4C4"/>
<circle cx="12.0002" cy="47" r="2" fill="#C4C4C4"/>
<circle cx="47.0002" cy="12" r="1" fill="#333333"/>
<circle cx="81.0002" cy="47" r="1" fill="#333333"/>
<circle cx="47.0002" cy="81" r="1" fill="#333333"/>
<circle cx="12.0002" cy="47" r="1" fill="#333333"/>
<path fill-rule="evenodd" clip-rule="evenodd" d="M27.0637 37.2039C25.7512 37.4415 25.319 37.8342 24.1942 39.81C23.0662 41.7912 22.7387 42.0877 21.9868 41.8086C20.4673 41.2451 20.0002 41.3898 20.0002 42.4252C20.0002 43.133 20.3336 43.5315 21.1357 43.7828L22.2711 44.1381L21.2461 45.3605C20.3141 46.4718 20.221 46.9993 20.221 51.1557V55.9836H21.9868C23.9734 55.9836 23.9734 56.2173 23.9734 54.9229V53.8626H32.7719C41.5606 53.8626 41.3574 53.6106 41.3574 54.5598C41.3574 56.2224 41.4171 55.9836 43.6788 55.9836H45.6053V51.247C45.6053 47.0536 45.4985 46.3831 44.672 45.3962C44.1586 44.7833 43.8112 44.2451 43.8995 44.1999C45.4967 43.3868 45.8477 43.0663 45.9673 42.3137C46.1236 41.3247 45.7602 41.2306 44.0906 41.8269C43.0364 42.2034 42.8872 42.096 41.889 40.2458C40.2481 37.2043 40.0309 37.1156 33.9713 37.014C31.0219 36.9646 27.9135 37.0501 27.0637 37.2039ZM38.0116 38.787C39.0447 39.047 41.4162 42.7316 40.8763 43.2383C40.4097 43.6766 24.8564 43.5352 24.8564 43.0928C24.8564 42.1943 26.828 38.9554 27.4747 38.792C28.5854 38.5109 36.8987 38.5072 38.0116 38.787ZM26.5017 47.3915C27.0531 47.9094 26.1719 48.774 25.2223 48.6467C21.6641 48.1706 20.8832 47.9646 20.8832 47.4997C20.8832 46.3184 21.7975 46.0671 24.0573 46.6269C25.2753 46.9288 26.3755 47.2729 26.5017 47.3915ZM44.6376 47.1212C44.789 48.0832 44.1802 48.3535 41.4171 48.5501C40.0459 48.6479 39.6247 48.5202 39.5126 47.972C39.4053 47.4496 39.9148 47.1116 41.4935 46.6568C44.0354 45.9253 44.4592 45.9879 44.6376 47.1212ZM35.5783 50.0212C34.3121 50.1046 32.1269 50.1054 30.7221 50.0229C29.3169 49.9404 30.3526 49.872 33.0235 49.8711C35.6944 49.8703 36.8439 49.9379 35.5783 50.0212ZM35.5783 51.2652C34.3121 51.3486 32.1269 51.3494 30.7221 51.2669C29.3169 51.1844 30.3526 51.1159 33.0235 51.1151C35.6944 51.1143 36.8439 51.1819 35.5783 51.2652ZM23.0905 51.9967C23.0905 52.3387 22.7925 52.6186 22.4283 52.6186C22.0641 52.6186 21.7661 52.3387 21.7661 51.9967C21.7661 51.6546 22.0641 51.3747 22.4283 51.3747C22.7925 51.3747 23.0905 51.6546 23.0905 51.9967ZM44.0412 51.7607C44.3679 52.2571 43.5375 52.7484 42.9494 52.4072C42.4554 52.1206 42.7799 51.3747 43.398 51.3747C43.6121 51.3747 43.9017 51.5484 44.0412 51.7607Z" fill="#333333"/>
</svg>
