<svg width="265" height="94" viewBox="0 0 265 94" fill="none" xmlns="http://www.w3.org/2000/svg">
<path d="M115.92 50.52H101.92L99.16 57H93.8L106.4 29H111.52L124.16 57H118.72L115.92 50.52ZM114.2 46.44L108.92 34.2L103.68 46.44H114.2ZM147.53 35.64V57H142.77V54.28C141.97 55.24 140.97 55.9867 139.77 56.52C138.57 57.0267 137.277 57.28 135.89 57.28C133.037 57.28 130.784 56.4933 129.13 54.92C127.504 53.32 126.69 50.96 126.69 47.84V35.64H131.69V47.16C131.69 49.08 132.117 50.52 132.97 51.48C133.85 52.4133 135.09 52.88 136.69 52.88C138.477 52.88 139.89 52.3333 140.93 51.24C141.997 50.12 142.53 48.52 142.53 46.44V35.64H147.53ZM166.917 55.84C166.33 56.32 165.61 56.68 164.757 56.92C163.93 57.16 163.05 57.28 162.117 57.28C159.77 57.28 157.957 56.6667 156.677 55.44C155.397 54.2133 154.757 52.4267 154.757 50.08V39.8H151.237V35.8H154.757V30.92H159.757V35.8H165.477V39.8H159.757V49.96C159.757 51 160.01 51.8 160.517 52.36C161.024 52.8933 161.757 53.16 162.717 53.16C163.837 53.16 164.77 52.8667 165.517 52.28L166.917 55.84ZM179.927 57.28C177.767 57.28 175.82 56.8133 174.087 55.88C172.354 54.9467 170.994 53.6533 170.007 52C169.047 50.32 168.567 48.4267 168.567 46.32C168.567 44.2133 169.047 42.3333 170.007 40.68C170.994 39.0267 172.354 37.7333 174.087 36.8C175.82 35.8667 177.767 35.4 179.927 35.4C182.114 35.4 184.074 35.8667 185.807 36.8C187.54 37.7333 188.887 39.0267 189.847 40.68C190.834 42.3333 191.327 44.2133 191.327 46.32C191.327 48.4267 190.834 50.32 189.847 52C188.887 53.6533 187.54 54.9467 185.807 55.88C184.074 56.8133 182.114 57.28 179.927 57.28ZM179.927 53C181.767 53 183.287 52.3867 184.487 51.16C185.687 49.9333 186.287 48.32 186.287 46.32C186.287 44.32 185.687 42.7067 184.487 41.48C183.287 40.2533 181.767 39.64 179.927 39.64C178.087 39.64 176.567 40.2533 175.367 41.48C174.194 42.7067 173.607 44.32 173.607 46.32C173.607 48.32 174.194 49.9333 175.367 51.16C176.567 52.3867 178.087 53 179.927 53ZM240.327 35.64H245.327V57H240.327V35.64ZM242.847 32.12C241.94 32.12 241.18 31.84 240.567 31.28C239.954 30.6933 239.647 29.9733 239.647 29.12C239.647 28.2667 239.954 27.56 240.567 27C241.18 26.4133 241.94 26.12 242.847 26.12C243.754 26.12 244.514 26.4 245.127 26.96C245.74 27.4933 246.047 28.1733 246.047 29C246.047 29.88 245.74 30.6267 245.127 31.24C244.54 31.8267 243.78 32.12 242.847 32.12ZM251.889 27.32H256.889V57H251.889V27.32Z" fill="#333333"/>
<path fill-rule="evenodd" clip-rule="evenodd" d="M220.731 19.157C220.422 19.3206 220.239 19.5524 219.207 21.0967C218.561 22.0614 217.206 24.0811 216.196 25.585C210.439 34.1493 207.719 39.4266 207.093 43.2413C206.943 44.16 206.979 45.9548 207.169 47.0303C207.993 51.6808 210.952 55.5579 215.223 57.5844C217.823 58.8178 220.749 59.2353 223.622 58.783C228.65 57.9915 233.053 54.3795 234.828 49.5903C235.459 47.8878 235.692 46.5741 235.692 44.7256C235.692 43.6198 235.662 43.2615 235.51 42.5851C234.814 39.4755 232.757 35.2632 229.172 29.6084C228.641 28.7706 226.894 26.1278 225.289 23.7356C223.029 20.3668 222.307 19.3469 222.088 19.2116C221.665 18.9502 221.161 18.9299 220.731 19.157ZM223.99 26.8545C226.772 31.0501 227.284 31.8503 228.6 34.0616C230.899 37.9273 232.142 40.6123 232.739 43.0069C232.945 43.8358 232.922 45.7909 232.694 46.8652C231.8 51.0589 228.896 54.3271 224.95 55.5786C222.028 56.5054 218.949 56.2813 216.239 54.9448C212.656 53.1774 210.361 49.9218 209.867 45.9056C209.593 43.6816 210.157 41.5356 211.962 37.9288C212.784 36.287 214.139 33.9137 215.442 31.835C216.282 30.495 221.303 22.9678 221.356 22.9678C221.388 22.9678 222.573 24.7169 223.99 26.8545ZM229.258 43.6764C228.639 43.9245 228.362 44.3719 228.27 45.2725C228.058 47.362 226.868 49.2769 225.059 50.4416C224.368 50.8867 224.091 51.2797 224.091 51.8147C224.091 52.9634 225.216 53.6228 226.247 53.0781C228.006 52.1489 229.76 50.0774 230.497 48.0593C230.976 46.7454 231.197 44.8947 230.934 44.3897C230.621 43.7881 229.825 43.4493 229.258 43.6764Z" fill="#333333"/>
<rect x="46.4179" y="0.707096" width="65" height="65" rx="9.5" transform="rotate(44.6878 46.4179 0.707096)" fill="#F5C331" stroke="#333333" stroke-linejoin="round"/>
<mask id="mask0_258_2478" style="mask-type:alpha" maskUnits="userSpaceOnUse" x="4" y="4" width="86" height="86">
<rect x="46.4179" y="0.707096" width="65" height="65" rx="9.5" transform="rotate(44.6878 46.4179 0.707096)" fill="#F5C331" stroke="#333333" stroke-linejoin="round"/>
</mask>
<g mask="url(#mask0_258_2478)">
<path fill-rule="evenodd" clip-rule="evenodd" d="M56.4658 53.2798C62.1361 53.8987 67.3059 50.1566 69.0004 44.207L69.9381 40.9155L84.4918 34.4935C98.7915 28.1834 99.0702 28.0904 100.451 29.141C106.367 33.644 115.946 30.8748 118.672 23.8738C120.887 18.1828 117.534 10.5538 111.843 8.33803C109.042 7.24729 106.008 7.41066 102.789 8.82548C98.448 10.7334 96.0396 13.8928 95.6421 18.2004C95.4825 19.9279 95.2256 20.0704 80.9075 26.3388L66.3353 32.7184L63.2762 31.1836C59.3051 29.1907 56.0138 29.1414 52.1773 31.0173C49.0299 32.5567 46.4084 35.8304 45.8701 38.8944L45.5695 40.6051L50.9345 38.2689L56.2995 35.9328L59.6783 36.2628L62.3088 38.2725L64.3219 42.3855L62.8108 46.2667L55.4352 48.5086L50.0864 50.8815L51.5921 51.8438C53.3965 52.9972 53.1166 52.9146 56.4658 53.2798ZM102.914 24.4413C100.546 22.6249 100.507 22.5366 100.77 19.5634C101.152 15.2548 101.409 14.852 104.743 13.3491C108.065 11.8517 108.602 11.9439 112.065 14.5991C114.433 16.4155 114.472 16.5038 114.209 19.477C113.827 23.7856 113.57 24.1883 110.236 25.6913C106.914 27.1886 106.377 27.0965 102.914 24.4413Z" fill="#333333"/>
<path fill-rule="evenodd" clip-rule="evenodd" d="M56.4658 53.2798C62.1361 53.8987 67.3059 50.1566 69.0004 44.207L69.9381 40.9155L84.4918 34.4935C98.7915 28.1834 99.0702 28.0904 100.451 29.141C106.367 33.644 115.946 30.8748 118.672 23.8738C120.887 18.1828 117.534 10.5538 111.843 8.33803C109.042 7.24729 106.008 7.41066 102.789 8.82548C98.448 10.7334 96.0396 13.8928 95.6421 18.2004C95.4825 19.9279 95.2256 20.0704 80.9075 26.3388L66.3353 32.7184L63.2762 31.1836C59.3051 29.1907 56.0138 29.1414 52.1773 31.0173C49.0299 32.5567 46.4084 35.8304 45.8701 38.8944L45.5695 40.6051L50.9345 38.2689L56.2995 35.9328L59.6783 36.2628L62.3088 38.2725L64.3219 42.3855L62.8108 46.2667L55.4352 48.5086L50.0864 50.8815L51.5921 51.8438C53.3965 52.9972 53.1166 52.9146 56.4658 53.2798ZM102.914 24.4413C100.546 22.6249 100.507 22.5366 100.77 19.5634C101.152 15.2548 101.409 14.852 104.743 13.3491C108.065 11.8517 108.602 11.9439 112.065 14.5991C114.433 16.4155 114.472 16.5038 114.209 19.477C113.827 23.7856 113.57 24.1883 110.236 25.6913C106.914 27.1886 106.377 27.0965 102.914 24.4413Z" fill="#333333"/>
</g>
<circle cx="81" cy="47" r="2" fill="#C4C4C4"/>
<circle cx="47" cy="12" r="2" fill="#C4C4C4"/>
<circle cx="47" cy="81" r="2" fill="#C4C4C4"/>
<circle cx="12" cy="47" r="2" fill="#C4C4C4"/>
<circle cx="47" cy="12" r="1" fill="#333333"/>
<circle cx="81" cy="47" r="1" fill="#333333"/>
<circle cx="47" cy="81" r="1" fill="#333333"/>
<circle cx="12" cy="47" r="1" fill="#333333"/>
<path fill-rule="evenodd" clip-rule="evenodd" d="M27.0635 37.2039C25.751 37.4415 25.3188 37.8342 24.1939 39.81C23.066 41.7912 22.7384 42.0877 21.9866 41.8086C20.4671 41.2451 20 41.3898 20 42.4252C20 43.133 20.3333 43.5315 21.1355 43.7828L22.2709 44.1381L21.2458 45.3605C20.3139 46.4718 20.2207 46.9993 20.2207 51.1557V55.9836H21.9866C23.9732 55.9836 23.9732 56.2173 23.9732 54.9229V53.8626H32.7716C41.5603 53.8626 41.3571 53.6106 41.3571 54.5598C41.3571 56.2224 41.4169 55.9836 43.6786 55.9836H45.605V51.247C45.605 47.0536 45.4982 46.3831 44.6718 45.3962C44.1584 44.7833 43.8109 44.2451 43.8992 44.1999C45.4964 43.3868 45.8474 43.0663 45.967 42.3137C46.1233 41.3247 45.76 41.2306 44.0904 41.8269C43.0362 42.2034 42.8869 42.096 41.8888 40.2458C40.2479 37.2043 40.0306 37.1156 33.9711 37.014C31.0216 36.9646 27.9133 37.0501 27.0635 37.2039ZM38.0114 38.787C39.0444 39.047 41.416 42.7316 40.8761 43.2383C40.4094 43.6766 24.8561 43.5352 24.8561 43.0928C24.8561 42.1943 26.8277 38.9554 27.4745 38.792C28.5852 38.5109 36.8984 38.5072 38.0114 38.787ZM26.5015 47.3915C27.0529 47.9094 26.1717 48.774 25.2221 48.6467C21.6639 48.1706 20.8829 47.9646 20.8829 47.4997C20.8829 46.3184 21.7972 46.0671 24.0571 46.6269C25.2751 46.9288 26.3752 47.2729 26.5015 47.3915ZM44.6373 47.1212C44.7888 48.0832 44.18 48.3535 41.4169 48.5501C40.0457 48.6479 39.6245 48.5202 39.5124 47.972C39.4051 47.4496 39.9145 47.1116 41.4932 46.6568C44.0352 45.9253 44.459 45.9879 44.6373 47.1212ZM35.578 50.0212C34.3119 50.1046 32.1266 50.1054 30.7219 50.0229C29.3167 49.9404 30.3524 49.872 33.0233 49.8711C35.6941 49.8703 36.8437 49.9379 35.578 50.0212ZM35.578 51.2652C34.3119 51.3486 32.1266 51.3494 30.7219 51.2669C29.3167 51.1844 30.3524 51.1159 33.0233 51.1151C35.6941 51.1143 36.8437 51.1819 35.578 51.2652ZM23.0903 51.9967C23.0903 52.3387 22.7923 52.6186 22.4281 52.6186C22.0639 52.6186 21.7659 52.3387 21.7659 51.9967C21.7659 51.6546 22.0639 51.3747 22.4281 51.3747C22.7923 51.3747 23.0903 51.6546 23.0903 51.9967ZM44.0409 51.7607C44.3676 52.2571 43.5372 52.7484 42.9492 52.4072C42.4552 52.1206 42.7797 51.3747 43.3977 51.3747C43.6118 51.3747 43.9014 51.5484 44.0409 51.7607Z" fill="#333333"/>
</svg>
