<svg width="21" height="15" viewBox="0 0 21 15" fill="none" xmlns="http://www.w3.org/2000/svg">
<path fill-rule="evenodd" clip-rule="evenodd" d="M18.8057 0.0189978C18.7605 0.0376323 16.2413 2.47451 13.2073 5.4343L7.69088 10.8157L4.9624 8.15669C2.38842 5.6482 2.22575 5.49764 2.08995 5.49764C1.95661 5.49764 1.87404 5.56798 0.972973 6.44928C0.145072 7.259 0 7.41843 0 7.51844C0 7.62093 0.475822 8.10031 3.72217 11.268C5.76934 13.2657 7.497 14.9274 7.56135 14.9606C7.65339 15.0082 7.70187 15.0116 7.7887 14.9765C7.84937 14.952 10.8467 12.0577 14.4495 8.54478C20.1894 2.94796 21 2.143 21 2.03984C21 1.93943 20.8567 1.78259 20.0259 0.974233C19.4901 0.452908 19.0148 0.0170786 18.9697 0.00576202C18.9246 -0.0055946 18.8508 0.000363375 18.8057 0.0189978Z" fill="#35D261"/>
</svg>
