<svg width="24" height="20" viewBox="0 0 24 20" fill="none" xmlns="http://www.w3.org/2000/svg">
<path fill-rule="evenodd" clip-rule="evenodd" d="M12.8895 3.00855C15.6546 3.33041 18.2219 4.58725 20.9463 6.95292C21.8971 7.77853 23.4653 9.44639 23.8726 10.0652C24.0425 10.3233 24.0425 10.684 23.8726 10.9421C23.6537 11.2747 22.7426 12.3129 22.0971 12.9652C19.7805 15.3062 17.1995 16.9496 14.7677 17.6321C13.7097 17.9291 13.1752 18 11.997 18C10.8189 18 10.2844 17.9291 9.22642 17.6321C6.37523 16.832 3.24297 14.6466 0.742658 11.713C0.058291 10.91 -1.92887e-07 10.8151 -1.92887e-07 10.5037C-1.92887e-07 10.1923 0.058291 10.0974 0.742658 9.29437C3.22616 6.38051 6.35019 4.19293 9.17879 3.38708C10.128 3.11663 10.7552 3.02507 11.7857 3.00642C12.3024 2.9971 12.7991 2.99802 12.8895 3.00855ZM10.8463 4.6202C8.63261 4.94783 6.22281 6.22752 3.90728 8.30497C3.20145 8.93822 1.80434 10.4011 1.80434 10.5069C1.80434 10.5244 1.9663 10.7207 2.16423 10.9431C4.89762 14.0152 8.01142 15.9676 10.8463 16.3871C11.4483 16.4763 12.5458 16.4763 13.1478 16.3871C15.1889 16.085 17.3719 14.9913 19.5359 13.1864C20.3187 12.5335 22.1898 10.6421 22.1898 10.5037C22.1898 10.4844 22.0278 10.2867 21.8299 10.0642C19.1145 7.0125 16.0022 5.05264 13.1887 4.62274C12.6184 4.5356 11.4266 4.53431 10.8463 4.6202ZM12.6546 5.87012C14.6886 6.23596 16.1348 7.53605 16.6281 9.44219C16.7549 9.93255 16.7549 11.0748 16.6281 11.5652C16.1745 13.3179 14.8612 14.6082 13.0774 15.0539C12.5783 15.1785 11.4158 15.1785 10.9167 15.0539C9.13285 14.6082 7.81964 13.3179 7.36604 11.5652C7.29694 11.2981 7.27646 11.0556 7.27646 10.5037C7.27646 9.9517 7.29694 9.70927 7.36604 9.44219C7.81367 7.71239 9.08564 6.44364 10.8463 5.97068C11.167 5.88456 12.3645 5.81797 12.6546 5.87012ZM11.2468 7.48685C10.3656 7.67981 9.56569 8.31328 9.15488 9.1435C8.91152 9.63529 8.83712 10.0148 8.86112 10.6421C8.88386 11.2358 8.99978 11.6409 9.28114 12.1098C9.48133 12.4434 10.0229 12.9755 10.3624 13.1722C11.3518 13.7454 12.6423 13.7454 13.6317 13.1722C13.9712 12.9755 14.5128 12.4434 14.713 12.1098C15.2963 11.1377 15.2963 9.86965 14.713 8.89756C14.5128 8.56398 13.9712 8.03185 13.6317 7.83515C12.9213 7.42362 12.0901 7.30224 11.2468 7.48685Z" fill="#848383"/>
<line x1="2.70711" y1="1.29289" x2="20.3848" y2="18.9706" stroke="#848383" stroke-width="2"/>
</svg>
