<svg width="51" height="37" viewBox="0 0 51 37" fill="none" xmlns="http://www.w3.org/2000/svg">
<path fill-rule="evenodd" clip-rule="evenodd" d="M2.01482 0.160792C1.01366 0.500128 0.303503 1.27247 0.0867482 2.25757C0.00911527 2.61054 -0.0139056 6.58413 0.00772006 15.8526L0.0384145 28.949L0.316458 29.5022C0.631475 30.129 1.11431 30.5863 1.77733 30.8861C2.17666 31.0666 2.45201 31.0949 4.08021 31.1228L5.92965 31.1545L6.04147 31.9041C6.18587 32.8722 6.47976 33.6279 7.01522 34.408L7.44514 35.0346H4.12017C1.75461 35.0346 0.719871 35.0682 0.53391 35.151C-0.151134 35.4559 -0.171264 36.5035 0.501322 36.8433C0.9149 37.0522 50.0868 37.0522 50.5003 36.8433C50.9744 36.6037 51.1356 36.0354 50.8711 35.5356C50.6469 35.1121 50.3368 35.0346 48.866 35.0346H47.5254L47.8728 34.5622C48.5237 33.6769 49.0069 32.3193 49.0215 31.3345C49.0261 31.0283 49.079 30.964 49.543 30.7016C49.8272 30.541 50.2065 30.2204 50.3859 29.9893C50.9844 29.2187 51.0241 28.91 50.9921 25.284L50.9633 22.0357L48.123 16.5037C45.0929 10.6018 44.9939 10.4437 44.0411 9.98489C43.5955 9.77029 43.5198 9.76659 39.0337 9.73893L34.4788 9.71089L34.4495 5.94148C34.4215 2.34676 34.4104 2.15153 34.2103 1.72894C33.9035 1.08114 33.4354 0.609378 32.7939 0.30159L32.2277 0.0299259L17.3788 0.00811498C3.3275 -0.0125276 2.50214 -0.00434837 2.01482 0.160792ZM31.9641 2.0674C32.1152 2.14374 32.2923 2.32105 32.3577 2.46146C32.4482 2.65542 32.4768 5.89864 32.4768 15.9546V29.1924L25.0275 29.1869L17.5781 29.1814L17.2378 28.481C16.7661 27.51 15.6654 26.4361 14.6382 25.9447C12.8775 25.1023 11.0175 25.1023 9.25671 25.9447C8.22954 26.4361 7.12883 27.51 6.65715 28.481L6.31682 29.1814L4.55259 29.1869C3.3856 29.1905 2.69986 29.1531 2.52705 29.076C2.15593 28.9109 1.98173 28.5141 1.98173 27.8341V27.245H3.57156C5.3054 27.245 5.5949 27.1806 5.82601 26.744C6.0317 26.3554 6.0317 22.2923 5.82601 21.9037C5.5949 21.4671 5.3054 21.4028 3.57156 21.4028H1.98173L1.98522 12.0308C1.98901 1.97403 1.97017 2.34657 2.49098 2.06458C2.85981 1.86478 31.5687 1.8676 31.9641 2.0674ZM10.4636 5.9594C9.59963 6.42727 9.96108 7.77088 10.9509 7.77088C11.4558 7.77088 11.9475 7.29523 11.9475 6.80662C11.9475 6.07556 11.1206 5.60351 10.4636 5.9594ZM14.4498 5.9594C13.7819 6.32103 13.8039 7.35092 14.4859 7.65452C14.8607 7.82142 27.5704 7.82142 27.9452 7.65452C28.2308 7.52736 28.4905 7.11908 28.4905 6.79718C28.4905 6.47527 28.2308 6.06699 27.9452 5.93983C27.546 5.76203 14.78 5.78053 14.4498 5.9594ZM18.4361 9.85422C17.7682 10.2159 17.7902 11.2457 18.4722 11.5493C18.8443 11.715 27.5731 11.715 27.9452 11.5493C28.2308 11.4222 28.4905 11.0139 28.4905 10.692C28.4905 10.3701 28.2308 9.96182 27.9452 9.83465C27.5492 9.65831 18.7645 9.67632 18.4361 9.85422ZM43.38 11.8708C43.5267 11.9835 43.8248 12.4217 44.0424 12.8445L44.4379 13.6131H40.8538C36.9988 13.6131 36.8618 13.6293 36.6051 14.1141C36.4146 14.4741 36.3937 22.4131 36.5822 22.8174C36.8339 23.357 36.7498 23.3502 43.1352 23.3502H49.0199V25.9197C49.0199 28.3767 49.011 28.4993 48.8142 28.7191C48.701 28.8456 48.5882 28.9029 48.5633 28.8465C48.3214 28.2978 47.6517 27.402 47.1097 26.9024C45.2759 25.2119 42.6572 24.8409 40.3498 25.9447C39.3226 26.4361 38.2219 27.51 37.7502 28.481L37.4099 29.1814L35.9399 29.1869L34.47 29.1924V20.429V11.6657H38.7916C43.0346 11.6657 43.1181 11.6694 43.38 11.8708ZM46.9271 18.4816L48.4226 21.4028H43.4394H38.4563V18.4816V15.5605H41.944H45.4317L46.9271 18.4816ZM3.97487 24.3239V25.2976H2.9783H1.98173V24.3239V23.3502H2.9783H3.97487V24.3239ZM13.5847 27.6169C14.4839 28.0281 15.0657 28.5872 15.5117 29.4689C15.8634 30.1641 15.8839 30.2562 15.8839 31.1398C15.8839 32.0234 15.8634 32.1155 15.5117 32.8107C15.0634 33.6969 14.4864 34.2489 13.5599 34.6778C12.9579 34.9564 12.8036 34.9859 11.9475 34.9859C11.0913 34.9859 10.937 34.9564 10.335 34.6778C9.40848 34.2489 8.83147 33.6969 8.38321 32.8107C8.03192 32.1162 8.01099 32.0227 8.01099 31.1449C8.01099 30.3026 8.04079 30.1533 8.32641 29.5643C8.72683 28.7385 9.29697 28.1339 10.0406 27.7466C10.8256 27.3379 11.2551 27.2454 12.1716 27.288C12.7697 27.3159 13.0883 27.39 13.5847 27.6169ZM44.6778 27.6169C45.577 28.0281 46.1588 28.5872 46.6047 29.4689C46.9564 30.1641 46.977 30.2562 46.977 31.1398C46.977 32.0234 46.9564 32.1155 46.6047 32.8107C46.1565 33.6969 45.5795 34.2489 44.653 34.6778C44.0509 34.9564 43.8967 34.9859 43.0405 34.9859C42.1843 34.9859 42.0301 34.9564 41.428 34.6778C40.5015 34.2489 39.9245 33.6969 39.4763 32.8107C39.125 32.1162 39.104 32.0227 39.104 31.1449C39.104 30.3026 39.1338 30.1533 39.4195 29.5643C39.8199 28.7385 40.39 28.1339 41.1337 27.7466C41.9187 27.3379 42.3482 27.2454 43.2646 27.288C43.8628 27.3159 44.1814 27.39 44.6778 27.6169ZM11.2709 29.2967C10.796 29.4386 10.1861 30.0761 10.049 30.5738C9.8104 31.4394 10.1649 32.3492 10.9193 32.8075C11.4845 33.1508 12.4578 33.1368 13.0138 32.7773C13.6358 32.375 13.8908 31.8991 13.8908 31.1398C13.8908 30.3902 13.6363 29.9049 13.0422 29.5207C12.6148 29.2443 11.7934 29.1404 11.2709 29.2967ZM42.3639 29.2967C41.8891 29.4386 41.2792 30.0761 41.142 30.5738C40.9035 31.4394 41.2579 32.3492 42.0123 32.8075C42.3134 32.9903 42.5313 33.0385 43.0568 33.0385C43.6343 33.0385 43.7762 33.0004 44.1442 32.7464C44.7208 32.3485 44.9842 31.8281 44.9823 31.0909C44.9804 30.3926 44.7109 29.8929 44.1352 29.5207C43.7078 29.2443 42.8864 29.1404 42.3639 29.2967ZM37.1334 31.8968C37.2789 32.872 37.5717 33.6264 38.1083 34.408L38.5382 35.0346H27.494H16.4498L16.8797 34.408C17.4162 33.6264 17.709 32.872 17.8545 31.8968L17.9674 31.1398H27.494H37.0205L37.1334 31.8968Z" fill="#333333"/>
</svg>
