<svg width="45" height="45" viewBox="0 0 45 45" fill="none" xmlns="http://www.w3.org/2000/svg">
<circle cx="22.5" cy="22.5" r="21.5" fill="white" stroke="#F5C331" stroke-width="2"/>
<path d="M19.1375 22.927L19.6482 23.3847L18.2015 24.1676C15.4068 25.6801 13.5406 28.3499 13.0707 31.5065L12.8516 32.9779L12.826 33.15H13H23H33H33.174L33.1484 32.9779L32.9293 31.5065C32.4594 28.3499 30.5932 25.6801 27.7985 24.1676L26.3518 23.3847L26.8625 22.927L26.8625 22.927C27.3473 22.4924 27.8102 21.7498 28.1512 20.9592C28.4925 20.1678 28.7217 19.3049 28.7217 18.6201C28.7217 17.9553 28.4943 17.094 28.1633 16.3075C27.8329 15.5225 27.3879 14.7845 26.9338 14.3782L26.9337 14.3781C26.4745 13.9674 25.7714 13.585 25.042 13.3064C24.3128 13.0279 23.5382 12.846 22.9313 12.8501C22.3439 12.854 21.3056 13.1229 20.6098 13.4451C20.2606 13.6066 19.8839 13.8218 19.5572 14.0387C19.2333 14.2537 18.9474 14.4777 18.7878 14.6586L18.7878 14.6587C18.3802 15.1212 18.0007 15.8294 17.7242 16.564C17.4479 17.2985 17.2674 18.0784 17.2715 18.6892C17.2758 19.3474 17.513 20.1986 17.8575 20.9813C18.2017 21.7635 18.6641 22.5026 19.1375 22.927L19.1375 22.927ZM18.6992 24.9206L18.6992 24.9206L23.2316 24.2379C23.2316 24.2379 23.2317 24.2379 23.2317 24.2379C24.6042 24.262 25.4074 24.3 26.021 24.4202C26.6262 24.5387 27.0504 24.738 27.6623 25.0992C29.8811 26.4092 31.4308 28.6507 32.0001 31.3893L32.1739 32.2248H23H13.8261L13.9999 31.3894L13.853 31.3588L13.9999 31.3894C14.5997 28.5051 16.3551 26.0973 18.6992 24.9206ZM24.9057 14.183C27.9915 15.4821 28.7511 19.5641 26.3434 21.99C24.3892 23.9585 21.6108 23.9585 19.6566 21.99C15.9339 18.2393 20.0419 12.1358 24.9057 14.183Z" fill="#F5C331" stroke="#F5C331" stroke-width="0.3"/>
<circle cx="22.5" cy="22.5" r="21.5" fill="white" stroke="#F5C331" stroke-width="2"/>
<path d="M19.1375 22.927L19.6482 23.3847L18.2015 24.1676C15.4068 25.6801 13.5406 28.3499 13.0707 31.5065L12.8516 32.9779L12.826 33.15H13H23H33H33.174L33.1484 32.9779L32.9293 31.5065C32.4594 28.3499 30.5932 25.6801 27.7985 24.1676L26.3518 23.3847L26.8625 22.927L26.8625 22.927C27.3473 22.4924 27.8102 21.7498 28.1512 20.9592C28.4925 20.1678 28.7217 19.3049 28.7217 18.6201C28.7217 17.9553 28.4943 17.094 28.1633 16.3075C27.8329 15.5225 27.3879 14.7845 26.9338 14.3782L26.9337 14.3781C26.4745 13.9674 25.7714 13.585 25.042 13.3064C24.3128 13.0279 23.5382 12.846 22.9313 12.8501C22.3439 12.854 21.3056 13.1229 20.6098 13.4451C20.2606 13.6066 19.8839 13.8218 19.5572 14.0387C19.2333 14.2537 18.9474 14.4777 18.7878 14.6586L18.7878 14.6587C18.3802 15.1212 18.0007 15.8294 17.7242 16.564C17.4479 17.2985 17.2674 18.0784 17.2715 18.6892C17.2758 19.3474 17.513 20.1986 17.8575 20.9813C18.2017 21.7635 18.6641 22.5026 19.1375 22.927L19.1375 22.927ZM18.6992 24.9206L18.6992 24.9206L23.2316 24.2379C23.2316 24.2379 23.2317 24.2379 23.2317 24.2379C24.6042 24.262 25.4074 24.3 26.021 24.4202C26.6262 24.5387 27.0504 24.738 27.6623 25.0992C29.8811 26.4092 31.4308 28.6507 32.0001 31.3893L32.1739 32.2248H23H13.8261L13.9999 31.3894L13.853 31.3588L13.9999 31.3894C14.5997 28.5051 16.3551 26.0973 18.6992 24.9206ZM24.9057 14.183C27.9915 15.4821 28.7511 19.5641 26.3434 21.99C24.3892 23.9585 21.6108 23.9585 19.6566 21.99C15.9339 18.2393 20.0419 12.1358 24.9057 14.183Z" fill="#F5C331" stroke="#F5C331" stroke-width="0.3"/>
</svg>
