<svg width="22" height="22" viewBox="0 0 22 22" fill="none" xmlns="http://www.w3.org/2000/svg">
<path fill-rule="evenodd" clip-rule="evenodd" d="M9.73574 0.0656461C4.64987 0.690297 0.652736 4.7446 0.126398 9.81253C0.0484032 10.5636 0.0956435 11.9858 0.222495 12.7036C0.423277 13.8402 0.755529 14.8402 1.27194 15.8621L1.53141 16.3756L0.758253 19.1822C0.332999 20.7258 -0.00811877 21.9938 0.000147111 21.9999C0.00845917 22.006 1.30362 21.6727 2.87829 21.2592C5.17066 20.6574 5.76433 20.5162 5.85678 20.5512C5.92027 20.5753 6.22159 20.7074 6.52636 20.8447C7.51624 21.2908 8.55575 21.5867 9.64957 21.7337C10.4098 21.8358 11.7439 21.8352 12.4833 21.7324C14.9105 21.3947 17.079 20.328 18.7882 18.631C19.682 17.7437 20.2763 16.932 20.8421 15.8261C21.3516 14.8301 21.7112 13.7443 21.912 12.5947C22.0295 11.9228 22.0293 9.94843 21.9118 9.24429C21.7131 8.0547 21.4066 7.10428 20.8829 6.05449C19.3924 3.06704 16.6399 0.937449 13.3489 0.225412C12.323 0.00345651 10.793 -0.0641949 9.73574 0.0656461ZM12.6219 1.96521C13.9465 2.20869 15.045 2.64851 16.1314 3.37042C17.9862 4.60292 19.3515 6.5168 19.8912 8.64071C20.2876 10.2005 20.2564 11.972 19.8063 13.4718C19.0785 15.8968 17.3438 17.938 15.0737 19.0406C13.754 19.6816 12.5328 19.9611 11.0518 19.9611C9.3544 19.9611 7.84969 19.5518 6.31399 18.6721L6.05539 18.524L4.3559 18.9678C3.42116 19.2119 2.64929 19.4046 2.64061 19.3959C2.63193 19.3874 2.82371 18.6604 3.06679 17.7805C3.30982 16.9006 3.51047 16.1484 3.51264 16.1089C3.51481 16.0693 3.3953 15.8408 3.24707 15.6009C1.06922 12.0781 1.64002 7.43221 4.61168 4.49401C6.08989 3.03244 7.9613 2.13424 10.059 1.87952C10.6255 1.81072 12.0383 1.85795 12.6219 1.96521ZM6.74095 5.96986C6.4739 6.10126 5.98594 6.67404 5.78192 7.0956C5.38119 7.92367 5.38936 8.96749 5.80414 9.93402C6.31385 11.1217 7.64747 12.8082 8.96401 13.9297C9.88683 14.7158 10.6579 15.1765 11.7907 15.6183C12.9478 16.0697 13.1698 16.1217 13.9379 16.1214C14.5421 16.1212 14.638 16.1098 14.9189 16.0046C15.3807 15.8316 15.7255 15.6138 16.0689 15.2777C16.3353 15.017 16.389 14.9354 16.4762 14.6581C16.585 14.3124 16.6472 13.756 16.5985 13.5634C16.5731 13.4627 16.4426 13.3809 15.7866 13.0545C14.5846 12.4563 14.1001 12.2505 13.8942 12.2505C13.7255 12.2505 13.6967 12.2711 13.4927 12.5374C13.0265 13.1461 12.5986 13.6175 12.4872 13.6453C12.3537 13.6786 12.0913 13.5831 11.4854 13.2807C10.5044 12.791 9.70406 12.1362 9.01596 11.2603C8.64146 10.7836 8.30422 10.2404 8.30422 10.1138C8.30422 10.0596 8.47785 9.79018 8.69008 9.51508C9.10601 8.97584 9.22778 8.77463 9.22778 8.62652C9.22778 8.57457 9.1376 8.32053 9.02737 8.06204C8.91714 7.80351 8.69484 7.27189 8.53335 6.88062C8.33317 6.39568 8.19265 6.12173 8.09189 6.02007L7.94403 5.8709L7.443 5.87095C7.02301 5.87095 6.90946 5.88697 6.74095 5.96986Z" fill="#848383"/>
</svg>
