<svg width="23" height="19" viewBox="0 0 23 19" fill="none" xmlns="http://www.w3.org/2000/svg">
<path fill-rule="evenodd" clip-rule="evenodd" d="M11.1389 4.09833C4.38762 6.56862 0 8.35185 0 8.62495C0 8.87298 1.25851 9.52258 2.79677 10.0688L5.59317 11.0612L6.73591 14.4518C7.36444 16.3165 8.00026 17.8421 8.1489 17.8421C8.29791 17.8421 9.29383 17.2241 10.3628 16.4686C11.4318 15.7132 12.4956 15.2024 12.7268 15.3336C12.9583 15.4652 14.3542 16.4089 15.8289 17.4312C17.6191 18.672 18.6322 19.1756 18.8762 18.9461C19.3389 18.5109 23.2609 0.70706 22.9862 0.288647C22.8741 0.118259 22.6689 -0.0112494 22.5301 0.000773945C22.3913 0.0127973 17.2652 1.85684 11.1389 4.09833ZM16.4344 5.71977C9.27265 12.0056 9.02687 12.2629 8.76282 13.7314C8.45495 15.447 8.11202 15.2004 7.33449 12.704C6.81772 11.0441 6.81297 10.771 7.29468 10.3182C8.00903 9.64591 17.423 4.15295 17.8952 4.13268C18.0961 4.1241 17.4387 4.83828 16.4344 5.71977Z" fill="#848383"/>
</svg>
