<svg width="408" height="312" viewBox="0 0 408 312" fill="none" xmlns="http://www.w3.org/2000/svg">
<path d="M93.9794 66.7105H88.3022C89.0481 66.7105 89.6582 66.1017 89.6582 65.354V57.48L93.9794 54.2561V66.7105ZM93.9794 125.438L89.6582 128.66V87.1615H90.5685C91.1304 87.1615 91.5901 86.6998 91.5901 86.138V82.3869C91.5901 81.8251 91.1304 81.3654 90.5685 81.3654H10.364C9.80197 81.3654 9.34229 81.8251 9.34229 82.3869V86.138C9.34229 86.6998 9.80197 87.1615 10.364 87.1615H11.2744V88.4017V129.285L6.11569 125.438V69.4237H93.9794V125.438ZM93.9794 139.582H88.6677C89.2371 139.423 89.6582 138.898 89.6582 138.279V130.352L93.9794 127.13V139.582ZM93.9794 198.31L89.6582 201.532V160.033H90.5685C91.1304 160.033 91.5901 159.574 91.5901 159.012V155.259C91.5901 154.697 91.1304 154.237 90.5685 154.237H10.364C9.80197 154.237 9.34229 154.697 9.34229 155.259V159.012C9.34229 159.574 9.80197 160.033 10.364 160.033H11.2744V161.276V202.157L6.11569 198.31V142.295H93.9794V198.31ZM93.9794 212.456H88.6675C89.2371 212.295 89.6582 211.77 89.6582 211.151V203.224L93.9794 200.002V212.456ZM93.9794 271.182L89.6582 274.406V232.905H90.5685C91.1304 232.905 91.5901 232.445 91.5901 231.884V228.13C91.5901 227.569 91.1304 227.109 90.5685 227.109H10.364C9.80197 227.109 9.34229 227.569 9.34229 228.13V231.884C9.34229 232.445 9.80197 232.905 10.364 232.905H11.2744V234.147V275.029L6.11569 271.182V215.167H93.9794V271.182ZM93.9794 285.328H88.6675C89.2371 285.167 89.6582 284.643 89.6582 284.024V276.097L93.9794 272.873V285.328ZM6.11569 272.873L11.2744 276.721V284.024C11.2744 284.643 11.6955 285.167 12.2649 285.328H6.11569V272.873ZM6.11569 200.002L11.2744 203.849V211.151C11.2744 211.77 11.6953 212.295 12.2649 212.456H6.11569V200.002ZM6.11569 127.13L11.2744 130.977V138.279C11.2744 138.898 11.6953 139.423 12.2647 139.582H6.11569V127.13ZM6.11569 54.2561L11.2744 58.1052V65.354C11.2744 66.1017 11.8845 66.7105 12.6302 66.7105H6.11569V54.2561ZM99.5141 306.153H97.4663V51.3447H93.9794V52.5644L89.6582 55.7884V15.4788V14.2367H90.5685C91.1304 14.2367 91.5901 13.777 91.5901 13.2151V9.46203C91.5901 8.90019 91.1304 8.4405 90.5685 8.4405H10.364C9.80197 8.4405 9.34229 8.90019 9.34229 9.46203V13.2151C9.34229 13.777 9.80197 14.2367 10.364 14.2367H11.2744V15.4788V56.4135L6.11569 52.5644V51.3447H2.629V306.153H0.581044C0.26151 306.153 0 306.414 0 306.735V310.985C0 311.305 0.26151 311.567 0.581044 311.567H8.16344C8.48318 311.567 8.74449 311.305 8.74449 310.985V306.735C8.74449 306.414 8.48318 306.153 8.16344 306.153H6.11569V288.039H93.9794V306.153H91.9315C91.6119 306.153 91.3504 306.414 91.3504 306.735V310.985C91.3504 311.305 91.6119 311.567 91.9315 311.567H99.5141C99.8336 311.567 100.095 311.305 100.095 310.985V306.735C100.095 306.414 99.8336 306.153 99.5141 306.153Z" fill="#E9E9E9"/>
<path d="M194.074 66.7105H188.398C189.144 66.7105 189.753 66.1017 189.753 65.354V57.48L194.074 54.2561V66.7105ZM194.074 125.438L189.753 128.66V87.1615H190.664C191.226 87.1615 191.685 86.6998 191.685 86.138V82.3869C191.685 81.8251 191.226 81.3654 190.664 81.3654H110.459C109.897 81.3654 109.438 81.8251 109.438 82.3869V86.138C109.438 86.6998 109.897 87.1615 110.459 87.1615H111.369V88.4017V129.285L106.211 125.438V69.4237H194.074V125.438ZM194.074 139.582H188.764C189.332 139.423 189.753 138.898 189.753 138.279V130.352L194.074 127.13V139.582ZM194.074 198.31L189.753 201.532V160.033H190.664C191.226 160.033 191.685 159.574 191.685 159.012V155.259C191.685 154.697 191.226 154.237 190.664 154.237H110.459C109.897 154.237 109.438 154.697 109.438 155.259V159.012C109.438 159.574 109.897 160.033 110.459 160.033H111.369V161.276V202.157L106.211 198.31V142.295H194.074V198.31ZM194.074 212.456H188.762C189.332 212.295 189.753 211.77 189.753 211.151V203.224L194.074 200.002V212.456ZM194.074 271.182L189.753 274.406V232.905H190.664C191.226 232.905 191.685 232.445 191.685 231.884V228.13C191.685 227.569 191.226 227.109 190.664 227.109H110.459C109.897 227.109 109.438 227.569 109.438 228.13V231.884C109.438 232.445 109.897 232.905 110.459 232.905H111.369V234.147V275.029L106.211 271.182V215.167H194.074V271.182ZM194.074 285.328H188.762C189.332 285.167 189.753 284.643 189.753 284.024V276.097L194.074 272.873V285.328ZM106.211 272.873L111.369 276.721V284.024C111.369 284.643 111.791 285.167 112.36 285.328H106.211V272.873ZM106.211 200.002L111.369 203.849V211.151C111.369 211.77 111.791 212.295 112.36 212.456H106.211V200.002ZM106.211 127.13L111.369 130.977V138.279C111.369 138.898 111.791 139.423 112.36 139.582H106.211V127.13ZM106.211 54.2561L111.369 58.1052V65.354C111.369 66.1017 111.98 66.7105 112.725 66.7105H106.211V54.2561ZM199.608 306.153H197.561V51.3447H194.074V52.5644L189.753 55.7884V15.4788V14.2367H190.664C191.226 14.2367 191.685 13.777 191.685 13.2151V9.46203C191.685 8.90019 191.226 8.4405 190.664 8.4405H110.459C109.897 8.4405 109.438 8.90019 109.438 9.46203V13.2151C109.438 13.777 109.897 14.2367 110.459 14.2367H111.369V15.4788V56.4135L106.211 52.5644V51.3447H102.724V306.153H100.676C100.357 306.153 100.095 306.414 100.095 306.735V310.985C100.095 311.305 100.357 311.567 100.676 311.567H108.259C108.578 311.567 108.84 311.305 108.84 310.985V306.735C108.84 306.414 108.578 306.153 108.259 306.153H106.211V288.039H194.074V306.153H192.027C191.708 306.153 191.446 306.414 191.446 306.735V310.985C191.446 311.305 191.708 311.567 192.027 311.567H199.608C199.929 311.567 200.191 311.305 200.191 310.985V306.735C200.191 306.414 199.929 306.153 199.608 306.153" fill="#E9E9E9"/>
<path opacity="0.1" d="M294.196 66.7105H288.52C289.266 66.7105 289.875 66.1017 289.875 65.354V57.48L294.196 54.2561V66.7105ZM294.196 125.438L289.875 128.66V87.1615H290.786C291.348 87.1615 291.807 86.6998 291.807 86.138V82.3869C291.807 81.8251 291.348 81.3654 290.786 81.3654H210.582C210.02 81.3654 209.56 81.8251 209.56 82.3869V86.138C209.56 86.6998 210.02 87.1615 210.582 87.1615H211.491V88.4017V129.285L206.332 125.438V69.4237H294.196V125.438ZM294.196 139.582H288.886C289.454 139.423 289.875 138.898 289.875 138.279V130.352L294.196 127.13V139.582ZM294.196 198.31L289.875 201.532V160.033H290.786C291.348 160.033 291.807 159.574 291.807 159.012V155.259C291.807 154.697 291.348 154.237 290.786 154.237H210.582C210.02 154.237 209.56 154.697 209.56 155.259V159.012C209.56 159.574 210.02 160.033 210.582 160.033H211.491V161.276V202.157L206.332 198.31V142.295H294.196V198.31ZM294.196 212.456H288.884C289.454 212.295 289.875 211.77 289.875 211.151V203.224L294.196 200.002V212.456ZM294.196 271.182L289.875 274.406V232.905H290.786C291.348 232.905 291.807 232.445 291.807 231.884V228.13C291.807 227.569 291.348 227.109 290.786 227.109H210.582C210.02 227.109 209.56 227.569 209.56 228.13V231.884C209.56 232.445 210.02 232.905 210.582 232.905H211.491V234.147V275.029L206.332 271.182V215.167H294.196V271.182ZM294.196 285.328H288.884C289.454 285.167 289.875 284.643 289.875 284.024V276.097L294.196 272.873V285.328ZM206.332 272.873L211.491 276.721V284.024C211.491 284.643 211.914 285.167 212.482 285.328H206.332V272.873ZM206.332 200.002L211.491 203.849V211.151C211.491 211.77 211.912 212.295 212.482 212.456H206.332V200.002ZM206.332 127.13L211.491 130.977V138.279C211.491 138.898 211.912 139.423 212.482 139.582H206.332V127.13ZM206.332 54.2561L211.491 58.1052V65.354C211.491 66.1017 212.102 66.7105 212.847 66.7105H206.332V54.2561ZM299.73 306.153H297.683V51.3447H294.196V52.5644L289.875 55.7884V15.4788V14.2367H290.786C291.348 14.2367 291.807 13.777 291.807 13.2151V9.46203C291.807 8.90019 291.348 8.4405 290.786 8.4405H210.582C210.02 8.4405 209.56 8.90019 209.56 9.46203V13.2151C209.56 13.777 210.02 14.2367 210.582 14.2367H211.491V15.4788V56.4135L206.332 52.5644V51.3447H202.847V306.153H200.797C200.479 306.153 200.217 306.414 200.217 306.735V310.985C200.217 311.305 200.479 311.567 200.797 311.567H208.381C208.7 311.567 208.961 311.305 208.961 310.985V306.735C208.961 306.414 208.7 306.153 208.381 306.153H206.332V288.039H294.196V306.153H292.149C291.83 306.153 291.568 306.414 291.568 306.735V310.985C291.568 311.305 291.83 311.567 292.149 311.567H299.73C300.051 311.567 300.313 311.305 300.313 310.985V306.735C300.313 306.414 300.051 306.153 299.73 306.153" fill="#E9E9E9"/>
<path d="M401.447 58.2701H395.771C396.517 58.2701 397.126 57.6613 397.126 56.9135V49.0396L401.447 45.8156V58.2701ZM401.447 116.998L397.126 120.22V78.7211H398.037C398.599 78.7211 399.059 78.2594 399.059 77.6975V73.9465C399.059 73.3847 398.599 72.925 398.037 72.925H317.833C317.271 72.925 316.811 73.3847 316.811 73.9465V77.6975C316.811 78.2594 317.271 78.7211 317.833 78.7211H318.742V79.9613V120.845L313.583 116.998V60.9833H401.447V116.998ZM401.447 131.142H396.135C396.705 130.983 397.126 130.457 397.126 129.838V121.911L401.447 118.689V131.142ZM401.447 189.87L397.126 193.091V151.593H398.037C398.599 151.593 399.059 151.133 399.059 150.571V146.818C399.059 146.256 398.599 145.797 398.037 145.797H317.833C317.271 145.797 316.811 146.256 316.811 146.818V150.571C316.811 151.133 317.271 151.593 317.833 151.593H318.742V152.835V193.717L313.583 189.87V133.855H401.447V189.87ZM401.447 204.016H396.135C396.705 203.854 397.126 203.329 397.126 202.71V194.783L401.447 191.561V204.016ZM401.447 262.741L397.126 265.965V224.465H398.037C398.599 224.465 399.059 224.005 399.059 223.443V219.69C399.059 219.128 398.599 218.669 398.037 218.669H317.833C317.271 218.669 316.811 219.128 316.811 219.69V223.443C316.811 224.005 317.271 224.465 317.833 224.465H318.742V225.707V266.588L313.583 262.741V206.727H401.447V262.741ZM401.447 276.887H396.135C396.705 276.726 397.126 276.203 397.126 275.584V267.657L401.447 264.433V276.887ZM313.583 264.433L318.742 268.28V275.584C318.742 276.203 319.163 276.726 319.733 276.887H313.583V264.433ZM313.583 191.561L318.742 195.408V202.71C318.742 203.329 319.163 203.854 319.733 204.016H313.583V191.561ZM313.583 118.689L318.742 122.537V129.838C318.742 130.457 319.163 130.983 319.733 131.142H313.583V118.689ZM313.583 45.8156L318.742 49.6648V56.9135C318.742 57.6613 319.353 58.2701 320.099 58.2701H313.583V45.8156ZM406.982 297.712H404.935V42.9043H401.447V44.124L397.126 47.3479V7.0384V5.79625H398.037C398.599 5.79625 399.059 5.33656 399.059 4.77472V1.0216C399.059 0.459759 398.599 7.06101e-05 398.037 7.06101e-05H317.833C317.271 7.06101e-05 316.811 0.459759 316.811 1.0216V4.77472C316.811 5.33656 317.271 5.79625 317.833 5.79625H318.742V7.0384V47.9731L313.583 44.124V42.9043H310.098V297.712H308.049C307.73 297.712 307.469 297.974 307.469 298.295V302.544C307.469 302.865 307.73 303.126 308.049 303.126H315.633C315.951 303.126 316.213 302.865 316.213 302.544V298.295C316.213 297.974 315.951 297.712 315.633 297.712H313.583V279.599H401.447V297.712H399.4C399.081 297.712 398.82 297.974 398.82 298.295V302.544C398.82 302.865 399.081 303.126 399.4 303.126H406.982C407.302 303.126 407.564 302.865 407.564 302.544V298.295C407.564 297.974 407.302 297.712 406.982 297.712Z" fill="#E9E9E9"/>
</svg>
