<svg width="14" height="14" viewBox="0 0 14 14" fill="none" xmlns="http://www.w3.org/2000/svg">
<path fill-rule="evenodd" clip-rule="evenodd" d="M3.00919 0.0467193C2.86849 0.110206 2.75246 0.23863 2.71345 0.374063C2.69732 0.430049 2.68406 0.60088 2.68397 0.753642L2.6838 1.03138L2.12298 1.04359C1.49526 1.05722 1.33161 1.09057 0.980038 1.27637C0.696873 1.42604 0.363049 1.76549 0.217463 2.05182C-0.0188207 2.51654 0.000375003 2.03247 0.000375003 7.52539C0.000375003 13.0083 -0.0179404 12.5359 0.212067 12.9884C0.423561 13.4046 0.8336 13.7485 1.31744 13.9155L1.56216 14H7H12.4378L12.665 13.9229C13.303 13.7064 13.774 13.2178 13.9498 12.5901C13.9964 12.4236 13.9996 12.099 13.9996 7.52539C13.9996 2.03091 14.019 2.51687 13.7817 2.05004C13.6148 1.72188 13.2767 1.39683 12.9348 1.23599C12.6018 1.07934 12.3578 1.0371 11.7859 1.0371H11.3162L11.316 0.756489C11.3159 0.423177 11.2854 0.301022 11.1713 0.175773C10.9251 -0.0945722 10.4555 -0.037519 10.2949 0.282242C10.2469 0.377869 10.2371 0.451457 10.2371 0.717231V1.0371H7.00224H3.76736L3.75799 0.685912C3.74953 0.367794 3.74221 0.325689 3.68022 0.238576C3.52495 0.0203829 3.24493 -0.0596668 3.00919 0.0467193ZM2.68885 2.3991C2.70169 2.77339 2.74497 2.88914 2.91685 3.00919C3.12357 3.15357 3.38666 3.13939 3.58288 2.9733C3.73516 2.84438 3.76285 2.7551 3.76285 2.39313V2.07742H7H10.2371V2.39313C10.2371 2.7551 10.2648 2.84438 10.4171 2.9733C10.6173 3.14276 10.8927 3.15124 11.1058 2.99449C11.2563 2.8838 11.2987 2.76085 11.3111 2.3991L11.3222 2.07742H11.7725C12.1564 2.07742 12.2456 2.08566 12.3778 2.13338C12.5732 2.20384 12.7477 2.36534 12.8453 2.56596L12.9206 2.72077V7.52539V12.33L12.8464 12.4806C12.7575 12.661 12.6043 12.8132 12.4265 12.8976L12.2959 12.9597H7H1.70414L1.57275 12.8973C1.3911 12.811 1.24125 12.6627 1.15357 12.4824L1.07942 12.33V7.52539C1.07942 2.9613 1.08198 2.7153 1.13042 2.61127C1.21203 2.43608 1.31684 2.30623 1.44011 2.22758C1.64354 2.09779 1.72967 2.08142 2.21938 2.07933L2.67781 2.07742L2.68885 2.3991ZM3.60051 4.74682C3.16869 4.95745 3.10585 5.50014 3.4777 5.80701C4.03906 6.27025 4.84499 5.62621 4.48215 5.0043C4.36155 4.7976 4.18944 4.69653 3.9366 4.68393C3.77796 4.67602 3.72554 4.68582 3.60051 4.74682ZM6.58825 4.73023C6.34865 4.83741 6.20491 5.05913 6.20491 5.32157C6.20491 5.59169 6.34956 5.80266 6.6083 5.90997C6.86881 6.01803 7.14652 5.96095 7.3518 5.75716C7.66182 5.44939 7.56224 4.92477 7.1595 4.74397C6.9795 4.66315 6.75048 4.65765 6.58825 4.73023ZM9.53378 4.73466C8.93422 5.02803 9.10403 5.90609 9.7706 5.95936C10.1937 5.9932 10.5195 5.67311 10.4849 5.2577C10.4677 5.05117 10.3771 4.90552 10.1849 4.77523C10.0818 4.70542 10.0319 4.69146 9.85911 4.68404C9.69387 4.67698 9.63194 4.68662 9.53378 4.73466ZM6.75863 7.27972C6.41084 7.32973 6.18603 7.61358 6.20976 7.97273C6.22402 8.18857 6.3173 8.33983 6.50815 8.45653C6.67018 8.55558 6.83947 8.58175 7.0345 8.53787C7.23208 8.49341 7.45326 8.28589 7.50951 8.0922C7.64178 7.63668 7.24699 7.20947 6.75863 7.27972ZM9.70688 7.28267C9.54033 7.31098 9.43473 7.36976 9.32169 7.49709C9.01146 7.8465 9.16139 8.37123 9.61556 8.52571C10.0398 8.67004 10.4927 8.35532 10.4927 7.91612C10.4927 7.73907 10.4351 7.59707 10.3138 7.47516C10.1527 7.31325 9.93439 7.24402 9.70688 7.28267ZM3.59892 7.33693C3.28247 7.48797 3.14285 7.89052 3.3009 8.19613C3.41855 8.4236 3.6343 8.55 3.90483 8.55C4.22238 8.55 4.45682 8.37892 4.54641 8.0818C4.58585 7.95097 4.58787 7.90371 4.55919 7.78016C4.51674 7.59729 4.38407 7.42626 4.21983 7.34268C4.0513 7.25694 3.77202 7.25434 3.59892 7.33693ZM3.70606 9.89307C3.54122 9.94424 3.3797 10.0743 3.30258 10.2178C3.21344 10.3837 3.21665 10.6474 3.30976 10.8097C3.40182 10.9701 3.58253 11.0996 3.77154 11.1403C4.22988 11.2392 4.66175 10.8228 4.55919 10.381C4.47315 10.0102 4.07041 9.77995 3.70606 9.89307ZM6.6689 9.89036C6.49367 9.94517 6.38343 10.0323 6.28947 10.1902C6.22002 10.307 6.20545 10.3624 6.20545 10.5095C6.20545 11.217 7.17585 11.4046 7.48043 10.7559C7.70709 10.2731 7.19411 9.72605 6.6689 9.89036ZM9.68342 9.87665C9.18638 10.0014 8.98974 10.5702 9.32132 10.924C9.46878 11.0814 9.61939 11.1484 9.8254 11.1484C10.5276 11.1484 10.7528 10.2441 10.1272 9.93636C9.99328 9.87046 9.8076 9.84549 9.68342 9.87665Z" fill="#333333"/>
</svg>
