<svg width="45" height="45" viewBox="0 0 45 45" fill="none" xmlns="http://www.w3.org/2000/svg">
<path fill-rule="evenodd" clip-rule="evenodd" d="M20.8109 0.0423454C17.4752 0.361723 14.9941 1.06704 12.1852 2.49448C8.8578 4.18528 5.87198 6.85902 3.69487 10.0972C2.77306 11.4683 1.64661 13.7829 1.10574 15.4172C0.669175 16.7364 0.322386 18.2377 0.11044 19.726C-0.0368133 20.7602 -0.0368133 24.2317 0.11044 25.2659C0.479233 27.856 1.16445 30.1249 2.23501 32.3006C3.44622 34.7623 4.6326 36.416 6.59126 38.3729C8.52852 40.3083 10.2097 41.5168 12.5813 42.6792C14.2361 43.4902 15.3046 43.8849 16.9822 44.3053C21.3843 45.4085 25.7993 45.1969 30.1002 43.6769C31.4072 43.2149 33.6823 42.0736 34.852 41.2929C39.7777 38.0054 43.2244 33.0107 44.4859 27.3323C44.7797 26.0096 44.9306 24.7734 44.9852 23.2434C45.1188 19.4931 44.3469 15.9238 42.6768 12.5688C41.5737 10.3531 40.3507 8.62711 38.6165 6.83888C36.7439 4.90784 34.8481 3.53149 32.3852 2.31501C29.7797 1.028 27.3498 0.340707 24.4637 0.0742656C23.5669 -0.00848066 21.5284 -0.0263313 20.8109 0.0423454ZM25.7839 2.26154C34.6214 3.76513 41.3287 10.5502 42.7874 19.4622C43.0336 20.9664 43.0087 24.2652 42.7396 25.7788C42.2008 28.8104 41.1643 31.4288 39.549 33.8395C36.3457 38.6198 31.566 41.7048 25.7692 42.7332C24.2523 43.0022 20.951 43.0269 19.4467 42.7804C10.4172 41.3005 3.5705 34.4438 2.17753 25.4857C1.9574 24.0702 1.9589 20.824 2.18017 19.4622C3.38108 12.0738 8.17786 6.10533 15.1036 3.382C16.7502 2.73454 18.417 2.3428 20.7229 2.06114C21.5461 1.96063 24.7641 2.08805 25.7839 2.26154ZM29.0846 10.7485C28.8883 10.8615 27.0237 13.6888 16.1553 30.3535C14.8707 32.3231 14.3857 33.1378 14.3857 33.3257C14.3857 34.099 15.1891 34.597 15.8643 34.2422C16.0883 34.1246 17.0407 32.6824 28.8199 14.6258C30.5593 11.9594 30.5972 11.8915 30.5552 11.5158C30.4975 11.0008 30.1991 10.7052 29.6891 10.6577C29.4536 10.6358 29.2193 10.671 29.0846 10.7485ZM16.3409 12.2173C15.2608 12.3506 14.1298 13.0533 13.5154 13.9724C12.9792 14.7745 12.7723 15.5406 12.8168 16.5581C12.8497 17.3108 12.884 17.4429 13.2229 18.1263C14.4936 20.6881 17.8557 21.258 19.8431 19.2485C21.8579 17.2114 21.3167 13.8817 18.763 12.6039C18.4354 12.44 17.9799 12.2822 17.7508 12.2533C17.5217 12.2244 17.2352 12.1891 17.1142 12.1748C16.9932 12.1606 16.6451 12.1797 16.3409 12.2173ZM17.5603 14.2827C18.1687 14.4615 18.8156 15.0916 18.9668 15.6528C19.1291 16.2551 19.038 16.9631 18.735 17.4526C17.8636 18.8609 15.7064 18.7418 15.0029 17.2466C14.4271 16.0228 15.1368 14.5447 16.4541 14.2244C16.8706 14.1231 17.0494 14.1325 17.5603 14.2827ZM26.7173 24.9214C26.0145 25.1102 25.4039 25.469 24.8594 26.013C22.2601 28.6098 24.0861 33.0527 27.7501 33.047C29.4354 33.0444 30.7733 32.2144 31.5177 30.7095C31.8285 30.0812 31.8562 29.9628 31.8871 29.1286C31.9246 28.1173 31.7571 27.43 31.2973 26.7072C30.7652 25.8709 29.674 25.0946 28.7226 24.8755C28.1796 24.7504 27.2768 24.7711 26.7173 24.9214ZM28.5023 26.9122C28.7221 26.9774 29.0268 27.1812 29.2774 27.4305C30.6464 28.7924 29.6968 31.0589 27.762 31.0473C26.9002 31.0421 26.2181 30.6099 25.8602 29.8421C25.0521 28.1084 26.6314 26.3571 28.5023 26.9122Z" fill="#F5C331"/>
</svg>
