<svg width="105" height="44" viewBox="0 0 105 44" fill="none" xmlns="http://www.w3.org/2000/svg">
<path d="M14.7 26.95H5.95L4.225 31H0.875L8.75 13.5H11.95L19.85 31H16.45L14.7 26.95ZM13.625 24.4L10.325 16.75L7.05 24.4H13.625ZM34.4564 17.65V31H31.4814V29.3C30.9814 29.9 30.3564 30.3667 29.6064 30.7C28.8564 31.0167 28.0481 31.175 27.1814 31.175C25.3981 31.175 23.9898 30.6833 22.9564 29.7C21.9398 28.7 21.4314 27.225 21.4314 25.275V17.65H24.5564V24.85C24.5564 26.05 24.8231 26.95 25.3564 27.55C25.9064 28.1333 26.6814 28.425 27.6814 28.425C28.7981 28.425 29.6814 28.0833 30.3314 27.4C30.9981 26.7 31.3314 25.7 31.3314 24.4V17.65H34.4564ZM46.573 30.275C46.2064 30.575 45.7564 30.8 45.223 30.95C44.7064 31.1 44.1564 31.175 43.573 31.175C42.1064 31.175 40.973 30.7917 40.173 30.025C39.373 29.2583 38.973 28.1417 38.973 26.675V20.25H36.773V17.75H38.973V14.7H42.098V17.75H45.673V20.25H42.098V26.6C42.098 27.25 42.2564 27.75 42.573 28.1C42.8897 28.4333 43.348 28.6 43.948 28.6C44.648 28.6 45.2314 28.4167 45.698 28.05L46.573 30.275ZM54.7043 31.175C53.3543 31.175 52.1376 30.8833 51.0543 30.3C49.971 29.7167 49.121 28.9083 48.5043 27.875C47.9043 26.825 47.6043 25.6417 47.6043 24.325C47.6043 23.0083 47.9043 21.8333 48.5043 20.8C49.121 19.7667 49.971 18.9583 51.0543 18.375C52.1376 17.7917 53.3543 17.5 54.7043 17.5C56.071 17.5 57.296 17.7917 58.3793 18.375C59.4626 18.9583 60.3043 19.7667 60.9043 20.8C61.521 21.8333 61.8293 23.0083 61.8293 24.325C61.8293 25.6417 61.521 26.825 60.9043 27.875C60.3043 28.9083 59.4626 29.7167 58.3793 30.3C57.296 30.8833 56.071 31.175 54.7043 31.175ZM54.7043 28.5C55.8543 28.5 56.8043 28.1167 57.5543 27.35C58.3043 26.5833 58.6793 25.575 58.6793 24.325C58.6793 23.075 58.3043 22.0667 57.5543 21.3C56.8043 20.5333 55.8543 20.15 54.7043 20.15C53.5543 20.15 52.6043 20.5333 51.8543 21.3C51.121 22.0667 50.7543 23.075 50.7543 24.325C50.7543 25.575 51.121 26.5833 51.8543 27.35C52.6043 28.1167 53.5543 28.5 54.7043 28.5ZM92.4543 17.65H95.5793V31H92.4543V17.65ZM94.0293 15.45C93.4626 15.45 92.9876 15.275 92.6043 14.925C92.221 14.5583 92.0293 14.1083 92.0293 13.575C92.0293 13.0417 92.221 12.6 92.6043 12.25C92.9876 11.8833 93.4626 11.7 94.0293 11.7C94.596 11.7 95.071 11.875 95.4543 12.225C95.8376 12.5583 96.0293 12.9833 96.0293 13.5C96.0293 14.05 95.8376 14.5167 95.4543 14.9C95.0876 15.2667 94.6126 15.45 94.0293 15.45ZM99.6809 12.45H102.806V31H99.6809V12.45Z" fill="#F5C331"/>
<path fill-rule="evenodd" clip-rule="evenodd" d="M81.6571 11.0825C81.4845 11.1685 81.3829 11.2903 80.8069 12.1019C80.4471 12.6088 79.6915 13.6702 79.1278 14.4606C75.9178 18.9613 74.4007 21.7346 74.0521 23.7393C73.9681 24.2221 73.9882 25.1653 74.0944 25.7305C74.554 28.1744 76.2039 30.2119 78.5857 31.2769C80.0354 31.9251 81.6669 32.1445 83.2691 31.9068C86.0732 31.4908 88.5285 29.5927 89.5181 27.0758C89.8699 26.1811 90 25.4908 90 24.5193C90 23.9382 89.983 23.7499 89.8986 23.3944C89.5104 21.7603 88.3631 19.5466 86.3642 16.575C86.068 16.1346 85.0935 14.7458 84.1986 13.4887C82.9384 11.7183 82.536 11.1823 82.4139 11.1112C82.178 10.9738 81.8966 10.9631 81.6571 11.0825ZM83.4746 15.1277C85.0259 17.3326 85.3114 17.7531 86.0449 18.9152C87.3273 20.9467 88.0201 22.3577 88.353 23.6161C88.4682 24.0517 88.4555 25.0791 88.3279 25.6438C87.8298 27.8476 86.2101 29.5651 84.0097 30.2228C82.3803 30.7099 80.663 30.5921 79.1521 29.8898C77.1539 28.9609 75.8741 27.25 75.5985 25.1394C75.446 23.9707 75.7603 22.8429 76.7671 20.9474C77.2253 20.0847 77.9812 18.8374 78.7078 17.7451C79.1762 17.0409 81.9758 13.0852 82.0057 13.0852C82.0232 13.0852 82.6842 14.0043 83.4746 15.1277ZM86.4121 23.968C86.0668 24.0983 85.9124 24.3334 85.8613 24.8067C85.7427 25.9048 85.0793 26.9111 84.0705 27.5232C83.685 27.7571 83.5305 27.9636 83.5305 28.2448C83.5305 28.8485 84.1579 29.195 84.7329 28.9088C85.7139 28.4204 86.692 27.3318 87.1027 26.2713C87.3701 25.5808 87.4931 24.6082 87.3466 24.3428C87.172 24.0266 86.7283 23.8486 86.4121 23.968Z" fill="#F5C331"/>
</svg>
