<svg width="45" height="45" viewBox="0 0 45 45" fill="none" xmlns="http://www.w3.org/2000/svg">
<circle cx="22.5" cy="22.5" r="21.5" fill="white" stroke="#F5C331" stroke-width="2"/>
<path fill-rule="evenodd" clip-rule="evenodd" d="M11.6348 11.0414C11.2975 11.1197 10.805 11.4044 10.5652 11.6597C10.4433 11.7895 10.2662 12.0559 10.1718 12.2516L10 12.6076V20.3628V28.118L10.2027 28.5206C10.4469 29.0055 10.7612 29.3076 11.2658 29.5422L11.6284 29.7109L15.3058 29.7259C17.3285 29.7342 18.9833 29.7592 18.9833 29.7814C18.9833 29.8036 18.8123 30.659 18.6033 31.6823C18.3944 32.7055 18.2234 33.5868 18.2234 33.6406C18.2234 33.6944 18.2834 33.7973 18.3566 33.8692L18.4898 34H23H27.5102L27.6434 33.8692C27.7166 33.7973 27.7766 33.6944 27.7766 33.6406C27.7766 33.5868 27.6056 32.7055 27.3967 31.6823C27.1877 30.659 27.0167 29.8036 27.0167 29.7814C27.0167 29.7592 28.6728 29.7342 30.697 29.7259L34.3774 29.7109L34.7875 29.5119C35.2814 29.2722 35.5892 28.9636 35.8282 28.4683L36 28.1124V20.36V12.6076L35.8282 12.2516C35.5892 11.7563 35.2814 11.4478 34.7874 11.2081L34.3773 11.0091L23.1114 11.0009C16.4345 10.9959 11.7597 11.0125 11.6348 11.0414ZM34.2568 11.8998C34.5549 11.9863 35.0046 12.4276 35.0927 12.7203C35.1428 12.887 35.1587 14.442 35.1587 19.2073V25.475H23H10.8413V19.2073C10.8413 14.442 10.8572 12.887 10.9073 12.7203C10.989 12.4489 11.4434 11.9871 11.7098 11.9046C11.9971 11.8158 33.9507 11.811 34.2568 11.8998ZM12.7115 12.8183C12.6275 12.9007 12.5783 13.0099 12.5783 13.1137C12.5783 13.2175 12.6275 13.3268 12.7115 13.4092C12.7955 13.4917 12.9068 13.54 13.0125 13.54C13.1183 13.54 13.2295 13.4917 13.3135 13.4092C13.3975 13.3268 13.4468 13.2175 13.4468 13.1137C13.4468 13.0099 13.3975 12.9007 13.3135 12.8183C13.2295 12.7358 13.1183 12.6875 13.0125 12.6875C12.9068 12.6875 12.7955 12.7358 12.7115 12.8183ZM14.4485 12.8183C14.3645 12.9007 14.3152 13.0099 14.3152 13.1137C14.3152 13.2175 14.3645 13.3268 14.4485 13.4092C14.5325 13.4917 14.6437 13.54 14.7495 13.54C14.8552 13.54 14.9665 13.4917 15.0505 13.4092C15.1345 13.3268 15.1837 13.2175 15.1837 13.1137C15.1837 13.0099 15.1345 12.9007 15.0505 12.8183C14.9665 12.7358 14.8552 12.6875 14.7495 12.6875C14.6437 12.6875 14.5325 12.7358 14.4485 12.8183ZM16.1854 12.8183C15.9162 13.0826 16.107 13.54 16.4864 13.54C16.5922 13.54 16.7034 13.4917 16.7874 13.4092C16.8714 13.3268 16.9207 13.2175 16.9207 13.1137C16.9207 13.0099 16.8714 12.9007 16.7874 12.8183C16.7034 12.7358 16.5922 12.6875 16.4864 12.6875C16.3807 12.6875 16.2694 12.7358 16.1854 12.8183ZM23 14.4621C22.7336 14.5446 22.2792 15.0064 22.1975 15.2778C22.0459 15.7816 22.1526 16.1744 22.5468 16.5637C22.7026 16.7175 22.8683 16.8434 22.9151 16.8434C22.9865 16.8434 23 16.9283 23 17.3762C23 17.8242 22.9865 17.9091 22.9151 17.9091C22.8683 17.9091 22.7026 18.035 22.5468 18.1888C22.1526 18.5781 22.0459 18.9708 22.1975 19.4747C22.2693 19.713 22.7672 20.2534 22.9151 20.2534C22.9865 20.2534 23 20.3383 23 20.7862C23 21.2342 22.9865 21.3191 22.9151 21.3191C22.7672 21.3191 22.2693 21.8595 22.1975 22.0978C22.0472 22.5974 22.1532 22.9957 22.5368 23.3722C22.8179 23.6481 23.0928 23.77 23.4342 23.77C23.7757 23.77 24.0506 23.6481 24.3317 23.3722C24.7153 22.9957 24.8213 22.5974 24.6709 22.0978C24.5992 21.8595 24.1013 21.3191 23.9534 21.3191C23.882 21.3191 23.8685 21.2342 23.8685 20.7862C23.8685 20.3383 23.882 20.2534 23.9534 20.2534C24.1013 20.2534 24.5992 19.713 24.6709 19.4747C24.8226 18.9708 24.7159 18.5781 24.3217 18.1888C24.1659 18.035 24.0002 17.9091 23.9534 17.9091C23.882 17.9091 23.8685 17.8242 23.8685 17.3762C23.8685 16.9283 23.882 16.8434 23.9534 16.8434C24.1013 16.8434 24.5992 16.303 24.6709 16.0647C24.8213 15.5651 24.7153 15.1668 24.3317 14.7903C23.9497 14.4154 23.5052 14.3059 23 14.4621ZM23.7352 15.3758C24.0045 15.6401 23.8137 16.0975 23.4342 16.0975C23.2111 16.0975 23 15.8903 23 15.6712C23 15.4522 23.2111 15.245 23.4342 15.245C23.54 15.245 23.6512 15.2933 23.7352 15.3758ZM25.7387 15.3758C25.6547 15.4582 25.6054 15.5674 25.6054 15.6712C25.6054 15.775 25.6547 15.8843 25.7387 15.9667L25.8719 16.0975H28.2109H30.5498L30.683 15.9667C30.7671 15.8843 30.8163 15.775 30.8163 15.6712C30.8163 15.5674 30.7671 15.4582 30.683 15.3758L30.5498 15.245H28.2109H25.8719L25.7387 15.3758ZM31.818 15.3758C31.734 15.4582 31.6848 15.5674 31.6848 15.6712C31.6848 15.775 31.734 15.8843 31.818 15.9667C31.9435 16.0898 31.9864 16.0975 32.5532 16.0975C33.12 16.0975 33.163 16.0898 33.2885 15.9667C33.3725 15.8843 33.4217 15.775 33.4217 15.6712C33.4217 15.5674 33.3725 15.4582 33.2885 15.3758C33.163 15.2527 33.12 15.245 32.5532 15.245C31.9864 15.245 31.9435 15.2527 31.818 15.3758ZM13.58 16.6545L13.4468 16.7853V19.5075V22.2297L13.58 22.3604L13.7132 22.4912H16.4864H19.2596L19.3928 22.3604L19.5261 22.2297V19.5075V16.7853L19.3928 16.6545L19.2596 16.5237H16.4864H13.7132L13.58 16.6545ZM15.1837 17.8025V18.2287H14.7495H14.3152V17.8025V17.3762H14.7495H15.1837V17.8025ZM16.9207 18.3392V19.3021L16.7776 19.1917C16.699 19.131 16.568 19.0812 16.4864 19.0812C16.4049 19.0812 16.2739 19.131 16.1952 19.1917L16.0522 19.3021V18.3392V17.3762H16.4864H16.9207V18.3392ZM18.6576 17.8025V18.2287H18.2234H17.7891V17.8025V17.3762H18.2234H18.6576V17.8025ZM23.7352 18.7858C24.0045 19.0501 23.8137 19.5075 23.4342 19.5075C23.2111 19.5075 23 19.3003 23 19.0812C23 18.8622 23.2111 18.655 23.4342 18.655C23.54 18.655 23.6512 18.7033 23.7352 18.7858ZM25.7387 18.7858C25.6547 18.8682 25.6054 18.9775 25.6054 19.0812C25.6054 19.185 25.6547 19.2943 25.7387 19.3767L25.8719 19.5075H28.2109H30.5498L30.683 19.3767C30.7671 19.2943 30.8163 19.185 30.8163 19.0812C30.8163 18.9775 30.7671 18.8682 30.683 18.7858L30.5498 18.655H28.2109H25.8719L25.7387 18.7858ZM31.818 18.7858C31.734 18.8682 31.6848 18.9775 31.6848 19.0812C31.6848 19.185 31.734 19.2943 31.818 19.3767C31.9435 19.4998 31.9864 19.5075 32.5532 19.5075C33.12 19.5075 33.163 19.4998 33.2885 19.3767C33.3725 19.2943 33.4217 19.185 33.4217 19.0812C33.4217 18.9775 33.3725 18.8682 33.2885 18.7858C33.163 18.6627 33.12 18.655 32.5532 18.655C31.9864 18.655 31.9435 18.6627 31.818 18.7858ZM15.1837 19.8029C15.1837 20.4982 15.1886 20.5295 15.317 20.6554C15.5471 20.8814 15.7379 20.8356 16.1383 20.4581L16.4864 20.13L16.8345 20.4581C17.235 20.8356 17.4257 20.8814 17.6559 20.6554C17.7843 20.5295 17.7891 20.4982 17.7891 19.8029V19.0812H18.2234H18.6576V20.36V21.6387H16.4864H14.3152V20.36V19.0812H14.7495H15.1837V19.8029ZM23.7352 22.1958C23.8192 22.2782 23.8685 22.3875 23.8685 22.4912C23.8685 22.595 23.8192 22.7043 23.7352 22.7867C23.6512 22.8692 23.54 22.9175 23.4342 22.9175C23.3285 22.9175 23.2172 22.8692 23.1333 22.7867C22.864 22.5224 23.0548 22.065 23.4342 22.065C23.54 22.065 23.6512 22.1133 23.7352 22.1958ZM25.7387 22.1958C25.6547 22.2782 25.6054 22.3875 25.6054 22.4912C25.6054 22.595 25.6547 22.7043 25.7387 22.7867L25.8719 22.9175H28.2109H30.5498L30.683 22.7867C30.7671 22.7043 30.8163 22.595 30.8163 22.4912C30.8163 22.3875 30.7671 22.2782 30.683 22.1958L30.5498 22.065H28.2109H25.8719L25.7387 22.1958ZM31.818 22.1958C31.734 22.2782 31.6848 22.3875 31.6848 22.4912C31.6848 22.595 31.734 22.7043 31.818 22.7867C31.9435 22.9098 31.9864 22.9175 32.5532 22.9175C33.12 22.9175 33.163 22.9098 33.2885 22.7867C33.3725 22.7043 33.4217 22.595 33.4217 22.4912C33.4217 22.3875 33.3725 22.2782 33.2885 22.1958C33.163 22.0727 33.12 22.065 32.5532 22.065C31.9864 22.065 31.9435 22.0727 31.818 22.1958ZM35.1587 27.0539C35.1587 27.4686 35.1303 27.8745 35.0927 27.9997C35.0046 28.2923 34.5549 28.7337 34.2568 28.8202C33.9319 28.9144 12.0681 28.9144 11.7432 28.8202C11.4451 28.7337 10.9954 28.2923 10.9073 27.9997C10.8697 27.8745 10.8413 27.4686 10.8413 27.0539V26.3275H23H35.1587V27.0539ZM22.2648 27.3108C22.1808 27.3932 22.1315 27.5025 22.1315 27.6062C22.1315 27.71 22.1808 27.8193 22.2648 27.9017C22.3902 28.0248 22.4332 28.0325 23 28.0325C23.5668 28.0325 23.6098 28.0248 23.7352 27.9017C23.8192 27.8193 23.8685 27.71 23.8685 27.6062C23.8685 27.5025 23.8192 27.3932 23.7352 27.3108C23.6098 27.1877 23.5668 27.18 23 27.18C22.4332 27.18 22.3902 27.1877 22.2648 27.3108ZM26.4444 31.3226C26.621 32.1945 26.776 32.9617 26.7888 33.0276L26.8122 33.1475H23H19.1878L19.2112 33.0276C19.224 32.9617 19.379 32.1945 19.5556 31.3226L19.8766 29.7375H23H26.1234L26.4444 31.3226Z" fill="#F5C331"/>
<circle cx="22.5" cy="22.5" r="21.5" fill="white" stroke="#F5C331" stroke-width="2"/>
<path fill-rule="evenodd" clip-rule="evenodd" d="M11.6348 11.0414C11.2975 11.1197 10.805 11.4044 10.5652 11.6597C10.4433 11.7895 10.2662 12.0559 10.1718 12.2516L10 12.6076V20.3628V28.118L10.2027 28.5206C10.4469 29.0055 10.7612 29.3076 11.2658 29.5422L11.6284 29.7109L15.3058 29.7259C17.3285 29.7342 18.9833 29.7592 18.9833 29.7814C18.9833 29.8036 18.8123 30.659 18.6033 31.6823C18.3944 32.7055 18.2234 33.5868 18.2234 33.6406C18.2234 33.6944 18.2834 33.7973 18.3566 33.8692L18.4898 34H23H27.5102L27.6434 33.8692C27.7166 33.7973 27.7766 33.6944 27.7766 33.6406C27.7766 33.5868 27.6056 32.7055 27.3967 31.6823C27.1877 30.659 27.0167 29.8036 27.0167 29.7814C27.0167 29.7592 28.6728 29.7342 30.697 29.7259L34.3774 29.7109L34.7875 29.5119C35.2814 29.2722 35.5892 28.9636 35.8282 28.4683L36 28.1124V20.36V12.6076L35.8282 12.2516C35.5892 11.7563 35.2814 11.4478 34.7874 11.2081L34.3773 11.0091L23.1114 11.0009C16.4345 10.9959 11.7597 11.0125 11.6348 11.0414ZM34.2568 11.8998C34.5549 11.9863 35.0046 12.4276 35.0927 12.7203C35.1428 12.887 35.1587 14.442 35.1587 19.2073V25.475H23H10.8413V19.2073C10.8413 14.442 10.8572 12.887 10.9073 12.7203C10.989 12.4489 11.4434 11.9871 11.7098 11.9046C11.9971 11.8158 33.9507 11.811 34.2568 11.8998ZM12.7115 12.8183C12.6275 12.9007 12.5783 13.0099 12.5783 13.1137C12.5783 13.2175 12.6275 13.3268 12.7115 13.4092C12.7955 13.4917 12.9068 13.54 13.0125 13.54C13.1183 13.54 13.2295 13.4917 13.3135 13.4092C13.3975 13.3268 13.4468 13.2175 13.4468 13.1137C13.4468 13.0099 13.3975 12.9007 13.3135 12.8183C13.2295 12.7358 13.1183 12.6875 13.0125 12.6875C12.9068 12.6875 12.7955 12.7358 12.7115 12.8183ZM14.4485 12.8183C14.3645 12.9007 14.3152 13.0099 14.3152 13.1137C14.3152 13.2175 14.3645 13.3268 14.4485 13.4092C14.5325 13.4917 14.6437 13.54 14.7495 13.54C14.8552 13.54 14.9665 13.4917 15.0505 13.4092C15.1345 13.3268 15.1837 13.2175 15.1837 13.1137C15.1837 13.0099 15.1345 12.9007 15.0505 12.8183C14.9665 12.7358 14.8552 12.6875 14.7495 12.6875C14.6437 12.6875 14.5325 12.7358 14.4485 12.8183ZM16.1854 12.8183C15.9162 13.0826 16.107 13.54 16.4864 13.54C16.5922 13.54 16.7034 13.4917 16.7874 13.4092C16.8714 13.3268 16.9207 13.2175 16.9207 13.1137C16.9207 13.0099 16.8714 12.9007 16.7874 12.8183C16.7034 12.7358 16.5922 12.6875 16.4864 12.6875C16.3807 12.6875 16.2694 12.7358 16.1854 12.8183ZM23 14.4621C22.7336 14.5446 22.2792 15.0064 22.1975 15.2778C22.0459 15.7816 22.1526 16.1744 22.5468 16.5637C22.7026 16.7175 22.8683 16.8434 22.9151 16.8434C22.9865 16.8434 23 16.9283 23 17.3762C23 17.8242 22.9865 17.9091 22.9151 17.9091C22.8683 17.9091 22.7026 18.035 22.5468 18.1888C22.1526 18.5781 22.0459 18.9708 22.1975 19.4747C22.2693 19.713 22.7672 20.2534 22.9151 20.2534C22.9865 20.2534 23 20.3383 23 20.7862C23 21.2342 22.9865 21.3191 22.9151 21.3191C22.7672 21.3191 22.2693 21.8595 22.1975 22.0978C22.0472 22.5974 22.1532 22.9957 22.5368 23.3722C22.8179 23.6481 23.0928 23.77 23.4342 23.77C23.7757 23.77 24.0506 23.6481 24.3317 23.3722C24.7153 22.9957 24.8213 22.5974 24.6709 22.0978C24.5992 21.8595 24.1013 21.3191 23.9534 21.3191C23.882 21.3191 23.8685 21.2342 23.8685 20.7862C23.8685 20.3383 23.882 20.2534 23.9534 20.2534C24.1013 20.2534 24.5992 19.713 24.6709 19.4747C24.8226 18.9708 24.7159 18.5781 24.3217 18.1888C24.1659 18.035 24.0002 17.9091 23.9534 17.9091C23.882 17.9091 23.8685 17.8242 23.8685 17.3762C23.8685 16.9283 23.882 16.8434 23.9534 16.8434C24.1013 16.8434 24.5992 16.303 24.6709 16.0647C24.8213 15.5651 24.7153 15.1668 24.3317 14.7903C23.9497 14.4154 23.5052 14.3059 23 14.4621ZM23.7352 15.3758C24.0045 15.6401 23.8137 16.0975 23.4342 16.0975C23.2111 16.0975 23 15.8903 23 15.6712C23 15.4522 23.2111 15.245 23.4342 15.245C23.54 15.245 23.6512 15.2933 23.7352 15.3758ZM25.7387 15.3758C25.6547 15.4582 25.6054 15.5674 25.6054 15.6712C25.6054 15.775 25.6547 15.8843 25.7387 15.9667L25.8719 16.0975H28.2109H30.5498L30.683 15.9667C30.7671 15.8843 30.8163 15.775 30.8163 15.6712C30.8163 15.5674 30.7671 15.4582 30.683 15.3758L30.5498 15.245H28.2109H25.8719L25.7387 15.3758ZM31.818 15.3758C31.734 15.4582 31.6848 15.5674 31.6848 15.6712C31.6848 15.775 31.734 15.8843 31.818 15.9667C31.9435 16.0898 31.9864 16.0975 32.5532 16.0975C33.12 16.0975 33.163 16.0898 33.2885 15.9667C33.3725 15.8843 33.4217 15.775 33.4217 15.6712C33.4217 15.5674 33.3725 15.4582 33.2885 15.3758C33.163 15.2527 33.12 15.245 32.5532 15.245C31.9864 15.245 31.9435 15.2527 31.818 15.3758ZM13.58 16.6545L13.4468 16.7853V19.5075V22.2297L13.58 22.3604L13.7132 22.4912H16.4864H19.2596L19.3928 22.3604L19.5261 22.2297V19.5075V16.7853L19.3928 16.6545L19.2596 16.5237H16.4864H13.7132L13.58 16.6545ZM15.1837 17.8025V18.2287H14.7495H14.3152V17.8025V17.3762H14.7495H15.1837V17.8025ZM16.9207 18.3392V19.3021L16.7776 19.1917C16.699 19.131 16.568 19.0812 16.4864 19.0812C16.4049 19.0812 16.2739 19.131 16.1952 19.1917L16.0522 19.3021V18.3392V17.3762H16.4864H16.9207V18.3392ZM18.6576 17.8025V18.2287H18.2234H17.7891V17.8025V17.3762H18.2234H18.6576V17.8025ZM23.7352 18.7858C24.0045 19.0501 23.8137 19.5075 23.4342 19.5075C23.2111 19.5075 23 19.3003 23 19.0812C23 18.8622 23.2111 18.655 23.4342 18.655C23.54 18.655 23.6512 18.7033 23.7352 18.7858ZM25.7387 18.7858C25.6547 18.8682 25.6054 18.9775 25.6054 19.0812C25.6054 19.185 25.6547 19.2943 25.7387 19.3767L25.8719 19.5075H28.2109H30.5498L30.683 19.3767C30.7671 19.2943 30.8163 19.185 30.8163 19.0812C30.8163 18.9775 30.7671 18.8682 30.683 18.7858L30.5498 18.655H28.2109H25.8719L25.7387 18.7858ZM31.818 18.7858C31.734 18.8682 31.6848 18.9775 31.6848 19.0812C31.6848 19.185 31.734 19.2943 31.818 19.3767C31.9435 19.4998 31.9864 19.5075 32.5532 19.5075C33.12 19.5075 33.163 19.4998 33.2885 19.3767C33.3725 19.2943 33.4217 19.185 33.4217 19.0812C33.4217 18.9775 33.3725 18.8682 33.2885 18.7858C33.163 18.6627 33.12 18.655 32.5532 18.655C31.9864 18.655 31.9435 18.6627 31.818 18.7858ZM15.1837 19.8029C15.1837 20.4982 15.1886 20.5295 15.317 20.6554C15.5471 20.8814 15.7379 20.8356 16.1383 20.4581L16.4864 20.13L16.8345 20.4581C17.235 20.8356 17.4257 20.8814 17.6559 20.6554C17.7843 20.5295 17.7891 20.4982 17.7891 19.8029V19.0812H18.2234H18.6576V20.36V21.6387H16.4864H14.3152V20.36V19.0812H14.7495H15.1837V19.8029ZM23.7352 22.1958C23.8192 22.2782 23.8685 22.3875 23.8685 22.4912C23.8685 22.595 23.8192 22.7043 23.7352 22.7867C23.6512 22.8692 23.54 22.9175 23.4342 22.9175C23.3285 22.9175 23.2172 22.8692 23.1333 22.7867C22.864 22.5224 23.0548 22.065 23.4342 22.065C23.54 22.065 23.6512 22.1133 23.7352 22.1958ZM25.7387 22.1958C25.6547 22.2782 25.6054 22.3875 25.6054 22.4912C25.6054 22.595 25.6547 22.7043 25.7387 22.7867L25.8719 22.9175H28.2109H30.5498L30.683 22.7867C30.7671 22.7043 30.8163 22.595 30.8163 22.4912C30.8163 22.3875 30.7671 22.2782 30.683 22.1958L30.5498 22.065H28.2109H25.8719L25.7387 22.1958ZM31.818 22.1958C31.734 22.2782 31.6848 22.3875 31.6848 22.4912C31.6848 22.595 31.734 22.7043 31.818 22.7867C31.9435 22.9098 31.9864 22.9175 32.5532 22.9175C33.12 22.9175 33.163 22.9098 33.2885 22.7867C33.3725 22.7043 33.4217 22.595 33.4217 22.4912C33.4217 22.3875 33.3725 22.2782 33.2885 22.1958C33.163 22.0727 33.12 22.065 32.5532 22.065C31.9864 22.065 31.9435 22.0727 31.818 22.1958ZM35.1587 27.0539C35.1587 27.4686 35.1303 27.8745 35.0927 27.9997C35.0046 28.2923 34.5549 28.7337 34.2568 28.8202C33.9319 28.9144 12.0681 28.9144 11.7432 28.8202C11.4451 28.7337 10.9954 28.2923 10.9073 27.9997C10.8697 27.8745 10.8413 27.4686 10.8413 27.0539V26.3275H23H35.1587V27.0539ZM22.2648 27.3108C22.1808 27.3932 22.1315 27.5025 22.1315 27.6062C22.1315 27.71 22.1808 27.8193 22.2648 27.9017C22.3902 28.0248 22.4332 28.0325 23 28.0325C23.5668 28.0325 23.6098 28.0248 23.7352 27.9017C23.8192 27.8193 23.8685 27.71 23.8685 27.6062C23.8685 27.5025 23.8192 27.3932 23.7352 27.3108C23.6098 27.1877 23.5668 27.18 23 27.18C22.4332 27.18 22.3902 27.1877 22.2648 27.3108ZM26.4444 31.3226C26.621 32.1945 26.776 32.9617 26.7888 33.0276L26.8122 33.1475H23H19.1878L19.2112 33.0276C19.224 32.9617 19.379 32.1945 19.5556 31.3226L19.8766 29.7375H23H26.1234L26.4444 31.3226Z" fill="#F5C331"/>
</svg>
