<svg width="23" height="25" viewBox="0 0 23 25" fill="none" xmlns="http://www.w3.org/2000/svg">
<path fill-rule="evenodd" clip-rule="evenodd" d="M10.0151 0.0232273C7.1185 0.224073 4.80405 0.876111 3.20172 1.94269C1.35823 3.16985 0.307739 5.5237 0.0490072 9.00688C-0.015418 9.87452 -0.0165965 12.5441 0.0470922 13.2828C0.286428 16.057 1.05899 18.0486 2.42356 19.4092C3.17461 20.1581 4.11487 20.7363 5.1384 21.0789L5.54037 21.2134L5.55579 22.7335C5.57018 24.1561 5.57774 24.2677 5.67418 24.475C5.88524 24.929 6.30768 25.1075 6.76401 24.9356C7.07087 24.82 7.68227 24.2035 8.75019 22.9327L9.57221 21.9546L10.1251 21.9959C10.8876 22.0529 13.1892 22.002 13.9926 21.9103C15.599 21.727 17.076 21.3961 18.2462 20.9572C19.7289 20.4012 20.9226 19.3648 21.7386 17.9252C22.1537 17.1927 22.5463 15.9807 22.7041 14.9443C23.0342 12.7768 23.0938 10.0792 22.8542 8.15341C22.5373 5.6058 21.7599 3.75098 20.5013 2.53922C19.9663 2.02415 19.5554 1.74654 18.7894 1.38248C17.2852 0.667594 15.3104 0.211269 12.986 0.0414549C12.3636 -0.00399186 10.5669 -0.0150359 10.0151 0.0232273ZM13.7962 1.86915C15.8236 2.11627 17.7713 2.70722 18.7427 3.37001C20.076 4.27968 20.844 5.99982 21.1723 8.81141C21.2549 9.51862 21.2535 12.2084 21.1702 13.1362C20.9468 15.621 20.4012 17.038 19.2399 18.1486C18.4344 18.919 17.736 19.2576 16.1287 19.6572C14.5439 20.0512 13.4475 20.1797 11.4637 20.2037L9.94147 20.2222L9.45318 20.8207C8.5852 21.8846 7.55317 23.1173 7.10627 23.6239C6.52399 24.2842 6.34962 24.3576 6.22882 23.9934C6.18453 23.8598 6.17697 23.2859 6.19872 21.7061L6.22769 19.5971L5.85032 19.4639C4.02574 18.82 2.82474 17.5626 2.21 15.6529C1.8428 14.5121 1.75922 13.8424 1.7303 11.8101C1.69897 9.60917 1.78957 8.35005 2.06382 7.17435C2.37833 5.82609 2.94313 4.70742 3.69822 3.93727C4.82016 2.79289 7.01832 2.0244 9.86782 1.78031C10.4445 1.7309 13.1671 1.79247 13.7962 1.86915ZM11.1303 4.55666C11.0841 4.6026 11.0463 4.70043 11.0463 4.77398C11.0463 5.03249 11.1193 5.06762 11.7731 5.12357C12.8436 5.21515 13.7035 5.49389 14.4757 5.99957C16.0822 7.05159 16.8996 8.62986 17.0652 10.9992C17.0983 11.4727 17.1536 11.5724 17.3832 11.5724C17.6325 11.5724 17.6945 11.4077 17.6551 10.8502C17.5727 9.68413 17.3429 8.76122 16.9163 7.88224C15.9446 5.87999 14.0175 4.62317 11.7318 4.50081C11.2851 4.47686 11.2028 4.48449 11.1303 4.55666ZM6.74967 5.31162C6.46457 5.44195 5.98958 5.81241 5.67772 6.14764C5.20415 6.65664 4.96423 7.3211 5.09514 7.761C5.19139 8.08445 6.04286 9.98535 6.36189 10.589C7.55091 12.8388 8.96724 14.427 10.9727 15.7593C12.2738 16.6237 13.983 17.5035 14.7446 17.7009C15.4538 17.8847 16.229 17.4344 16.886 16.4569C17.27 15.8857 17.3422 15.5245 17.1456 15.1588C16.995 14.8789 15.8244 13.9414 15.0189 13.4557C14.6753 13.2485 14.5726 13.2104 14.3129 13.1939C13.883 13.1667 13.694 13.2751 13.3104 13.7685C12.8603 14.3476 12.65 14.4295 12.0954 14.2418C11.6332 14.0853 11.0963 13.8144 10.7026 13.5389C9.79784 12.9058 8.88779 11.664 8.49407 10.5252C8.30015 9.96429 8.37351 9.76383 8.94907 9.28146C9.41345 8.89233 9.52408 8.70321 9.52408 8.29849C9.52408 8.10713 9.47871 7.97006 9.30773 7.64475C8.88233 6.83545 7.84711 5.44077 7.56344 5.29476C7.36726 5.19385 6.99019 5.20162 6.74967 5.31162ZM11.6927 6.17735C11.5599 6.26991 11.5482 6.54024 11.6724 6.6458C11.7196 6.68597 11.9434 6.74588 12.1695 6.77901C13.7156 7.00527 14.826 7.87467 15.244 9.18632C15.3647 9.56494 15.4657 10.1995 15.4657 10.5788C15.4657 10.9051 15.7469 11.0483 15.9638 10.8324C16.0621 10.7346 16.0671 10.6951 16.0386 10.2322C15.9666 9.06102 15.5403 8.07038 14.7931 7.33766C14.1166 6.67433 13.1728 6.26248 12.0241 6.12941C11.8671 6.11123 11.7668 6.1257 11.6927 6.17735ZM12.1266 7.90736C12.0726 7.96111 12.0284 8.06007 12.0284 8.12726C12.0284 8.32347 12.1754 8.42584 12.5065 8.46029C13.2864 8.54141 13.7279 9.00375 13.8451 9.86206C13.8824 10.1346 13.9216 10.2505 13.9984 10.3141C14.1356 10.4277 14.2647 10.422 14.3906 10.2967C14.4833 10.2045 14.4904 10.1603 14.459 9.86914C14.3382 8.74553 13.7388 8.04629 12.7387 7.8623C12.3373 7.78846 12.2388 7.7957 12.1266 7.90736Z" fill="#848383"/>
</svg>
