<svg width="883" height="226" viewBox="0 0 883 226" fill="none" xmlns="http://www.w3.org/2000/svg">
<path d="M1 57.2814C1 57.2814 60.8367 1 111.125 1C161.413 1 170.962 57.2814 221.25 57.2814C271.538 57.2814 281.087 1 331.375 1C381.663 1 391.212 57.2814 441.5 57.2814C491.788 57.2814 501.337 1 551.625 1C601.913 1 611.462 57.2814 661.75 57.2814C712.038 57.2814 721.587 1 771.875 1C822.163 1 882 57.2814 882 57.2814" stroke="#F5C536" stroke-opacity="0.25" stroke-width="2"/>
<path d="M1 99.211C1 99.211 60.8367 42.9296 111.125 42.9296C161.413 42.9296 170.962 99.211 221.25 99.211C271.538 99.211 281.087 42.9296 331.375 42.9296C381.663 42.9296 391.212 99.211 441.5 99.211C491.788 99.211 501.337 42.9296 551.625 42.9296C601.913 42.9296 611.462 99.211 661.75 99.211C712.038 99.211 721.587 42.9296 771.875 42.9296C822.163 42.9296 882 99.211 882 99.211" stroke="#F5C536" stroke-opacity="0.25" stroke-width="2"/>
<path d="M1 141.141C1 141.141 60.8367 84.8593 111.125 84.8593C161.413 84.8593 170.962 141.141 221.25 141.141C271.538 141.141 281.087 84.8593 331.375 84.8593C381.663 84.8593 391.212 141.141 441.5 141.141C491.788 141.141 501.337 84.8593 551.625 84.8593C601.913 84.8593 611.462 141.141 661.75 141.141C712.038 141.141 721.587 84.8593 771.875 84.8593C822.163 84.8593 882 141.141 882 141.141" stroke="#F5C536" stroke-opacity="0.25" stroke-width="2"/>
<path d="M1 183.07C1 183.07 60.8367 126.789 111.125 126.789C161.413 126.789 170.962 183.07 221.25 183.07C271.538 183.07 281.087 126.789 331.375 126.789C381.663 126.789 391.212 183.07 441.5 183.07C491.788 183.07 501.337 126.789 551.625 126.789C601.913 126.789 611.462 183.07 661.75 183.07C712.038 183.07 721.587 126.789 771.875 126.789C822.163 126.789 882 183.07 882 183.07" stroke="#F5C536" stroke-opacity="0.25" stroke-width="2"/>
<path d="M1 225C1 225 60.8367 168.719 111.125 168.719C161.413 168.719 170.962 225 221.25 225C271.538 225 281.087 168.719 331.375 168.719C381.663 168.719 391.212 225 441.5 225C491.788 225 501.337 168.719 551.625 168.719C601.913 168.719 611.462 225 661.75 225C712.038 225 721.587 168.719 771.875 168.719C822.163 168.719 882 225 882 225" stroke="#F5C536" stroke-opacity="0.25" stroke-width="2"/>
</svg>
