<svg width="48" height="32" viewBox="0 0 48 32" fill="none" xmlns="http://www.w3.org/2000/svg">
<path d="M16.04 15.072C17.448 15.864 18.5627 16.8907 19.384 18.152C20.2347 19.4133 20.66 20.7627 20.66 22.2C20.66 23.8133 20.22 25.3093 19.34 26.688C18.46 28.0373 17.2573 29.1227 15.732 29.944C14.2067 30.736 12.5347 31.132 10.716 31.132C8.89733 31.132 7.22533 30.736 5.7 29.944C4.17467 29.1227 2.972 28.0373 2.092 26.688C1.212 25.3093 0.772 23.8133 0.772 22.2C0.772 20.616 1.18267 19.2373 2.004 18.064C2.85467 16.8613 3.94 15.8787 5.26 15.116C4.17467 14.5 3.28 13.664 2.576 12.608C1.872 11.5227 1.52 10.2613 1.52 8.824C1.52 7.24 1.93067 5.788 2.752 4.468C3.57333 3.148 4.67333 2.10667 6.052 1.344C7.46 0.581332 9.01467 0.199998 10.716 0.199998C12.388 0.199998 13.928 0.581332 15.336 1.344C16.744 2.10667 17.844 3.148 18.636 4.468C19.4573 5.788 19.868 7.24 19.868 8.824C19.868 10.32 19.5013 11.596 18.768 12.652C18.0347 13.6787 17.1253 14.4853 16.04 15.072ZM10.716 4.072C9.24933 4.072 8.04667 4.52666 7.108 5.436C6.16933 6.34533 5.7 7.504 5.7 8.912C5.7 10.2907 6.184 11.4493 7.152 12.388C8.12 13.2973 9.308 13.752 10.716 13.752C12.0947 13.752 13.268 13.2973 14.236 12.388C15.204 11.4493 15.688 10.2907 15.688 8.912C15.688 7.504 15.2187 6.34533 14.28 5.436C13.3413 4.52666 12.1533 4.072 10.716 4.072ZM10.716 27.26C12.3587 27.26 13.7227 26.776 14.808 25.808C15.9227 24.84 16.48 23.6227 16.48 22.156C16.48 20.6893 15.908 19.4573 14.764 18.46C13.6493 17.4627 12.3 16.964 10.716 16.964C9.132 16.964 7.78267 17.4627 6.668 18.46C5.55333 19.4573 4.996 20.6893 4.996 22.156C4.996 23.6227 5.53867 24.84 6.624 25.808C7.70933 26.776 9.07333 27.26 10.716 27.26ZM45.3055 16.788C45.8922 16.788 46.3615 16.9787 46.7135 17.36C47.0948 17.712 47.2855 18.1813 47.2855 18.768C47.2855 19.3253 47.0948 19.78 46.7135 20.132C46.3615 20.484 45.8922 20.66 45.3055 20.66H38.5295V27.392C38.5295 28.0373 38.3242 28.58 37.9135 29.02C37.5028 29.4307 36.9602 29.636 36.2855 29.636C35.6402 29.636 35.0975 29.4307 34.6575 29.02C34.2468 28.58 34.0415 28.0373 34.0415 27.392V20.66H27.3095C26.7522 20.66 26.2828 20.4693 25.9015 20.088C25.5202 19.7067 25.3295 19.2373 25.3295 18.68C25.3295 18.1227 25.5055 17.668 25.8575 17.316C26.2388 16.964 26.7228 16.788 27.3095 16.788H34.0415V9.616C34.0415 8.97067 34.2468 8.44267 34.6575 8.032C35.0975 7.62133 35.6402 7.416 36.2855 7.416C36.9602 7.416 37.5028 7.62133 37.9135 8.032C38.3242 8.44267 38.5295 8.97067 38.5295 9.616V16.788H45.3055Z" fill="#333333"/>
</svg>
