<svg width="63" height="80" viewBox="0 0 63 80" fill="none" xmlns="http://www.w3.org/2000/svg">
<path fill-rule="evenodd" clip-rule="evenodd" d="M30.1936 0.0975156C29.41 0.295237 28.3291 0.853676 26.7578 1.87279C24.19 3.53825 24.5055 3.45534 20.6887 3.47036C17.5834 3.48272 17.2544 3.51103 16.4124 3.83827C15.0023 4.38623 14.0894 5.4105 12.7853 7.90752C11.278 10.7934 10.8643 11.2148 8.15754 12.6205C5.58627 13.9559 4.6365 14.7561 3.99451 16.1275C3.5578 17.0607 3.55514 17.0852 3.54043 20.4292C3.52338 24.3172 3.58284 24.0889 1.90455 26.6983C0.409167 29.0234 0.000156469 30.0476 0 31.4686C0 32.8913 0.390861 33.8688 1.89203 36.1991C3.58425 38.8262 3.52338 38.5939 3.54043 42.4852C3.55514 45.8292 3.5578 45.8536 3.99451 46.7869C4.63854 48.1628 5.6074 48.9806 8.17099 50.3119C10.7617 51.6573 11.2753 52.1423 12.3273 54.2365C13.8959 57.3589 14.82 58.4484 16.4517 59.099C17.2159 59.4038 17.6017 59.4459 19.5509 59.4378L21.7769 59.4284L21.8197 68.9344C21.8614 78.2575 21.8685 78.4486 22.1849 78.8722C22.6957 79.5561 23.2584 79.8992 24.0082 79.9836C24.65 80.0559 24.965 79.9304 28.1005 78.3526L31.4975 76.643L34.8775 78.3531C38.0085 79.937 38.309 80.0571 38.9573 79.9841C39.7113 79.8992 40.2735 79.5572 40.7853 78.8724C41.0895 78.4655 41.1106 78.1999 41.1543 74.2284L41.2006 70.0162L40.8093 69.625C40.2795 69.0953 39.5899 69.1041 39.1635 69.6461C38.8556 70.0375 38.8392 70.2505 38.8392 73.8696C38.8392 75.9658 38.8007 77.6809 38.7536 77.6809C38.7066 77.6809 37.2133 76.9282 35.4352 76.0084C32.7131 74.6001 32.0895 74.3357 31.4892 74.3357C30.8885 74.3357 30.2681 74.5992 27.5496 76.0084C25.7749 76.9282 24.2797 77.6809 24.2269 77.6809C24.1742 77.6809 24.131 73.6334 24.131 68.6864C24.131 62.5108 24.1825 59.692 24.2953 59.692C24.5463 59.692 25.2603 60.0885 26.7076 61.0316C27.4322 61.5037 28.5042 62.117 29.09 62.3944C30.0299 62.8394 30.3113 62.8987 31.4851 62.8987C32.6589 62.8987 32.9403 62.8394 33.8802 62.3944C34.466 62.117 35.538 61.5037 36.2626 61.0316C37.7099 60.0885 38.4239 59.692 38.6749 59.692C38.7835 59.692 38.8392 60.6396 38.8392 62.4865C38.8392 65.0769 38.8628 65.3112 39.1635 65.6932C39.612 66.2632 40.4134 66.2632 40.8618 65.6932C41.1638 65.3097 41.1862 65.0785 41.1862 62.3512V59.4212L43.3377 59.4384C45.7507 59.4578 46.4057 59.3203 47.5436 58.5557C48.5331 57.8909 49.1741 57.0137 50.4794 54.539C51.194 53.1842 51.7737 52.297 52.2001 51.9054C52.5537 51.5807 53.7756 50.8345 54.9153 50.2475C57.3479 48.9945 58.337 48.1514 58.9757 46.7869C59.4124 45.8536 59.4151 45.8292 59.4298 42.4852C59.4468 38.5982 59.3878 38.8245 61.0613 36.2229C62.3751 34.1801 62.7521 33.3834 62.9312 32.2711C63.1938 30.6391 62.7325 29.2646 61.063 26.7048C59.4046 24.1621 59.4468 24.325 59.4298 20.4292C59.4151 17.0852 59.4124 17.0607 58.9757 16.1275C58.3337 14.7561 57.3839 13.9559 54.8127 12.6205C52.1059 11.2148 51.6922 10.7934 50.1849 7.90752C48.8807 5.4105 47.9679 4.38623 46.5578 3.83827C45.7158 3.51103 45.3868 3.48272 42.2815 3.47036C38.4517 3.45519 38.8096 3.5517 36.1009 1.80349C34.0801 0.499216 33.1039 0.0885993 31.8434 0.0130459C31.2592 -0.0219934 30.5167 0.016018 30.1936 0.0975156ZM32.696 2.56935C33.1058 2.7264 34.1803 3.33959 35.0839 3.93197C35.9875 4.52435 37.1493 5.18775 37.6656 5.40628C38.5713 5.78936 38.7232 5.8036 41.9685 5.80876C45.084 5.81361 45.379 5.83848 45.9593 6.14445C46.7208 6.54568 47.3254 7.36488 48.3051 9.32301C49.289 11.2893 50.1567 12.5045 51.04 13.1526C51.4379 13.4447 52.605 14.1231 53.6333 14.6602C55.992 15.8921 56.4227 16.2186 56.848 17.0967C57.1714 17.7645 57.1865 17.9541 57.1043 20.3217C57.0563 21.7052 57.0843 23.2633 57.1666 23.7841C57.349 24.9375 57.9539 26.2742 58.9855 27.8036C61.1904 31.0718 61.1861 31.7544 58.94 35.1992C57.1982 37.8708 56.9719 38.7818 57.1043 42.5927C57.1866 44.9675 57.1722 45.1482 56.8444 45.8252C56.4124 46.7173 55.7518 47.2088 53.2442 48.5035C50.4839 49.9285 49.7728 50.6769 48.1849 53.826C46.5515 57.0654 46.4655 57.111 41.9685 57.1111C38.018 57.1111 38.0529 57.1019 35.2659 58.8934C33.065 60.3083 32.3757 60.6236 31.4851 60.6236C30.5985 60.6236 29.9043 60.3077 27.7535 58.925C24.9276 57.1085 24.9408 57.112 21.0016 57.1114C16.4506 57.1108 16.4661 57.1194 14.6354 53.5457C13.0968 50.5423 12.4492 49.886 9.57969 48.4225C7.25424 47.2364 6.5545 46.7105 6.12687 45.8274C5.80095 45.1541 5.78561 44.9653 5.86354 42.5866C5.98918 38.751 5.76981 37.8674 4.03018 35.1992C1.78407 31.7544 1.77984 31.0718 3.98465 27.8036C5.01547 26.2755 5.62163 24.9368 5.80079 23.7924C5.88153 23.2762 5.91016 21.7579 5.86432 20.4186C5.7684 17.6131 5.87605 17.0999 6.73554 16.2653C7.04926 15.9609 8.06803 15.3219 8.99965 14.8456C12.3974 13.108 13.1358 12.3885 14.6665 9.32301C15.6413 7.37082 16.2472 6.54803 17.0109 6.13913C17.6003 5.82331 17.8186 5.80626 20.6887 5.85037C24.4995 5.90903 24.9929 5.78248 27.6699 4.05961C30.4935 2.24226 31.2543 2.0167 32.696 2.56935ZM28.0428 9.39685C24.7142 9.94871 20.4768 11.6334 19.9225 12.6256C19.6159 13.174 19.9121 13.9153 20.5418 14.1761C20.9517 14.3458 21.1317 14.2964 22.4684 13.6463C25.3912 12.2249 27.5716 11.6775 30.7987 11.555C36.4644 11.3401 41.6237 13.3749 45.6521 17.4132C48.4087 20.1764 50.2592 23.6491 51.1355 27.703C51.5096 29.4343 51.5096 33.4801 51.1355 35.2114C49.3135 43.6409 43.0472 49.7371 34.714 51.1871C32.5744 51.5594 28.7912 51.4141 26.7564 50.8813C18.3748 48.6873 12.5174 41.9405 11.5986 33.4224C11.1217 29.001 12.303 24.2454 14.8263 20.4276C15.1963 19.8676 16.0331 18.7864 16.6857 18.025C17.3384 17.2635 17.8723 16.5169 17.8723 16.3659C17.8723 16.0021 17.329 15.3252 16.9594 15.2287C16.2393 15.0404 15.1009 16.0481 13.3813 18.3957C9.26456 24.016 8.07633 31.4752 10.2225 38.224C12.6748 45.9353 18.9912 51.6024 27.1122 53.3779C28.9969 53.7899 33.9733 53.7899 35.8579 53.3779C45.0591 51.3664 51.8325 44.4042 53.4982 35.2464C53.8499 33.3129 53.8499 29.6015 53.4982 27.668C51.8379 18.539 45.0354 11.5522 35.8662 9.55859C34.2213 9.20084 29.779 9.10902 28.0428 9.39685ZM44.2353 25.4943C44.1011 25.699 42.9717 28.2958 41.7254 31.2648C39.3399 36.9482 39.3112 37.0539 40.0047 37.6294C40.378 37.9392 41.1563 37.8946 41.4863 37.5448C41.8737 37.1342 46.2319 26.7131 46.2394 26.1799C46.2483 25.5423 45.7867 25.122 45.0773 25.122C44.6201 25.122 44.4218 25.2096 44.2353 25.4943ZM21.9619 25.7971C21.2021 26.084 20.2686 26.9196 19.8649 27.6747C19.5363 28.2891 19.5152 28.5183 19.5152 31.4572C19.5152 35.0271 19.6075 35.3674 20.8686 36.4467C22.7718 38.0751 25.7405 37.3347 26.7628 34.9768C27.0719 34.2639 27.2069 30.1143 26.9638 28.798C26.6255 26.9653 25.2373 25.7181 23.4494 25.6404C22.9207 25.6174 22.2514 25.6879 21.9619 25.7971ZM30.9925 25.7993C29.873 26.2179 28.7782 27.4292 28.584 28.4642C28.5335 28.7338 28.5142 30.2626 28.5413 31.8612L28.5904 34.7681L29.0639 35.533C29.3571 36.0067 29.8293 36.4785 30.3034 36.7716C30.9814 37.1905 31.207 37.2449 32.2674 37.2449C33.3278 37.2449 33.5535 37.1905 34.2314 36.7716C34.7056 36.4785 35.1778 36.0067 35.471 35.533L35.9445 34.7679L35.9931 31.7134C36.0332 29.2042 35.9972 28.5416 35.7914 28.0029C35.5062 27.2566 34.6777 26.3386 33.9493 25.962C33.2832 25.6177 31.7098 25.531 30.9925 25.7993ZM14.1882 26.1317C13.9769 26.3429 13.804 26.698 13.804 26.9209C13.804 27.5179 14.4536 28.0941 15.127 28.0941H15.6817V32.0907C15.6817 35.2924 15.7272 36.1753 15.9106 36.5298C16.2919 37.2668 17.1322 37.3968 17.6886 36.8048C18.0232 36.4484 18.0287 36.3616 18.0287 31.4193V26.3961L17.6164 26.0719C17.2736 25.8023 16.9826 25.7477 15.8882 25.7477C14.6995 25.7477 14.5349 25.7849 14.1882 26.1317ZM38.3128 26.3164C37.6961 26.9331 37.7278 27.921 38.3818 28.4712C39.0552 29.0378 39.8165 29.0182 40.4159 28.4189C41.4032 27.4319 40.778 25.9041 39.3868 25.9041C38.8808 25.9041 38.6284 26.0009 38.3128 26.3164ZM24.0465 28.1826C24.6177 28.5566 24.7569 29.2042 24.7569 31.4855C24.7569 34.3229 24.4635 34.9768 23.1905 34.9768C22.8556 34.9768 22.5529 34.831 22.2414 34.5195L21.784 34.0623V31.4572V28.8521L22.2414 28.3949C22.7633 27.873 23.4505 27.7922 24.0465 28.1826ZM33.1942 28.3426L33.6757 28.7476V31.4498V34.1519L33.2632 34.5644C32.7164 35.111 31.985 35.114 31.3407 34.5718L30.8592 34.1668V31.5094V28.8521L31.3166 28.3949C31.8997 27.812 32.5422 27.794 33.1942 28.3426ZM45.3988 34.4954C44.5982 35.2959 44.8136 36.5293 45.828 36.953C46.4883 37.2288 47.3067 37.0259 47.6792 36.4943C48.3563 35.5279 47.5974 34.0382 46.4279 34.0382C46.0047 34.0382 45.7374 34.1569 45.3988 34.4954Z" fill="#333333"/>
</svg>
