<svg width="94" height="77" viewBox="0 0 94 77" fill="none" xmlns="http://www.w3.org/2000/svg">
<path fill-rule="evenodd" clip-rule="evenodd" d="M20.2013 0.170636C18.3887 0.526954 16.7251 1.8912 16.1268 3.5118C15.9348 4.03185 14.7979 10.0692 13.6003 16.9284L11.4226 29.3995H7.71776H4.01272L2.88738 29.9583C1.69454 30.5505 1.06428 31.1687 0.404969 32.3933L0 33.1454V53.1541V73.1627L0.493981 74.0928C1.07146 75.1804 2.03496 76.0756 3.20904 76.6152L4.04601 77H39.6325H75.219L76.2639 76.4902C77.4478 75.9126 78.3116 75.0273 78.8777 73.8116C79.2473 73.018 79.2674 72.6536 79.3189 65.8343L79.3727 58.6887L80.3304 58.8638C81.9581 59.1614 83.9605 58.957 84.9263 58.3947C86.0143 57.7612 86.998 56.6054 87.3478 55.5495C87.5014 55.0862 89.0841 46.4023 90.8652 36.2518C93.4663 21.4286 94.0816 17.6052 93.9917 16.825C93.7453 14.6872 92.1287 12.7847 90.0991 12.2442C89.4363 12.0676 81.0844 10.5757 44.8739 4.16579C25.1077 0.666557 21.1728 -0.0217761 21.0639 0.000516666C21.0098 0.0114803 20.6218 0.088043 20.2013 0.170636ZM55.4641 9.11551C78.2097 13.1467 89.6351 15.2445 89.9457 15.4468C90.5634 15.8488 90.943 16.617 90.9443 17.4674C90.9449 17.8493 90.7236 19.4548 90.4526 21.0352C89.9891 23.7375 89.9369 23.9034 89.5779 23.8209C89.3679 23.7724 82.9064 22.6213 75.219 21.2627C67.5315 19.9041 58.7177 18.3451 55.6326 17.7983C25.1507 12.3966 17.833 11.0901 17.7835 11.0409C17.6347 10.8931 18.8776 4.62626 19.1325 4.23997C19.5016 3.68028 20.4722 3.08843 21.0225 3.08751C21.2559 3.08715 36.7547 5.79973 55.4641 9.11551ZM53.2418 20.445C72.612 23.8735 88.6747 26.7357 88.9366 26.8057L89.4127 26.9327L87.0616 40.3632C85.7687 47.7499 84.62 54.1023 84.509 54.4796C84.1485 55.7055 83.0221 56.1179 80.7822 55.8438L79.3569 55.6695V44.8517C79.3569 32.8556 79.3624 32.9181 78.1668 31.3622C77.7365 30.8023 77.1526 30.3431 76.3892 29.964L75.2523 29.3995H44.9364C14.8816 29.3995 14.6208 29.3964 14.6208 29.039C14.6208 28.7285 16.8202 15.9815 17.1229 14.5376C17.2106 14.1193 17.3077 14.0382 17.6274 14.1155C17.8451 14.1683 33.8715 17.0165 53.2418 20.445ZM74.8261 32.5751C75.1599 32.7136 75.6125 33.0537 75.8317 33.3307L76.2305 33.8343V53.1049C76.2305 70.9408 76.2071 72.4146 75.9167 72.9033C75.2271 74.063 77.8527 73.985 39.5495 73.985C8.73349 73.985 4.60859 73.9527 4.13189 73.7078C2.97418 73.113 3.03451 74.245 3.03451 53.1124C3.03451 31.8254 2.942 33.4391 4.20546 32.6736C4.7673 32.3332 5.64749 32.3244 39.5004 32.3239C68.5905 32.3233 74.3176 32.3641 74.8261 32.5751ZM10.7605 48.4609C9.7963 48.7659 8.65478 49.9965 8.39878 51.0068C8.13192 52.0595 8.11831 56.4748 8.37891 57.4074C8.62995 58.3057 9.5541 59.3385 10.4812 59.7569C11.1482 60.0581 11.8246 60.09 17.5805 60.0937C23.8891 60.0977 23.9491 60.0942 24.7529 59.6725C25.1987 59.4388 25.8117 58.8976 26.1151 58.4698L26.6669 57.6923L26.7268 54.5552C26.7631 52.66 26.7082 51.156 26.5883 50.7558C26.3366 49.9147 24.9994 48.6758 24.0655 48.418C23.0944 48.1501 11.6258 48.187 10.7605 48.4609ZM23.5956 51.5461C23.7445 51.6941 23.8163 52.5357 23.8163 54.1355C23.8163 56.0847 23.7622 56.565 23.5119 56.8399C23.2298 57.1498 22.7994 57.1741 17.6147 57.1741C14.1112 57.1741 11.889 57.1034 11.6661 56.985C11.3399 56.8114 11.3104 56.5791 11.3104 54.183C11.3104 52.7462 11.3656 51.5156 11.4331 51.4487C11.5004 51.3816 14.2149 51.3268 17.4653 51.3268C21.8164 51.3268 23.433 51.3845 23.5956 51.5461ZM9.31943 65.4542C8.77119 66.0342 8.79381 66.933 9.37111 67.5064L9.82242 67.955H14.6635C19.9016 67.955 20.137 67.9141 20.5103 66.9385C20.717 66.3982 20.4101 65.4566 19.947 65.2103C19.7515 65.1063 17.5393 65.0314 14.6649 65.0314C9.73322 65.0314 9.71833 65.0325 9.31943 65.4542ZM25.8527 65.5128C25.3367 66.1645 25.3644 66.9516 25.923 67.5064L26.3743 67.955H31.2703H36.1665L36.7256 67.3995C37.1935 66.9346 37.2661 66.7483 37.1707 66.2575C36.936 65.0505 36.8431 65.0314 31.2576 65.0314H26.2338L25.8527 65.5128ZM42.4046 65.5128C41.9737 66.057 41.9253 66.5169 42.2372 67.0991C42.681 67.9269 42.7906 67.9431 47.9632 67.9492L52.8914 67.955L53.3426 67.4715C53.8939 66.8802 53.9199 66.1539 53.4123 65.5128L53.0312 65.0314H47.9084H42.7856L42.4046 65.5128ZM59.1479 65.3511C58.9347 65.5269 58.7089 65.9348 58.6461 66.2575C58.5507 66.7483 58.6233 66.9346 59.0912 67.3995L59.6503 67.955H64.5465H69.4426L69.8939 67.5064C70.4912 66.9131 70.503 65.973 69.9198 65.4286C69.5043 65.0409 69.374 65.0314 64.5147 65.0314C60.0428 65.0314 59.496 65.0639 59.1479 65.3511Z" fill="#F5C331"/>
</svg>
