<svg width="70" height="70" viewBox="0 0 70 70" fill="none" xmlns="http://www.w3.org/2000/svg">
<path fill-rule="evenodd" clip-rule="evenodd" d="M33.4091 0.0977872C29.5194 0.603193 25.9289 3.13569 24.1343 6.64014C23.396 8.08177 23.0294 9.53968 22.9517 11.3433C22.8678 13.294 23.035 14.4622 23.6292 16.0753C24.424 18.2334 26.0676 20.3485 28.0113 21.7144C31.8225 24.3928 36.8898 24.6185 41.078 22.2961C42.4847 21.5161 44.6048 19.4756 45.4087 18.1281C46.0286 17.0889 46.7288 15.3306 46.8795 14.4344C47.0059 13.6827 46.5978 13.1407 45.9054 13.1407C45.2751 13.1407 44.9382 13.4956 44.7506 14.3577C44.5394 15.3274 43.8824 16.7028 43.1426 17.7239C41.0439 20.6204 37.2835 22.2546 33.8159 21.7768C31.4041 21.4446 29.5629 20.5368 27.8456 18.8332C26.9442 17.939 26.6033 17.4747 26.0776 16.4253C25.2656 14.8039 25.0068 13.7285 25.0042 11.9652C25 9.16621 25.9187 7.01416 27.98 4.99487C30.0736 2.94396 32.0476 2.13118 34.9377 2.12981C36.9101 2.12899 37.8756 2.34549 39.589 3.17278C40.5392 3.63152 41.0111 3.98105 42.0355 4.98529C43.0937 6.02251 43.4112 6.4406 43.9442 7.49794C44.2959 8.19549 44.6236 8.97543 44.6722 9.23094C44.7973 9.88757 45.2015 10.2668 45.7766 10.2668C46.3191 10.2668 46.8188 9.83939 46.8188 9.37546C46.8188 8.99363 46.2486 7.34932 45.8456 6.56911C43.5407 2.10559 38.4289 -0.554327 33.4091 0.0977872ZM37.1644 10.9511C35.6293 12.4565 34.3118 13.6882 34.2368 13.6882C34.1617 13.6882 33.1953 12.7952 32.089 11.7038C30.3395 9.97776 30.0199 9.71937 29.6344 9.71937C29.1124 9.71937 28.615 10.2423 28.615 10.7911C28.615 11.3121 33.4922 16.1115 34.1505 16.2382C34.6049 16.3255 34.6801 16.2621 38.0066 12.986C41.6928 9.35575 41.767 9.24791 41.0582 8.54995C40.3687 7.87074 40.1989 7.97543 37.1644 10.9511ZM53.9752 14.7686C53.7459 14.9107 51.8295 16.7426 49.7163 18.8395C45.6236 22.9012 45.518 23.0417 45.8383 23.9977C45.9225 24.249 46.1776 24.6303 46.4051 24.8449C46.6325 25.0596 46.8188 25.3067 46.8188 25.3942C46.8188 25.4816 46.1934 26.1509 45.4292 26.8813C43.6748 28.5577 42.7304 29.0416 41.0582 29.1209C40.1051 29.1662 39.7381 29.1119 38.5683 28.7527C37.4804 28.4188 36.9471 28.3316 35.992 28.3316C33.6543 28.3316 32.1706 28.9749 30.174 30.8536L28.8756 32.0754L26.1082 29.3526L23.3407 26.6296L23.6763 26.2832C24.1387 25.8056 24.3423 25.2078 24.2367 24.6379C24.1625 24.2379 23.4924 23.5089 20.2323 20.2814C18.079 18.1496 16.1483 16.3176 15.9419 16.21C15.4625 15.9605 14.8087 15.9608 14.33 16.2105C14.1236 16.3184 10.8499 19.4745 7.05489 23.2244C1.57918 28.6352 0.13567 30.1342 0.0611879 30.4871C-0.146974 31.4731 -0.0276073 31.6314 3.79364 35.431C5.79022 37.4162 7.66756 39.2175 7.96563 39.434C8.70837 39.9732 9.64371 39.9853 10.2732 39.4636L10.7123 39.0997L13.8968 42.2338C15.6483 43.9575 17.0814 45.4261 17.0814 45.4971C17.0814 45.5681 15.6844 47.0159 13.9772 48.7143C11.3057 51.3717 10.8407 51.8963 10.6421 52.4767C10.3732 53.2624 10.343 54.3695 10.5724 55.0322C11.0207 56.3276 12.3003 57.3885 13.6263 57.5644L14.2706 57.6497L14.3572 58.2843C14.5791 59.9082 16.2458 61.4505 17.7788 61.4505C18.1291 61.4505 18.1687 61.5097 18.3172 62.2531C18.5816 63.5762 19.5093 64.6754 20.7638 65.1518C21.2307 65.3291 22.6904 65.3788 23.1442 65.2328C23.3947 65.1522 23.4742 65.2217 23.6629 65.6862C23.9546 66.4039 24.7718 67.2838 25.4748 67.6371C25.7836 67.7923 26.4202 67.9495 26.8896 67.9866C28.0857 68.0812 28.9781 67.7623 29.9396 66.8969L30.705 66.208L32.3351 67.7669C34.3467 69.6908 34.908 69.9941 36.4663 69.9999C37.4058 70.0033 37.6998 69.945 38.3646 69.6235C39.7354 68.9604 40.6459 67.6757 40.8022 66.1835L40.8778 65.4629L41.4512 65.4408C43.5001 65.3617 45.4287 63.4769 45.429 61.5532L45.4292 60.9031H45.9797C47.9243 60.9031 49.8328 59.1486 50.0947 57.1204C50.1852 56.4202 50.1882 56.4165 50.7602 56.3296C52.407 56.0795 53.6104 55.2888 54.2924 54.0088C54.6126 53.408 54.6662 53.1413 54.6666 52.1444C54.6675 50.431 54.4299 50.0174 52.1329 47.7342L50.2305 45.8436L54.5962 41.5424L58.962 37.2412L59.5573 37.7816C60.0808 38.2568 60.2345 38.3221 60.8298 38.3221C61.3571 38.3221 61.6266 38.2351 62.0487 37.9286C62.3468 37.7121 64.2266 35.9092 66.2263 33.922C69.2964 30.8708 69.8766 30.2312 69.9572 29.8083C70.1285 28.9082 69.8605 28.4986 67.7541 26.4418C66.084 24.8109 65.6984 24.4997 65.3486 24.4997C64.8239 24.4997 64.3277 24.9972 64.3277 25.5232C64.3277 25.8388 64.658 26.242 66.0619 27.6393L67.7961 29.3656L64.3246 32.7824L60.8533 36.1992L54.3916 29.8366L47.9301 23.4743L51.4026 20.0544L54.8749 16.6347L58.1836 19.8829C61.0429 22.6901 61.5494 23.1312 61.913 23.1312C62.4441 23.1312 62.9381 22.6353 62.9381 22.1021C62.9381 21.7685 62.401 21.1754 59.4988 18.3032C57.6072 16.4313 55.8907 14.8119 55.6844 14.7045C55.1663 14.4351 54.4714 14.4611 53.9752 14.7686ZM18.6432 21.59L22.0831 24.9758L20.3379 26.6983C18.8269 28.1897 18.5909 28.4822 18.5795 28.8781C18.5646 29.393 19.1077 29.9739 19.6039 29.9739C19.7654 29.9739 20.3033 29.5787 20.8522 29.0567L21.8169 28.1396L24.5827 30.861L27.3486 33.5824L26.5433 34.4302C25.3844 35.6504 25.071 36.3486 25.0736 37.7062C25.0752 38.5288 25.149 38.9583 25.3706 39.4336C25.7933 40.3404 26.5744 41.13 27.4803 41.5665C28.131 41.88 28.4452 41.9442 29.309 41.9401C30.9 41.9326 31.3719 41.6616 33.6737 39.4339C34.7511 38.3912 35.8326 37.4374 36.0772 37.3143C36.628 37.037 37.7263 37.0255 38.2444 37.2917C38.8507 37.6032 52.2066 50.6393 52.4616 51.1685C52.749 51.7648 52.6576 52.8503 52.2778 53.352C51.5237 54.3486 50.1639 54.5463 49.1074 53.8129C48.3711 53.3018 47.8653 53.26 47.4182 53.6736C46.9881 54.0716 47.0166 54.5525 47.5127 55.2736C48.0652 56.0764 48.1608 56.6592 47.8651 57.4215C47.5495 58.2354 46.8745 58.7352 45.9762 58.8202C45.3632 58.8782 45.1913 58.8291 44.4673 58.389C43.5196 57.8128 43.3714 57.793 42.8772 58.176C42.3798 58.5613 42.3979 59.1575 42.9304 59.9314C43.2564 60.4054 43.3446 60.6825 43.3442 61.2316C43.3428 63.1492 41.2583 64.0771 39.6559 62.8734C39.0651 62.4296 38.4448 62.4423 38.0744 62.906C37.6802 63.3995 37.7127 63.785 38.1996 64.3885C38.9837 65.3599 38.9321 66.4806 38.0643 67.3353C37.468 67.9225 36.852 68.1084 36.0146 67.9538C35.5939 67.876 35.1791 67.5517 33.8595 66.2681L32.2253 64.6787L32.8376 64.0568C33.7735 63.1062 34.0956 62.3866 34.096 61.2453C34.0967 59.6851 33.2894 58.3894 31.9558 57.8099C31.5451 57.6315 31.4102 57.5035 31.4719 57.3511C31.5189 57.2347 31.623 56.7991 31.703 56.3829C31.9944 54.8697 31.1713 53.2776 29.6943 52.4969C28.9077 52.0812 28.8991 52.07 28.9995 51.597C29.151 50.8845 29.0724 49.8097 28.8261 49.2295C28.5333 48.5391 27.7167 47.6723 27.0264 47.3192C26.6722 47.1378 26.0772 47.0011 25.433 46.9527L24.4047 46.8755L24.2217 46.2554C23.9784 45.4307 23.2202 44.5852 22.3342 44.1504C21.4982 43.7401 20.0373 43.6627 19.2496 43.9869L18.7864 44.1774L15.4704 40.9094L12.1543 37.6416L14.6874 35.1336C16.3844 33.4534 17.2203 32.5294 17.2203 32.3338C17.2203 31.8336 16.636 31.2977 16.1067 31.3125C15.6915 31.3241 15.2945 31.6672 12.4011 34.5149L9.16068 37.7042L5.68641 34.2846L2.21214 30.865L8.63875 24.5347C12.1733 21.053 15.0963 18.2044 15.1344 18.2044C15.1724 18.2044 16.7514 19.728 18.6432 21.59ZM57.3797 35.7902C57.3797 35.8665 55.4412 37.837 53.0721 40.1695L48.7645 44.4102L45.5683 41.2646C43.8103 39.5345 42.372 38.0835 42.372 38.0403C42.372 37.9969 43.2979 37.7042 44.4296 37.3895C47.7291 36.4723 47.932 36.4046 48.216 36.1248C48.7782 35.5711 48.302 34.4901 47.496 34.4901C47.2681 34.4901 45.7753 34.8596 44.1785 35.3112C42.5817 35.7629 41.1295 36.1324 40.9512 36.1324C40.773 36.1324 40.1599 35.9081 39.589 35.6339C38.7307 35.2219 38.3578 35.1247 37.439 35.0733C35.5764 34.969 35.0983 35.2213 32.5858 37.6353C30.3861 39.7489 29.8722 40.0737 28.9881 39.909C27.9404 39.714 27.0865 38.7467 27.0865 37.7549C27.0865 36.893 27.6001 36.2196 30.1366 33.7555C33.1294 30.8481 33.7338 30.4846 35.702 30.4086C36.686 30.3704 37.0688 30.4229 37.9948 30.723C40.1788 31.4309 42.2388 31.3327 44.1603 30.4294C44.9848 30.0418 45.4991 29.6453 46.8005 28.3939L48.4168 26.8399L52.8982 31.2458C55.3631 33.6691 57.3797 35.7141 57.3797 35.7902ZM21.6248 46.1168C21.9255 46.2973 22.1233 46.5622 22.2373 46.9373C22.5618 48.0041 22.4258 48.1912 18.5796 51.9629C15.5578 54.9263 14.9932 55.4213 14.543 55.5025C13.4862 55.6935 12.4957 54.906 12.4957 53.8751C12.4957 53.5588 12.598 53.1478 12.7231 52.9618C13.0556 52.467 18.8627 46.7113 19.4993 46.2455C20.1542 45.7664 20.96 45.7176 21.6248 46.1168ZM26.3718 49.3434C26.6018 49.534 26.8615 49.9035 26.949 50.1645C27.2612 51.0961 27.0424 51.3959 23.4203 55.0002C19.3197 59.0805 18.9371 59.3977 18.1159 59.3977C17.0061 59.3977 16.1793 58.3282 16.4502 57.2432C16.5503 56.8426 23.6047 49.7344 24.3768 49.2561C24.9878 48.8775 25.8554 48.9154 26.3718 49.3434ZM28.7491 54.3125C29.3949 54.6535 29.7862 55.4124 29.6615 56.0816C29.5802 56.5173 29.0843 57.0691 26.2779 59.8452C23.8967 62.2006 22.8638 63.1323 22.534 63.2221C21.2746 63.5645 20.008 62.327 20.4052 61.1419C20.5049 60.8443 21.6261 59.6468 23.7858 57.5314C25.5629 55.7906 27.1421 54.2993 27.2949 54.2175C27.7079 53.9965 28.2134 54.0294 28.7491 54.3125ZM31.4491 59.9509C31.7138 60.1798 31.9712 60.5493 32.0208 60.772C32.2101 61.6204 31.9852 61.9889 30.1604 63.8213C29.1957 64.7898 28.2378 65.6687 28.0314 65.7745C26.7609 66.4255 25.2421 65.3241 25.5051 63.9428C25.5811 63.5443 25.9244 63.1114 27.1429 61.8781C29.1214 59.8755 29.5905 59.5346 30.368 59.5346C30.838 59.5346 31.0718 59.6246 31.4491 59.9509Z" fill="#333333"/>
</svg>
