<svg width="87" height="65" viewBox="0 0 87 65" fill="none" xmlns="http://www.w3.org/2000/svg">
<path fill-rule="evenodd" clip-rule="evenodd" d="M3.43704 0.282472C1.72918 0.878604 0.51774 2.23542 0.147982 3.966C0.0155496 4.58608 -0.0237212 11.5667 0.0131695 27.8492L0.0655306 50.8563L0.53984 51.8282C1.07722 52.9293 1.90089 53.7328 3.03192 54.2593C3.71313 54.5764 4.18285 54.6262 6.96036 54.6751L10.1153 54.7309L10.306 56.0477C10.5524 57.7485 11.0537 59.0761 11.9671 60.4466L12.7005 61.5473H7.02853C2.99316 61.5473 1.22801 61.6063 0.910788 61.7517C-0.257816 62.2875 -0.292157 64.1277 0.855197 64.7247C1.56071 65.0918 85.4421 65.0918 86.1477 64.7247C86.9564 64.3039 87.2313 63.3054 86.7801 62.4274C86.3977 61.6835 85.8687 61.5473 83.3596 61.5473H81.0727L81.6653 60.7174C82.7758 59.1621 83.6 56.7772 83.625 55.0472C83.6328 54.5092 83.7231 54.3963 84.5146 53.9353C84.9993 53.6531 85.6463 53.0899 85.9525 52.6839C86.9734 51.3301 87.0412 50.7879 86.9864 44.4179L86.9373 38.7113L82.0922 28.9929C76.9233 18.6248 76.7543 18.347 75.1289 17.541C74.3688 17.164 74.2396 17.1575 66.5869 17.1089L58.8167 17.0597L58.7667 10.4377C58.7191 4.12269 58.7001 3.77972 58.3587 3.03733C57.8354 1.8993 57.0369 1.07053 55.9426 0.52982L54.9767 0.0525725L29.6461 0.014256C5.67633 -0.0220079 4.26836 -0.00763902 3.43704 0.282472ZM54.527 3.63193C54.7847 3.76603 55.0868 4.07753 55.1985 4.32419C55.3529 4.66493 55.4017 10.3625 55.4017 28.0283V51.2839L42.6939 51.2744L29.9861 51.2646L29.4056 50.0342C28.601 48.3284 26.7233 46.4418 24.971 45.5785C21.9674 44.0987 18.7945 44.0987 15.7909 45.5785C14.0386 46.4418 12.1609 48.3284 11.3563 50.0342L10.7758 51.2646L7.76618 51.2744C5.77544 51.2807 4.60564 51.2148 4.31086 51.0795C3.67776 50.7894 3.3806 50.0924 3.3806 48.8977V47.8628H6.09266C9.05039 47.8628 9.54425 47.7497 9.93848 46.9827C10.2894 46.3 10.2894 39.1622 9.93848 38.4795C9.54425 37.7125 9.05039 37.5994 6.09266 37.5994H3.3806L3.38655 21.1353C3.39301 3.46788 3.36088 4.12234 4.24932 3.62697C4.8785 3.27596 53.8524 3.28092 54.527 3.63193ZM17.8496 10.4692C16.3758 11.2911 16.9924 13.6515 18.6809 13.6515C19.5423 13.6515 20.3809 12.8159 20.3809 11.9576C20.3809 10.6733 18.9704 9.84401 17.8496 10.4692ZM24.6497 10.4692C23.5104 11.1045 23.5478 12.9138 24.7113 13.4471C25.3507 13.7403 47.0319 13.7403 47.6713 13.4471C48.1585 13.2237 48.6015 12.5065 48.6015 11.941C48.6015 11.3755 48.1585 10.6582 47.6713 10.4348C46.9902 10.1225 25.213 10.155 24.6497 10.4692ZM31.4499 17.3115C30.3105 17.9468 30.3479 19.756 31.5114 20.2894C32.1462 20.5804 47.0365 20.5804 47.6713 20.2894C48.1585 20.066 48.6015 19.3487 48.6015 18.7832C48.6015 18.2177 48.1585 17.5005 47.6713 17.2771C46.9957 16.9673 32.01 16.9989 31.4499 17.3115ZM74.0012 20.854C74.2515 21.0521 74.76 21.8219 75.1311 22.5646L75.8058 23.9149H69.6918C63.1156 23.9149 62.8818 23.9433 62.4441 24.795C62.119 25.4274 62.0833 39.3743 62.405 40.0845C62.8342 41.0325 62.6909 41.0206 73.5835 41.0206H83.6222V45.5346C83.6222 49.851 83.6069 50.0664 83.2714 50.4524C83.0782 50.6746 82.8858 50.7754 82.8433 50.6763C82.4307 49.7123 81.2883 48.1387 80.3636 47.261C77.2354 44.2912 72.7682 43.6394 68.8319 45.5785C67.0797 46.4418 65.202 48.3284 64.3974 50.0342L63.8168 51.2646L61.3093 51.2744L58.8017 51.2839V35.8889V20.4938H66.1739C73.412 20.4938 73.5545 20.5003 74.0012 20.854ZM80.0522 32.4677L82.6032 37.5994H74.1026H65.6019V32.4677V27.3361H71.5515H77.5011L80.0522 32.4677ZM6.78067 42.7311V44.4417H5.08063H3.3806V42.7311V41.0206H5.08063H6.78067V42.7311ZM23.1739 48.5162C24.7079 49.2386 25.7004 50.2208 26.4611 51.7697C27.0611 52.9911 27.0961 53.1527 27.0961 54.7051C27.0961 56.2574 27.0611 56.419 26.4611 57.6404C25.6964 59.1973 24.7121 60.1671 23.1316 60.9204C22.1046 61.41 21.8414 61.4618 20.3809 61.4618C18.9204 61.4618 18.6573 61.41 17.6303 60.9204C16.0498 60.1671 15.0654 59.1973 14.3008 57.6404C13.7015 56.4204 13.6658 56.256 13.6658 54.714C13.6658 53.2343 13.7166 52.9721 14.2039 51.9374C14.8869 50.4865 15.8595 49.4244 17.1281 48.7441C18.4672 48.026 19.1999 47.8635 20.7633 47.9384C21.7836 47.9873 22.3271 48.1175 23.1739 48.5162ZM76.215 48.5162C77.749 49.2386 78.7414 50.2208 79.5022 51.7697C80.1022 52.9911 80.1372 53.1527 80.1372 54.7051C80.1372 56.2574 80.1022 56.419 79.5022 57.6404C78.7375 59.1973 77.7532 60.1671 76.1727 60.9204C75.1457 61.41 74.8825 61.4618 73.422 61.4618C71.9615 61.4618 71.6984 61.41 70.6714 60.9204C69.0909 60.1671 68.1065 59.1973 67.3419 57.6404C66.7426 56.4204 66.7069 56.256 66.7069 54.714C66.7069 53.2343 66.7577 52.9721 67.245 51.9374C67.928 50.4865 68.9006 49.4244 70.1692 48.7441C71.5083 48.026 72.241 47.8635 73.8044 47.9384C74.8247 47.9873 75.3682 48.1175 76.215 48.5162ZM19.2268 51.4671C18.4167 51.7165 17.3763 52.8364 17.1424 53.7107C16.7354 55.2314 17.3401 56.8298 18.627 57.6347C19.5913 58.2379 21.2515 58.2133 22.2 57.5817C23.2611 56.8751 23.696 56.039 23.696 54.7051C23.696 53.3883 23.262 52.5356 22.2484 51.8607C21.5193 51.3751 20.1181 51.1926 19.2268 51.4671ZM72.2679 51.4671C71.4578 51.7165 70.4174 52.8364 70.1835 53.7107C69.7765 55.2314 70.3812 56.8298 71.6681 57.6347C72.1817 57.956 72.5533 58.0407 73.4499 58.0407C74.4349 58.0407 74.677 57.9736 75.3048 57.5275C76.2885 56.8284 76.7378 55.9143 76.7346 54.6192C76.7313 53.3924 76.2715 52.5145 75.2895 51.8607C74.5604 51.3751 73.1592 51.1926 72.2679 51.4671ZM63.3453 56.0349C63.5935 57.7481 64.0929 59.0733 65.0082 60.4466L65.7416 61.5473H46.9015H28.0614L28.7948 60.4466C29.7101 59.0733 30.2095 57.7481 30.4577 56.0349L30.6503 54.7051H46.9015H63.1526L63.3453 56.0349Z" fill="#333333"/>
</svg>
