<svg width="24" height="15" viewBox="0 0 24 15" fill="none" xmlns="http://www.w3.org/2000/svg">
<path fill-rule="evenodd" clip-rule="evenodd" d="M12.8895 0.00854713C15.6546 0.330407 18.2219 1.58725 20.9463 3.95292C21.8971 4.77853 23.4653 6.44639 23.8726 7.06524C24.0425 7.32331 24.0425 7.68403 23.8726 7.94211C23.6537 8.27473 22.7426 9.31285 22.0971 9.96516C19.7805 12.3062 17.1995 13.9496 14.7677 14.6321C13.7097 14.9291 13.1752 15 11.997 15C10.8189 15 10.2844 14.9291 9.22642 14.6321C6.37523 13.832 3.24297 11.6466 0.742659 8.71298C0.0582905 7.90999 0 7.81506 0 7.50367C0 7.19229 0.0582905 7.09736 0.742659 6.29437C3.22615 3.38051 6.35019 1.19293 9.17879 0.387081C10.128 0.116634 10.7552 0.0250694 11.7857 0.00642427C12.3024 -0.00289831 12.7991 -0.00197539 12.8895 0.00854713ZM10.8463 1.6202C8.63261 1.94783 6.22281 3.22751 3.90728 5.30497C3.20145 5.93822 1.80434 7.40108 1.80434 7.50691C1.80434 7.5244 1.9663 7.72068 2.16423 7.94313C4.89762 11.0152 8.01142 12.9676 10.8463 13.3871C11.4483 13.4763 12.5458 13.4763 13.1478 13.3871C15.1889 13.085 17.3719 11.9913 19.5359 10.1864C20.3187 9.53346 22.1898 7.64208 22.1898 7.50367C22.1898 7.48443 22.0278 7.28667 21.8299 7.06422C19.1145 4.0125 16.0022 2.05264 13.1887 1.62274C12.6184 1.5356 11.4266 1.53431 10.8463 1.6202ZM12.6546 2.87012C14.6886 3.23596 16.1348 4.53605 16.6281 6.44219C16.7549 6.93255 16.7549 8.0748 16.6281 8.56516C16.1745 10.3179 14.8612 11.6082 13.0774 12.0539C12.5783 12.1785 11.4158 12.1785 10.9167 12.0539C9.13285 11.6082 7.81964 10.3179 7.36604 8.56516C7.29694 8.29808 7.27646 8.05564 7.27646 7.50367C7.27646 6.9517 7.29694 6.70927 7.36604 6.44219C7.81367 4.71239 9.08564 3.44364 10.8463 2.97068C11.167 2.88456 12.3645 2.81797 12.6546 2.87012ZM11.2468 4.48685C10.3656 4.67981 9.56569 5.31328 9.15488 6.1435C8.91152 6.63529 8.83712 7.01484 8.86112 7.64213C8.88386 8.23582 8.99978 8.64094 9.28114 9.10979C9.48133 9.44337 10.0229 9.9755 10.3624 10.1722C11.3518 10.7454 12.6423 10.7454 13.6317 10.1722C13.9712 9.9755 14.5128 9.44337 14.713 9.10979C15.2963 8.1377 15.2963 6.86965 14.713 5.89756C14.5128 5.56398 13.9712 5.03185 13.6317 4.83515C12.9213 4.42362 12.0901 4.30224 11.2468 4.48685Z" fill="#848383"/>
</svg>
