<svg width="10" height="7" viewBox="0 0 10 7" fill="none" xmlns="http://www.w3.org/2000/svg">
<path fill-rule="evenodd" clip-rule="evenodd" d="M8.95508 0.00886565C8.93359 0.0175617 7.73395 1.15477 6.28918 2.53601L3.66232 5.04733L2.36305 3.80646C1.13734 2.63583 1.05988 2.56557 0.995215 2.56557C0.931719 2.56557 0.892402 2.59839 0.46332 3.00966C0.069082 3.38753 0 3.46193 0 3.50861C0 3.55643 0.226582 3.78014 1.77246 5.25842C2.7473 6.19065 3.57 6.9661 3.60064 6.98162C3.64447 7.00383 3.66756 7.00542 3.70891 6.98905C3.73779 6.97761 5.16512 5.62694 6.88072 3.98756C9.61398 1.37572 10 1.00007 10 0.951923C10 0.905065 9.93174 0.831876 9.53613 0.454642C9.28102 0.211357 9.05469 0.00797003 9.0332 0.00268894C9.01172 -0.00261081 8.97656 0.000169575 8.95508 0.00886565Z" fill="#35D261"/>
</svg>
