<svg width="33" height="33" viewBox="0 0 33 33" fill="none" xmlns="http://www.w3.org/2000/svg">
<path fill-rule="evenodd" clip-rule="evenodd" d="M20.1874 0.773354C20.6589 0.98139 21.0485 1.29878 21.3807 1.74554C21.8742 2.40935 22.042 3.14456 21.9041 4.03934L21.8215 4.57579L22.3307 4.86216C22.6107 5.01963 23.0323 5.27421 23.2674 5.42781L23.6949 5.70708L24.0901 5.42409C25.0807 4.71458 26.1486 4.56943 27.161 5.00661C27.7661 5.2679 28.0864 5.58189 28.9511 6.76164C29.8159 7.94135 30.019 8.34129 30.0861 8.99693C30.1982 10.0929 29.7384 11.0686 28.7658 11.798L28.3791 12.0881L28.5543 12.7456C28.6506 13.1072 28.7655 13.5865 28.8096 13.8107L28.8899 14.2183L29.4264 14.3009C30.321 14.4387 30.9671 14.8174 31.4638 15.495C32.0721 16.3248 32.1364 16.8428 31.8566 18.6591C31.5762 20.4792 31.3686 20.9303 30.5211 21.5603C29.8573 22.0538 29.1221 22.2216 28.2273 22.0837L27.6908 22.0011L27.4044 22.5102C27.2469 22.7903 26.9924 23.2118 26.8388 23.4469L26.5595 23.8744L26.8425 24.2696C26.9981 24.4868 27.1911 24.8171 27.2711 25.0033C27.6904 25.9783 27.5297 27.1567 26.8618 28.0036C26.5296 28.4249 24.5237 29.8951 24.022 30.0851C23.0681 30.4463 21.9723 30.288 21.1553 29.671C20.9981 29.5524 20.7114 29.253 20.5182 29.0059L20.1668 28.5565L19.5154 28.73C19.1571 28.8254 18.6804 28.9404 18.4561 28.9856L18.0482 29.0676L17.9655 29.6047C17.8275 30.5003 17.4464 31.1507 16.7758 31.6353C15.92 32.2538 15.4272 32.316 13.607 32.0355C11.7907 31.7557 11.3161 31.5385 10.7078 30.7087C10.2109 30.0308 10.0444 29.301 10.1823 28.4056L10.2651 27.8685L9.90079 27.6675C9.70041 27.557 9.28049 27.3038 8.96749 27.105L8.39853 26.7435L7.92822 27.0662C7.66954 27.2438 7.30604 27.4429 7.12041 27.5088C6.17731 27.8436 5.09481 27.6769 4.28994 27.073C3.90987 26.7879 2.38182 24.7067 2.18437 24.2052C1.81611 23.27 1.9755 22.1541 2.59444 21.3346C2.71314 21.1774 3.01247 20.8907 3.25965 20.6975L3.70901 20.3461L3.53548 19.6948C3.44005 19.3364 3.32503 18.8598 3.27992 18.6355L3.19788 18.2276L2.66503 18.1448C1.75014 18.0026 1.12129 17.6349 0.630054 16.9552C0.011528 16.0994 -0.0506758 15.6067 0.229738 13.7866C0.510152 11.9664 0.717763 11.5153 1.56519 10.8853C2.23822 10.385 2.94857 10.2237 3.86384 10.3634L4.39692 10.4448L4.59791 10.0806C4.70845 9.88024 4.9616 9.46029 5.16045 9.14731L5.52198 8.57838L5.1992 8.10807C5.02164 7.84941 4.82248 7.48592 4.7566 7.3003C4.41425 6.33596 4.59275 5.24428 5.22403 4.44196C5.55171 4.02545 7.63511 2.50188 8.10065 2.33824C9.10611 1.98487 10.2623 2.19468 11.0489 2.87326C11.2024 3.00568 11.4592 3.28902 11.6196 3.50286L11.9113 3.89167L12.403 3.754C12.6735 3.67831 13.152 3.5624 13.4665 3.49652L14.0383 3.3767L14.121 2.84024C14.2588 1.94552 14.6374 1.29961 15.3151 0.802849C15.7631 0.474498 16.22 0.299478 16.7783 0.242396C17.2882 0.190244 19.7266 0.570014 20.1874 0.773354ZM16.71 2.1671C16.5184 2.22598 16.358 2.33481 16.2287 2.49373C16.0468 2.7172 16.0264 2.78663 15.9002 3.60562C15.7503 4.57835 15.6248 4.88176 15.3094 5.033C15.2104 5.08053 14.7499 5.18196 14.2859 5.25845C13.822 5.33488 13.0236 5.53014 12.5117 5.69238C11.9998 5.85456 11.5175 5.97743 11.44 5.96542C11.1444 5.91951 10.8619 5.66352 10.3507 4.9784C9.80608 4.24862 9.64409 4.10769 9.28625 4.05256C8.91284 3.99504 8.72372 4.08687 7.72425 4.81096C6.71586 5.54159 6.52914 5.73521 6.47132 6.11052C6.41519 6.47483 6.49882 6.66837 7.03297 7.4102C7.53519 8.10765 7.69176 8.45041 7.64543 8.75116C7.63305 8.83153 7.36908 9.2581 7.05881 9.6991C6.74861 10.1401 6.32252 10.8404 6.11195 11.2552C5.90139 11.6701 5.66768 12.0751 5.59254 12.1552C5.3534 12.4104 5.02626 12.4388 4.05349 12.2889C3.23446 12.1627 3.16208 12.1614 2.89423 12.2675C2.38933 12.4675 2.29918 12.6681 2.08287 14.0721C1.86657 15.4761 1.89218 15.6944 2.31348 16.0371C2.53696 16.219 2.6064 16.2395 3.42542 16.3656C4.39819 16.5155 4.70162 16.6411 4.85287 16.9564C4.90041 17.0554 5.00138 17.5119 5.07731 17.971C5.15324 18.43 5.34881 19.226 5.5119 19.7399C5.67505 20.2539 5.79838 20.7401 5.786 20.8205C5.73967 21.1212 5.48719 21.401 4.79834 21.9149C4.06854 22.4595 3.9276 22.6215 3.87247 22.9793C3.81543 23.3496 3.90699 23.5376 4.62846 24.5314C5.367 25.5486 5.56098 25.7372 5.92642 25.7935C6.29525 25.8503 6.48658 25.768 7.23029 25.2325C7.93139 24.7277 8.27035 24.5737 8.57667 24.6209C8.66 24.6338 9.08293 24.8961 9.51649 25.2039C9.95005 25.5117 10.6479 25.9374 11.0673 26.15C11.4867 26.3625 11.8954 26.5978 11.9755 26.673C12.2307 26.9121 12.2591 27.2392 12.1093 28.2119C11.9831 29.0309 11.9817 29.1033 12.0879 29.3711C12.2879 29.876 12.4885 29.9662 13.8925 30.1825C15.2966 30.3988 15.515 30.3732 15.8577 29.9519C16.0395 29.7285 16.06 29.659 16.1862 28.84C16.336 27.8673 16.4616 27.5638 16.7769 27.4128C16.8759 27.3653 17.3366 27.2627 17.8008 27.1848C18.2649 27.1069 19.061 26.9113 19.5698 26.7501C20.0787 26.5889 20.5608 26.4672 20.6411 26.4796C20.9419 26.526 21.2217 26.7784 21.7357 27.4673C22.2823 28.1999 22.4418 28.3379 22.8061 28.394C23.1814 28.4518 23.4223 28.3321 24.4225 27.5904C25.4139 26.8552 25.5584 26.7025 25.6159 26.3291C25.6711 25.9713 25.5854 25.7744 25.0534 25.0355C24.5512 24.338 24.3946 23.9952 24.4409 23.6945C24.4533 23.6141 24.7173 23.1876 25.0275 22.7466C25.3377 22.3055 25.7638 21.6053 25.9744 21.1904C26.185 20.7755 26.4187 20.3705 26.4938 20.2904C26.7329 20.0353 27.0601 20.0069 28.0329 20.1567C28.8519 20.2829 28.9243 20.2843 29.1921 20.1781C29.697 19.9781 29.7872 19.7776 30.0035 18.3736C30.2198 16.9696 30.1942 16.7512 29.7729 16.4085C29.5494 16.2267 29.4799 16.2062 28.6609 16.08C27.6881 15.9301 27.3847 15.8046 27.2335 15.4893C27.1859 15.3903 27.0844 14.9297 27.0078 14.4658C26.9312 14.0019 26.7357 13.2058 26.5732 12.6967C26.4108 12.1877 26.288 11.7054 26.3004 11.6251C26.3467 11.3244 26.5992 11.0446 27.288 10.5307C28.0207 9.98408 28.1587 9.82468 28.2148 9.46037C28.2726 9.08507 28.1528 8.84422 27.4111 7.84397C26.6759 6.85263 26.5232 6.70813 26.1498 6.6506C25.792 6.59547 25.5951 6.68111 24.8561 7.21313C24.1586 7.71532 23.8158 7.87189 23.515 7.82555C23.4347 7.81317 23.0081 7.54921 22.5671 7.23895C22.126 6.92875 21.4257 6.50266 21.0108 6.2921C20.5959 6.08154 20.1909 5.84784 20.1108 5.7727C19.8556 5.53357 19.8272 5.20645 19.9771 4.23372C20.1031 3.4159 20.1045 3.34201 19.9991 3.07599C19.9256 2.89052 19.8016 2.73218 19.6424 2.62033C19.4192 2.46345 19.2961 2.4331 18.1979 2.26385C17.1052 2.09545 16.9716 2.08674 16.71 2.1671ZM18.4705 9.70265C20.9571 10.6557 22.6729 12.8695 22.9684 15.5062C23.0322 16.0748 23.0227 16.2329 22.8624 17.2734C22.7021 18.314 22.6636 18.4675 22.4316 18.9906C21.4165 21.2801 19.2489 22.8689 16.76 23.1478C16.1913 23.2116 16.0332 23.2021 14.9926 23.0418C13.952 22.8814 13.7985 22.8429 13.2753 22.6109C10.984 21.595 9.39711 19.4303 9.11792 16.9395C9.05414 16.3708 9.06363 16.2128 9.22394 15.1722C9.38425 14.1317 9.42276 13.9781 9.65475 13.455C10.6707 11.1636 12.8513 9.56249 15.3083 9.30362C16.1979 9.20993 17.6694 9.39559 18.4705 9.70265ZM15.6384 11.164C13.2691 11.3598 11.4029 13.1003 11.0406 15.4521C10.6087 18.2555 12.4689 20.7933 15.2725 21.2252C16.6536 21.438 17.9137 21.1328 19.0435 20.3121C20.9717 18.9112 21.6564 16.3047 20.667 14.1314C20.123 12.9365 19.0814 11.9443 17.8851 11.4817C17.3188 11.2626 16.2588 11.1128 15.6384 11.164Z" fill="#F5C331"/>
</svg>
