<svg width="27" height="27" viewBox="0 0 27 27" fill="none" xmlns="http://www.w3.org/2000/svg">
<path fill-rule="evenodd" clip-rule="evenodd" d="M8.00279 0.0485055C6.69083 0.273869 5.56367 1.28454 5.13976 2.61563L5.04985 2.89807H2.83882C0.726943 2.89807 0.618461 2.90292 0.419693 3.00637C0.181688 3.13027 -0.00131136 3.43988 7.07911e-06 3.71636C0.00122004 3.96227 0.201148 4.29335 0.420221 4.4123C0.590827 4.50489 0.763543 4.51204 2.8269 4.51204H5.04985L5.13976 4.79449C5.51916 5.98581 6.41987 6.8927 7.59338 7.26483C8.10578 7.42735 9.07784 7.43817 9.57104 7.28683C10.5096 6.99884 11.4298 6.24012 11.8274 5.42662C12.4191 4.21566 12.3563 2.78956 11.6634 1.70745C10.8749 0.476099 9.40134 -0.191761 8.00279 0.0485055ZM8.97057 1.66145C9.61793 1.78578 10.1763 2.22828 10.463 2.84427C10.6094 3.15878 10.6258 3.2454 10.6258 3.70506C10.6258 4.16439 10.6093 4.25155 10.4633 4.566C9.84428 5.89839 8.18199 6.19358 7.1613 5.15241C7.01828 5.00651 6.8375 4.74822 6.7595 4.57854C6.63382 4.30502 6.61774 4.20576 6.61774 3.70506C6.61774 3.20435 6.63382 3.10509 6.7595 2.83158C7.02245 2.25932 7.61785 1.78847 8.23552 1.66446C8.55658 1.60001 8.64866 1.59964 8.97057 1.66145ZM13.9755 2.99766C13.6826 3.15792 13.5791 3.34261 13.5791 3.70506C13.5791 4.07003 13.6899 4.26774 13.9784 4.41779C14.1475 4.50575 14.5569 4.51188 20.2776 4.51193C26.1344 4.51204 26.4038 4.50779 26.5798 4.4123C26.7989 4.29335 26.9988 3.96227 27 3.71636C27.0013 3.43988 26.8183 3.13027 26.5803 3.00637C26.3753 2.89969 26.2817 2.89807 20.2649 2.89807C14.4216 2.89807 14.1497 2.90238 13.9755 2.99766ZM18.6236 9.84104C18.242 9.91077 17.6133 10.1734 17.2672 10.4078C16.862 10.6821 16.2922 11.3269 16.0648 11.7683C15.5222 12.8217 15.5233 14.1668 16.0678 15.2342C16.354 15.7952 17.081 16.5263 17.6135 16.7883C18.2622 17.1076 18.5621 17.1781 19.2748 17.179C19.9844 17.1799 20.3797 17.0838 20.9752 16.7658C21.7864 16.3325 22.4604 15.5116 22.7318 14.6262L22.8226 14.3303L24.6612 14.3034C26.7243 14.2733 26.6921 14.2796 26.8984 13.867C27.0283 13.6073 27.0283 13.3856 26.8984 13.126C26.6921 12.7134 26.7243 12.7197 24.6612 12.6895L22.8226 12.6626L22.7318 12.3667C22.3837 11.2311 21.4662 10.3152 20.3032 9.94192C19.9048 9.81409 19.0517 9.76282 18.6236 9.84104ZM20.0152 11.5651C20.5686 11.7764 21.0543 12.3072 21.2278 12.8904C21.5342 13.9205 20.9886 15.0482 19.9948 15.439C19.5846 15.6003 18.9658 15.6007 18.5569 15.4399C17.7659 15.1288 17.2444 14.3564 17.2444 13.4965C17.2444 12.0348 18.6602 11.048 20.0152 11.5651ZM0.420221 12.7892C0.196929 12.9104 0.000903619 13.2411 0.000903619 13.4965C0.000903619 13.7518 0.196929 14.0825 0.420221 14.2037C0.596364 14.2993 0.877245 14.3034 7.16267 14.3034C14.4211 14.3034 13.9438 14.3267 14.1998 13.9606C14.3639 13.7258 14.3639 13.2671 14.1998 13.0323C13.9438 12.6662 14.4211 12.6895 7.16267 12.6895C0.877245 12.6895 0.596364 12.6936 0.420221 12.7892ZM6.9869 19.6512C5.69261 19.9537 4.64904 20.9159 4.26817 22.1581L4.17741 22.454L2.33882 22.4809C0.275667 22.5111 0.307942 22.5048 0.10158 22.9174C-0.0291568 23.1789 -0.0281548 23.399 0.105166 23.6655C0.302616 24.0603 0.324976 24.0646 2.36513 24.0949L4.17741 24.1218L4.26759 24.4192C4.55838 25.3784 5.38167 26.2979 6.30442 26.6941C6.69468 26.8617 7.33713 27 7.72523 27C7.88719 27 8.20261 26.9615 8.42611 26.9144C9.2311 26.7447 9.8274 26.3988 10.3933 25.7731C11.0307 25.0683 11.3378 24.2602 11.3378 23.2879C11.3378 22.2383 11.0196 21.4572 10.284 20.701C9.78474 20.1878 9.45829 19.9764 8.83272 19.7615C8.31658 19.5841 7.48601 19.5345 6.9869 19.6512ZM8.46561 21.3565C9.23252 21.6492 9.75563 22.4324 9.75563 23.2879C9.75563 24.4475 8.86832 25.3477 7.72523 25.3477C6.58372 25.3477 5.69351 24.4461 5.69541 23.2917C5.69778 21.8165 7.10155 20.8359 8.46561 21.3565ZM13.0896 22.5704C12.5342 22.8496 12.5265 23.7002 13.0767 23.9866C13.282 24.0934 13.3743 24.0949 19.8285 24.0949C26.2827 24.0949 26.3751 24.0934 26.5803 23.9866C26.8183 23.8627 27.0013 23.553 27 23.2766C26.9988 23.0307 26.7989 22.6996 26.5798 22.5806C26.4036 22.485 26.1238 22.4809 19.8294 22.4821C13.8883 22.4832 13.2462 22.4916 13.0896 22.5704Z" fill="#333333"/>
</svg>
