<svg width="172" height="47" viewBox="0 0 172 47" fill="none" xmlns="http://www.w3.org/2000/svg">
<path d="M22.92 31.52H8.92L6.16 38H0.8L13.4 10H18.52L31.16 38H25.72L22.92 31.52ZM21.2 27.44L15.92 15.2L10.68 27.44H21.2ZM54.5303 16.64V38H49.7703V35.28C48.9703 36.24 47.9703 36.9867 46.7703 37.52C45.5703 38.0267 44.277 38.28 42.8903 38.28C40.037 38.28 37.7836 37.4933 36.1303 35.92C34.5036 34.32 33.6903 31.96 33.6903 28.84V16.64H38.6903V28.16C38.6903 30.08 39.117 31.52 39.9703 32.48C40.8503 33.4133 42.0903 33.88 43.6903 33.88C45.477 33.88 46.8903 33.3333 47.9303 32.24C48.997 31.12 49.5303 29.52 49.5303 27.44V16.64H54.5303ZM73.9169 36.84C73.3302 37.32 72.6102 37.68 71.7569 37.92C70.9302 38.16 70.0502 38.28 69.1169 38.28C66.7702 38.28 64.9569 37.6667 63.6769 36.44C62.3969 35.2133 61.7569 33.4267 61.7569 31.08V20.8H58.2369V16.8H61.7569V11.92H66.7569V16.8H72.4769V20.8H66.7569V30.96C66.7569 32 67.0102 32.8 67.5169 33.36C68.0235 33.8933 68.7569 34.16 69.7169 34.16C70.8369 34.16 71.7702 33.8667 72.5169 33.28L73.9169 36.84ZM86.9269 38.28C84.7669 38.28 82.8202 37.8133 81.0869 36.88C79.3535 35.9467 77.9935 34.6533 77.0069 33C76.0469 31.32 75.5669 29.4267 75.5669 27.32C75.5669 25.2133 76.0469 23.3333 77.0069 21.68C77.9935 20.0267 79.3535 18.7333 81.0869 17.8C82.8202 16.8667 84.7669 16.4 86.9269 16.4C89.1135 16.4 91.0735 16.8667 92.8069 17.8C94.5402 18.7333 95.8869 20.0267 96.8469 21.68C97.8335 23.3333 98.3269 25.2133 98.3269 27.32C98.3269 29.4267 97.8335 31.32 96.8469 33C95.8869 34.6533 94.5402 35.9467 92.8069 36.88C91.0735 37.8133 89.1135 38.28 86.9269 38.28ZM86.9269 34C88.7669 34 90.2869 33.3867 91.4869 32.16C92.6869 30.9333 93.2869 29.32 93.2869 27.32C93.2869 25.32 92.6869 23.7067 91.4869 22.48C90.2869 21.2533 88.7669 20.64 86.9269 20.64C85.0869 20.64 83.5669 21.2533 82.3669 22.48C81.1935 23.7067 80.6069 25.32 80.6069 27.32C80.6069 29.32 81.1935 30.9333 82.3669 32.16C83.5669 33.3867 85.0869 34 86.9269 34ZM147.327 16.64H152.327V38H147.327V16.64ZM149.847 13.12C148.94 13.12 148.18 12.84 147.567 12.28C146.954 11.6933 146.647 10.9733 146.647 10.12C146.647 9.26667 146.954 8.56 147.567 8C148.18 7.41333 148.94 7.12 149.847 7.12C150.754 7.12 151.514 7.4 152.127 7.96C152.74 8.49333 153.047 9.17333 153.047 10C153.047 10.88 152.74 11.6267 152.127 12.24C151.54 12.8267 150.78 13.12 149.847 13.12ZM158.889 8.32H163.889V38H158.889V8.32Z" fill="#F5C331"/>
<path fill-rule="evenodd" clip-rule="evenodd" d="M127.731 0.156966C127.422 0.320637 127.239 0.552356 126.207 2.09673C125.561 3.06142 124.206 5.0811 123.196 6.58501C117.439 15.1493 114.719 20.4266 114.093 24.2413C113.943 25.16 113.979 26.9548 114.169 28.0303C114.993 32.6808 117.952 36.5579 122.223 38.5844C124.823 39.8178 127.749 40.2353 130.622 39.783C135.65 38.9915 140.053 35.3795 141.828 30.5903C142.459 28.8878 142.692 27.5741 142.692 25.7256C142.692 24.6198 142.662 24.2615 142.51 23.5851C141.814 20.4755 139.757 16.2632 136.172 10.6084C135.641 9.77056 133.894 7.12782 132.289 4.73564C130.029 1.36681 129.307 0.346887 129.088 0.211575C128.665 -0.0498313 128.161 -0.0701438 127.731 0.156966ZM130.99 7.85454C133.772 12.0501 134.284 12.8503 135.6 15.0616C137.899 18.9273 139.142 21.6123 139.739 24.0069C139.945 24.8358 139.922 26.7909 139.694 27.8652C138.8 32.0589 135.896 35.3271 131.95 36.5786C129.028 37.5054 125.949 37.2813 123.239 35.9448C119.656 34.1774 117.361 30.9218 116.867 26.9056C116.593 24.6816 117.157 22.5356 118.962 18.9288C119.784 17.287 121.139 14.9137 122.442 12.835C123.282 11.495 128.303 3.96782 128.356 3.96782C128.388 3.96782 129.573 5.71689 130.99 7.85454ZM136.258 24.6764C135.639 24.9245 135.362 25.3719 135.27 26.2725C135.058 28.362 133.868 30.2769 132.059 31.4416C131.368 31.8867 131.091 32.2797 131.091 32.8147C131.091 33.9634 132.216 34.6228 133.247 34.0781C135.006 33.1489 136.76 31.0774 137.497 29.0593C137.976 27.7454 138.197 25.8947 137.934 25.3897C137.621 24.7881 136.825 24.4493 136.258 24.6764Z" fill="#F5C331"/>
</svg>
