<svg width="139" height="190" viewBox="0 0 139 190" fill="none" xmlns="http://www.w3.org/2000/svg">
<path fill-rule="evenodd" clip-rule="evenodd" d="M67.6148 0.603969C65.8775 1.45489 51.7534 15.746 45.6567 22.8222C24.1441 47.7891 10.1052 71.9492 3.7117 95.0067C1.84113 101.752 0.789876 107.785 0.221245 115.033C-2.00681 143.44 12.7327 169.667 38.1369 182.498C69.222 198.199 107.053 188.582 126.915 159.93C137.42 144.777 141.202 125.915 137.767 105.809C133.264 79.4509 117.377 50.0828 92.0426 21.2843C85.8688 14.266 72.9407 1.33061 71.3522 0.581704C69.6957 -0.198778 69.2489 -0.196349 67.6148 0.603969ZM75.0534 15.8392C102.274 43.8701 120.733 73.3098 127.403 99.3321C129.694 108.269 130.406 114.364 130.14 122.772C129.835 132.441 128.287 138.973 124.375 147.1C114.275 168.086 93.0743 181.307 69.5236 181.307C48.7798 181.307 30.174 171.348 18.704 154.105C9.30058 139.969 6.55322 123.41 10.4415 104.311C15.9962 77.0301 35.1054 45.5456 64.3754 15.4501C67.0363 12.714 69.3557 10.4754 69.5289 10.4754C69.7026 10.4754 72.1883 12.8889 75.0534 15.8392ZM19.9224 117.129C17.3266 118.25 16.833 121.029 17.9413 128.276C19.1442 136.143 21.742 142.914 26.1333 149.626C30.6265 156.495 41.94 166.329 45.3493 166.329C48.3017 166.329 50.3158 164.1 49.8054 161.398C49.5013 159.789 48.735 159.009 45.2702 156.783C42.0941 154.743 35.8856 148.614 33.6657 145.328C29.4374 139.069 27.0476 132.228 26.2527 124.109C25.7603 119.078 25.2773 117.956 23.24 117.11C21.5806 116.421 21.5606 116.422 19.9224 117.129Z" fill="url(#paint0_linear_338_1417)"/>
<defs>
<linearGradient id="paint0_linear_338_1417" x1="39.549" y1="36.3652" x2="121.646" y2="172.968" gradientUnits="userSpaceOnUse">
<stop stop-color="#F5C331"/>
<stop offset="1" stop-color="#FAD356"/>
</linearGradient>
</defs>
</svg>
