<svg width="262" height="51" viewBox="0 0 262 51" fill="none" xmlns="http://www.w3.org/2000/svg">
<path d="M36.072 39.632H13.672L9.256 50H0.68L20.84 5.2H29.032L49.256 50H40.552L36.072 39.632ZM33.32 33.104L24.872 13.52L16.488 33.104H33.32ZM86.6485 15.824V50H79.0325V45.648C77.7525 47.184 76.1525 48.3787 74.2325 49.232C72.3125 50.0427 70.2432 50.448 68.0245 50.448C63.4592 50.448 59.8538 49.1893 57.2085 46.672C54.6058 44.112 53.3045 40.336 53.3045 35.344V15.824H61.3045V34.256C61.3045 37.328 61.9872 39.632 63.3525 41.168C64.7605 42.6613 66.7445 43.408 69.3045 43.408C72.1632 43.408 74.4245 42.5333 76.0885 40.784C77.7952 38.992 78.6485 36.432 78.6485 33.104V15.824H86.6485ZM117.667 48.144C116.728 48.912 115.576 49.488 114.211 49.872C112.888 50.256 111.48 50.448 109.987 50.448C106.232 50.448 103.331 49.4667 101.283 47.504C99.235 45.5413 98.211 42.6827 98.211 38.928V22.48H92.579V16.08H98.211V8.272H106.211V16.08H115.363V22.48H106.211V38.736C106.211 40.4 106.616 41.68 107.427 42.576C108.238 43.4293 109.411 43.856 110.947 43.856C112.739 43.856 114.232 43.3867 115.427 42.448L117.667 48.144ZM138.483 50.448C135.027 50.448 131.912 49.7013 129.139 48.208C126.366 46.7147 124.19 44.6453 122.611 42C121.075 39.312 120.307 36.2827 120.307 32.912C120.307 29.5413 121.075 26.5333 122.611 23.888C124.19 21.2427 126.366 19.1733 129.139 17.68C131.912 16.1867 135.027 15.44 138.483 15.44C141.982 15.44 145.118 16.1867 147.891 17.68C150.664 19.1733 152.819 21.2427 154.355 23.888C155.934 26.5333 156.723 29.5413 156.723 32.912C156.723 36.2827 155.934 39.312 154.355 42C152.819 44.6453 150.664 46.7147 147.891 48.208C145.118 49.7013 141.982 50.448 138.483 50.448ZM138.483 43.6C141.427 43.6 143.859 42.6187 145.779 40.656C147.699 38.6933 148.659 36.112 148.659 32.912C148.659 29.712 147.699 27.1307 145.779 25.168C143.859 23.2053 141.427 22.224 138.483 22.224C135.539 22.224 133.107 23.2053 131.187 25.168C129.31 27.1307 128.371 29.712 128.371 32.912C128.371 36.112 129.31 38.6933 131.187 40.656C133.107 42.6187 135.539 43.6 138.483 43.6ZM235.123 15.824H243.123V50H235.123V15.824ZM239.155 10.192C237.704 10.192 236.488 9.744 235.507 8.848C234.526 7.90933 234.035 6.75733 234.035 5.392C234.035 4.02666 234.526 2.896 235.507 2C236.488 1.06133 237.704 0.591999 239.155 0.591999C240.606 0.591999 241.822 1.04 242.803 1.936C243.784 2.78933 244.275 3.87733 244.275 5.2C244.275 6.608 243.784 7.80266 242.803 8.784C241.864 9.72266 240.648 10.192 239.155 10.192ZM253.623 2.512H261.623V50H253.623V2.512Z" fill="#F5C331"/>
</svg>
