<svg width="85" height="35" viewBox="0 0 85 35" fill="none" xmlns="http://www.w3.org/2000/svg">
<path d="M11.96 21.76H4.96L3.58 25H0.9L7.2 11H9.76L16.08 25H13.36L11.96 21.76ZM11.1 19.72L8.46 13.6L5.84 19.72H11.1ZM27.7652 14.32V25H25.3852V23.64C24.9852 24.12 24.4852 24.4933 23.8852 24.76C23.2852 25.0133 22.6385 25.14 21.9452 25.14C20.5185 25.14 19.3918 24.7467 18.5652 23.96C17.7518 23.16 17.3452 21.98 17.3452 20.42V14.32H19.8452V20.08C19.8452 21.04 20.0585 21.76 20.4852 22.24C20.9252 22.7067 21.5452 22.94 22.3452 22.94C23.2385 22.94 23.9452 22.6667 24.4652 22.12C24.9985 21.56 25.2652 20.76 25.2652 19.72V14.32H27.7652ZM37.4584 24.42C37.1651 24.66 36.8051 24.84 36.3784 24.96C35.9651 25.08 35.5251 25.14 35.0584 25.14C33.8851 25.14 32.9784 24.8333 32.3384 24.22C31.6984 23.6067 31.3784 22.7133 31.3784 21.54V16.4H29.6184V14.4H31.3784V11.96H33.8784V14.4H36.7384V16.4H33.8784V21.48C33.8784 22 34.0051 22.4 34.2584 22.68C34.5118 22.9467 34.8784 23.08 35.3584 23.08C35.9184 23.08 36.3851 22.9333 36.7584 22.64L37.4584 24.42ZM43.9634 25.14C42.8834 25.14 41.9101 24.9067 41.0434 24.44C40.1768 23.9733 39.4968 23.3267 39.0034 22.5C38.5234 21.66 38.2834 20.7133 38.2834 19.66C38.2834 18.6067 38.5234 17.6667 39.0034 16.84C39.4968 16.0133 40.1768 15.3667 41.0434 14.9C41.9101 14.4333 42.8834 14.2 43.9634 14.2C45.0568 14.2 46.0368 14.4333 46.9034 14.9C47.7701 15.3667 48.4434 16.0133 48.9234 16.84C49.4168 17.6667 49.6634 18.6067 49.6634 19.66C49.6634 20.7133 49.4168 21.66 48.9234 22.5C48.4434 23.3267 47.7701 23.9733 46.9034 24.44C46.0368 24.9067 45.0568 25.14 43.9634 25.14ZM43.9634 23C44.8834 23 45.6434 22.6933 46.2434 22.08C46.8434 21.4667 47.1434 20.66 47.1434 19.66C47.1434 18.66 46.8434 17.8533 46.2434 17.24C45.6434 16.6267 44.8834 16.32 43.9634 16.32C43.0434 16.32 42.2834 16.6267 41.6834 17.24C41.0968 17.8533 40.8034 18.66 40.8034 19.66C40.8034 20.66 41.0968 21.4667 41.6834 22.08C42.2834 22.6933 43.0434 23 43.9634 23ZM74.1634 14.32H76.6634V25H74.1634V14.32ZM75.4234 12.56C74.9701 12.56 74.5901 12.42 74.2834 12.14C73.9768 11.8467 73.8234 11.4867 73.8234 11.06C73.8234 10.6333 73.9768 10.28 74.2834 10C74.5901 9.70667 74.9701 9.56 75.4234 9.56C75.8768 9.56 76.2568 9.7 76.5634 9.98C76.8701 10.2467 77.0234 10.5867 77.0234 11C77.0234 11.44 76.8701 11.8133 76.5634 12.12C76.2701 12.4133 75.8901 12.56 75.4234 12.56ZM79.9447 10.16H82.4447V25H79.9447V10.16Z" fill="#F5C331"/>
<path fill-rule="evenodd" clip-rule="evenodd" d="M65.7428 9.06678C65.6134 9.13641 65.5372 9.23498 65.1052 9.89199C64.8353 10.3024 64.2686 11.1616 63.8459 11.8014C61.4383 15.4448 60.3005 17.6899 60.0391 19.3127C59.9761 19.7036 59.9911 20.4672 60.0708 20.9247C60.4155 22.9031 61.6529 24.5525 63.4393 25.4146C64.5266 25.9393 65.7502 26.117 66.9518 25.9246C69.0549 25.5878 70.8964 24.0512 71.6386 22.0138C71.9024 21.2895 72 20.7306 72 19.9442C72 19.4738 71.9873 19.3214 71.9239 19.0336C71.6328 17.7107 70.7723 15.9187 69.2732 13.5131C69.051 13.1566 68.3201 12.0323 67.649 11.0146C66.7038 9.58147 66.402 9.14757 66.3104 9.09001C66.1335 8.9788 65.9225 8.97016 65.7428 9.06678ZM67.106 12.3415C68.2695 14.1264 68.4835 14.4668 69.0337 15.4075C69.9955 17.0521 70.515 18.1943 70.7647 19.213C70.8512 19.5657 70.8416 20.3974 70.7459 20.8545C70.3723 22.6385 69.1576 24.0289 67.5073 24.5613C66.2852 24.9556 64.9973 24.8603 63.8641 24.2917C62.3654 23.5398 61.4056 22.1548 61.1989 20.4462C61.0845 19.5001 61.3203 18.5871 62.0753 17.0527C62.419 16.3543 62.9859 15.3446 63.5308 14.4603C63.8822 13.8902 65.9818 10.688 66.0043 10.688C66.0174 10.688 66.5131 11.4321 67.106 12.3415ZM69.3091 19.4979C69.0501 19.6034 68.9343 19.7937 68.896 20.1769C68.807 21.0658 68.3095 21.8804 67.5529 22.3759C67.2638 22.5653 67.1478 22.7325 67.1478 22.9601C67.1478 23.4488 67.6185 23.7293 68.0497 23.4976C68.7854 23.1023 69.519 22.221 69.8271 21.3624C70.0276 20.8035 70.1198 20.0162 70.01 19.8013C69.879 19.5454 69.5462 19.4013 69.3091 19.4979Z" fill="#F5C331"/>
</svg>
