<svg width="39" height="54" viewBox="0 0 39 54" fill="none" xmlns="http://www.w3.org/2000/svg">
<path fill-rule="evenodd" clip-rule="evenodd" d="M18.6642 0.212113C18.2435 0.43329 17.9959 0.74642 16.5918 2.83339C15.7148 4.13701 13.8731 6.86629 12.4991 8.89858C4.67462 20.4718 0.976699 27.6032 0.126951 32.7581C-0.0777872 33.9997 -0.0288327 36.4251 0.230169 37.8784C1.35028 44.1628 5.37198 49.4021 11.1777 52.1406C14.7114 53.8073 18.688 54.3715 22.5933 53.7604C29.4285 52.6907 35.4133 47.8097 37.8253 41.3379C38.6828 39.0372 39 37.262 39 34.764C39 33.2697 38.9586 32.7855 38.7528 31.8714C37.8065 27.6693 35.01 21.9771 30.1378 14.3356C29.4158 13.2033 27.0404 9.6321 24.8592 6.39945C21.7872 1.84702 20.8066 0.468762 20.5088 0.285909C19.934 -0.067339 19.248 -0.094788 18.6642 0.212113ZM23.0944 10.6141C26.8757 16.2837 27.5715 17.3651 29.3595 20.3533C32.4852 25.5772 34.1739 29.2055 34.9854 32.4414C35.2663 33.5616 35.2353 36.2035 34.9242 37.6554C33.71 43.3224 29.762 47.7389 24.3986 49.4301C20.427 50.6825 16.2412 50.3797 12.5582 48.5736C7.68771 46.1853 4.56811 41.7858 3.89645 36.3585C3.52467 33.3531 4.29084 30.4533 6.74473 25.5792C7.86165 23.3606 9.70408 20.1534 11.4753 17.3444C12.617 15.5336 19.4409 5.36187 19.514 5.36187C19.5565 5.36187 21.1677 7.72545 23.0944 10.6141ZM30.2546 33.3462C29.4129 33.6814 29.0365 34.286 28.9119 35.503C28.6228 38.3267 27.0058 40.9143 24.5469 42.4883C23.6073 43.0898 23.2305 43.6208 23.2305 44.3437C23.2305 45.8961 24.76 46.7871 26.1615 46.0511C28.5526 44.7954 30.9368 41.9961 31.9379 39.2689C32.5897 37.4934 32.8895 34.9925 32.5324 34.3101C32.1069 33.497 31.0252 33.0393 30.2546 33.3462Z" fill="#F5C331"/>
</svg>
