<svg width="94" height="94" viewBox="0 0 94 94" fill="none" xmlns="http://www.w3.org/2000/svg">
<rect x="46.4179" y="0.707096" width="65" height="65" rx="9.5" transform="rotate(44.6878 46.4179 0.707096)" fill="#F5C331" stroke="#333333" stroke-linejoin="round"/>
<mask id="mask0_369_1329" style="mask-type:alpha" maskUnits="userSpaceOnUse" x="4" y="4" width="86" height="86">
<rect x="46.4179" y="0.707096" width="65" height="65" rx="9.5" transform="rotate(44.6878 46.4179 0.707096)" fill="#F5C331" stroke="#333333" stroke-linejoin="round"/>
</mask>
<g mask="url(#mask0_369_1329)">
<path fill-rule="evenodd" clip-rule="evenodd" d="M56.4658 53.28C62.1361 53.8989 67.3059 50.1568 69.0004 44.2073L69.9381 40.9158L84.4918 34.4937C98.7915 28.1836 99.0702 28.0907 100.451 29.1412C106.367 33.6442 115.946 30.875 118.672 23.8741C120.887 18.1831 117.534 10.554 111.843 8.33824C109.042 7.2475 106.008 7.41087 102.789 8.8257C98.448 10.7337 96.0396 13.893 95.6421 18.2006C95.4825 19.9282 95.2256 20.0706 80.9075 26.339L66.3353 32.7186L63.2762 31.1839C59.3051 29.1909 56.0138 29.1416 52.1773 31.0176C49.0299 32.5569 46.4084 35.8306 45.8702 38.8946L45.5695 40.6053L50.9345 38.2692L56.2995 35.933L59.6783 36.263L62.3088 38.2727L64.3219 42.3857L62.8108 46.2669L55.4352 48.5089L50.0864 50.8817L51.5921 51.844C53.3965 52.9974 53.1166 52.9148 56.4658 53.28ZM102.914 24.4415C100.546 22.6251 100.507 22.5368 100.77 19.5636C101.152 15.255 101.409 14.8522 104.743 13.3493C108.065 11.8519 108.602 11.9441 112.065 14.5993C114.433 16.4157 114.472 16.504 114.209 19.4772C113.827 23.7858 113.57 24.1886 110.236 25.6915C106.914 27.1888 106.377 27.0967 102.914 24.4415Z" fill="#333333"/>
<path fill-rule="evenodd" clip-rule="evenodd" d="M56.4658 53.28C62.1361 53.8989 67.3059 50.1568 69.0004 44.2073L69.9381 40.9158L84.4918 34.4937C98.7915 28.1836 99.0702 28.0907 100.451 29.1412C106.367 33.6442 115.946 30.875 118.672 23.8741C120.887 18.1831 117.534 10.554 111.843 8.33824C109.042 7.2475 106.008 7.41087 102.789 8.8257C98.448 10.7337 96.0396 13.893 95.6421 18.2006C95.4825 19.9282 95.2256 20.0706 80.9075 26.339L66.3353 32.7186L63.2762 31.1839C59.3051 29.1909 56.0138 29.1416 52.1773 31.0176C49.0299 32.5569 46.4084 35.8306 45.8702 38.8946L45.5695 40.6053L50.9345 38.2692L56.2995 35.933L59.6783 36.263L62.3088 38.2727L64.3219 42.3857L62.8108 46.2669L55.4352 48.5089L50.0864 50.8817L51.5921 51.844C53.3965 52.9974 53.1166 52.9148 56.4658 53.28ZM102.914 24.4415C100.546 22.6251 100.507 22.5368 100.77 19.5636C101.152 15.255 101.409 14.8522 104.743 13.3493C108.065 11.8519 108.602 11.9441 112.065 14.5993C114.433 16.4157 114.472 16.504 114.209 19.4772C113.827 23.7858 113.57 24.1886 110.236 25.6915C106.914 27.1888 106.377 27.0967 102.914 24.4415Z" fill="#333333"/>
</g>
<circle cx="81" cy="47" r="2" fill="#C4C4C4"/>
<circle cx="47" cy="12" r="2" fill="#C4C4C4"/>
<circle cx="47" cy="81" r="2" fill="#C4C4C4"/>
<circle cx="12" cy="47" r="2" fill="#C4C4C4"/>
<circle cx="47" cy="12" r="1" fill="#333333"/>
<circle cx="81" cy="47" r="1" fill="#333333"/>
<circle cx="47" cy="81" r="1" fill="#333333"/>
<circle cx="12" cy="47" r="1" fill="#333333"/>
<path fill-rule="evenodd" clip-rule="evenodd" d="M27.0635 37.2039C25.751 37.4415 25.3188 37.8342 24.1939 39.81C23.066 41.7912 22.7384 42.0877 21.9866 41.8086C20.4671 41.2451 20 41.3898 20 42.4252C20 43.133 20.3333 43.5315 21.1355 43.7828L22.2709 44.1381L21.2458 45.3605C20.3139 46.4718 20.2207 46.9993 20.2207 51.1557V55.9836H21.9866C23.9732 55.9836 23.9732 56.2172 23.9732 54.9229V53.8626H32.7716C41.5603 53.8626 41.3571 53.6106 41.3571 54.5598C41.3571 56.2224 41.4169 55.9836 43.6786 55.9836H45.605V51.247C45.605 47.0536 45.4982 46.3831 44.6718 45.3962C44.1584 44.7833 43.8109 44.2451 43.8992 44.1999C45.4964 43.3868 45.8474 43.0663 45.967 42.3137C46.1233 41.3247 45.76 41.2306 44.0904 41.8269C43.0362 42.2034 42.8869 42.096 41.8888 40.2458C40.2478 37.2043 40.0306 37.1156 33.9711 37.014C31.0216 36.9646 27.9133 37.0501 27.0635 37.2039ZM38.0114 38.787C39.0444 39.047 41.416 42.7316 40.8761 43.2383C40.4094 43.6766 24.8561 43.5352 24.8561 43.0928C24.8561 42.1943 26.8277 38.9554 27.4745 38.792C28.5852 38.5109 36.8984 38.5072 38.0114 38.787ZM26.5015 47.3915C27.0529 47.9094 26.1717 48.774 25.2221 48.6467C21.6639 48.1706 20.8829 47.9646 20.8829 47.4997C20.8829 46.3184 21.7972 46.0671 24.0571 46.6269C25.2751 46.9288 26.3752 47.2729 26.5015 47.3915ZM44.6373 47.1212C44.7888 48.0832 44.18 48.3535 41.4169 48.5501C40.0457 48.6479 39.6245 48.5202 39.5124 47.972C39.4051 47.4496 39.9145 47.1116 41.4932 46.6568C44.0352 45.9253 44.459 45.9879 44.6373 47.1212ZM35.578 50.0212C34.3119 50.1046 32.1266 50.1054 30.7219 50.0229C29.3167 49.9404 30.3524 49.872 33.0233 49.8711C35.6941 49.8703 36.8437 49.9379 35.578 50.0212ZM35.578 51.2652C34.3119 51.3486 32.1266 51.3494 30.7219 51.2669C29.3167 51.1844 30.3524 51.1159 33.0233 51.1151C35.6941 51.1143 36.8437 51.1819 35.578 51.2652ZM23.0903 51.9967C23.0903 52.3387 22.7923 52.6186 22.4281 52.6186C22.0639 52.6186 21.7659 52.3387 21.7659 51.9967C21.7659 51.6546 22.0639 51.3747 22.4281 51.3747C22.7923 51.3747 23.0903 51.6546 23.0903 51.9967ZM44.0409 51.7607C44.3676 52.2571 43.5372 52.7484 42.9492 52.4072C42.4552 52.1206 42.7797 51.3747 43.3977 51.3747C43.6118 51.3747 43.9014 51.5484 44.0409 51.7607Z" fill="#333333"/>
</svg>
