<svg width="12" height="16" viewBox="0 0 12 16" fill="none" xmlns="http://www.w3.org/2000/svg">
<path fill-rule="evenodd" clip-rule="evenodd" d="M5.74284 0.0628484C5.61339 0.128382 5.53719 0.221161 5.10517 0.839524C4.83531 1.22578 4.26864 2.03446 3.84586 2.63662C1.43834 6.06573 0.300523 8.17873 0.0390618 9.70611C-0.0239345 10.074 -0.00887161 10.7926 0.0708214 11.2232C0.415471 13.0853 1.65292 14.6377 3.4393 15.4491C4.52657 15.9429 5.75016 16.1101 6.9518 15.929C9.05492 15.6121 10.8964 14.1658 11.6386 12.2483C11.9024 11.5666 12 11.0406 12 10.3005C12 9.8577 11.9873 9.71422 11.9239 9.44339C11.6328 8.19831 10.7723 6.51173 9.27316 4.24759C9.051 3.9121 8.32014 2.85396 7.64897 1.89613C6.70377 0.547266 6.40202 0.138892 6.3104 0.0847139C6.13353 -0.0199523 5.92246 -0.0280853 5.74284 0.0628484ZM7.10596 3.14493C8.26946 4.82481 8.48354 5.14522 9.03368 6.0306C9.99546 7.57841 10.515 8.65348 10.7647 9.61227C10.8512 9.94416 10.8416 10.727 10.7459 11.1571C10.3723 12.8363 9.15755 14.1449 7.50726 14.6459C6.28524 15.017 4.99728 14.9273 3.86406 14.3922C2.36545 13.6845 1.40557 12.381 1.19891 10.7729C1.08451 9.88241 1.32026 9.02319 2.0753 7.57901C2.41897 6.92167 2.98587 5.97139 3.53085 5.13909C3.88217 4.60256 5.98183 1.5887 6.00431 1.5887C6.01738 1.5887 6.51314 2.28902 7.10596 3.14493ZM9.3091 9.88035C9.05012 9.97967 8.93432 10.1588 8.89596 10.5194C8.80702 11.3561 8.30949 12.1228 7.55288 12.5891C7.26377 12.7673 7.14785 12.9247 7.14785 13.1389C7.14785 13.5988 7.61846 13.8629 8.04969 13.6448C8.78542 13.2727 9.51903 12.4433 9.82705 11.6352C10.0276 11.1092 10.1198 10.3681 10.01 10.1659C9.87904 9.92505 9.54621 9.78942 9.3091 9.88035Z" fill="#333333"/>
</svg>
