<svg width="19" height="15" viewBox="0 0 19 15" fill="none" xmlns="http://www.w3.org/2000/svg">
<path fill-rule="evenodd" clip-rule="evenodd" d="M1.8488 0.0378639C1.3526 0.112585 1.29178 0.177115 1.29178 0.628473V0.877063L1.00877 0.664375C0.685216 0.421231 0.591042 0.386029 0.439569 0.451765C0.307035 0.509254 0.237593 0.656168 0.142639 1.08003C-0.131713 2.30493 -0.0069401 4.01082 0.487956 5.80089C0.750573 6.75083 0.777459 6.78724 1.23986 6.82034C1.75199 6.85698 2.19486 6.70132 2.57293 6.35171L2.7586 6.18002L2.75916 5.65982C2.75964 5.19768 2.76948 5.11685 2.84728 4.93544C2.89544 4.82314 2.94532 4.73127 2.95813 4.73131C2.97094 4.73135 3.02553 4.80572 3.07948 4.89662C3.40289 5.44156 3.45908 5.72108 3.42536 6.61722C3.37077 8.06943 3.60442 8.72605 4.37397 9.28286C4.55741 9.41557 4.63599 9.50274 4.70135 9.64604C4.91045 10.1043 5.01904 11.0808 4.99939 12.326L4.98669 13.1315L4.81762 13.2975C4.33186 13.7746 4.09282 14.2927 4.16713 14.7075C4.18105 14.7852 4.22491 14.8828 4.26464 14.9244C4.33408 14.9971 4.40282 15 6.06089 15H7.78499L7.86193 14.8975C7.96635 14.7584 7.959 14.6589 7.82454 14.3913C7.72936 14.2019 7.71365 14.1343 7.73092 13.9887C7.74236 13.8924 7.82506 12.7934 7.9147 11.5465C8.00438 10.2996 8.08467 9.27212 8.09313 9.26322C8.10164 9.25435 8.28345 9.26582 8.4972 9.28869C8.86531 9.32813 10.1173 9.30896 10.3712 9.26003C10.476 9.23984 10.4893 9.25201 10.5935 9.46455C10.7882 9.86184 11.1233 10.3535 11.4055 10.6558C11.6944 10.9654 12.1538 11.3066 12.3865 11.3845C12.4627 11.41 12.5363 11.4419 12.5501 11.4554C12.5638 11.4688 12.6592 11.8582 12.7619 12.3207L12.9488 13.1615L12.7796 13.3465C12.4436 13.7138 12.2028 14.1959 12.151 14.6049C12.1288 14.7803 12.1359 14.8098 12.2219 14.8999L12.3174 15H13.2306H14.1438L14.2349 14.9045C14.3152 14.8204 14.3261 14.7749 14.3261 14.5226C14.3261 14.211 14.3953 13.9161 14.5334 13.6395L14.6218 13.4625L14.4761 12.2506C14.3657 11.3314 14.3391 11.006 14.3662 10.9033L14.4019 10.7679L14.7437 10.8958C14.9318 10.966 15.0988 11.0475 15.1149 11.0767C15.131 11.1059 15.3172 11.5794 15.5288 12.129L15.9133 13.1282L15.7017 13.3004C15.3436 13.5917 15.0431 14.1522 15.0033 14.6032C14.9876 14.78 14.9972 14.8229 15.0705 14.9047L15.156 15H16.0181C17.0374 15 17.017 15.0074 17.0766 14.6154C17.125 14.2983 17.1894 14.139 17.3725 13.8851C17.4619 13.761 17.5197 13.6384 17.5197 13.5728C17.5197 13.4306 16.896 9.95418 16.8466 9.82123C16.8253 9.76382 16.6255 9.56649 16.3937 9.37392C16.1656 9.18441 15.8076 8.87565 15.5982 8.68782C15.2778 8.40052 15.2173 8.32841 15.2173 8.23358C15.2173 8.17162 15.2934 7.8702 15.3863 7.56378C15.6773 6.6045 15.7151 6.40551 15.7142 5.83979C15.7136 5.46288 15.6976 5.29115 15.6515 5.16532L15.5896 4.99647L15.7083 5.0752C15.9374 5.22717 16.1561 5.48995 16.2798 5.762C16.3784 5.97881 16.4302 6.19274 16.5343 6.81221C16.6063 7.24008 16.7069 7.75293 16.758 7.95185C17.0111 8.93796 17.4796 9.47279 18.2795 9.68906C18.6126 9.77914 18.8042 9.76837 18.9139 9.65343C19.0288 9.53312 19.0287 9.42557 18.9135 9.15267C18.8631 9.03334 18.7847 8.79046 18.7392 8.61298C18.6627 8.31402 18.6564 8.20164 18.6531 7.08449C18.6498 5.96757 18.6435 5.85574 18.5676 5.56751C18.3445 4.72038 17.8934 4.15669 17.2412 3.91024C17.0711 3.84598 16.9042 3.82171 16.5356 3.80767C16.0245 3.78822 15.6523 3.83847 15.1228 3.99834L14.8612 4.07734L14.6772 3.96423C14.3986 3.79292 13.976 3.62197 13.5834 3.52173C13.2848 3.4455 13.1337 3.43173 12.5993 3.432C11.8661 3.43239 11.6709 3.46448 10.3898 3.79545C9.90984 3.91945 9.44685 4.03202 9.36092 4.04564L9.20469 4.07037L8.61974 3.37976C7.42578 1.97014 6.79256 1.31251 6.21808 0.885426C5.74874 0.536443 5.07366 0.252808 4.34456 0.0981152C4.01628 0.0284899 3.79147 0.0117254 3.05568 0.00204005C2.48982 -0.00538924 2.04922 0.00768 1.8488 0.0378639ZM3.97533 0.709223C4.19516 0.740768 4.52102 0.809927 4.69945 0.862826C5.11451 0.985974 5.72675 1.30045 5.99954 1.53065C6.57955 2.02016 7.32006 2.80926 8.1957 3.87099L8.39678 4.11483L8.2514 4.08838C7.79813 4.00604 7.35419 3.80416 7.00883 3.52333C6.89743 3.43278 6.61257 3.15988 6.37579 2.91693C6.01566 2.54741 5.92665 2.47522 5.8311 2.47522C5.76831 2.47522 5.68984 2.48611 5.65679 2.49937C5.56377 2.53679 5.47839 2.74084 5.50647 2.85866C5.53982 2.99857 6.45671 3.937 6.77566 4.1577C7.57087 4.70789 8.32081 4.87033 9.33147 4.7112C9.53571 4.67903 10.0724 4.55678 10.524 4.43951C11.6589 4.14482 11.8614 4.10655 12.4137 4.08228C13.6229 4.02914 14.6809 4.49766 15.0061 5.23028C15.0757 5.38711 15.0861 5.47572 15.0826 5.87869C15.0782 6.37419 15.0706 6.41161 14.7562 7.47346C14.5837 8.05629 14.5498 8.39306 14.643 8.59882C14.7132 8.75378 15.0215 9.0517 15.8208 9.7369C16.0812 9.96013 16.2948 10.1636 16.2955 10.189C16.2962 10.2144 16.4281 10.9614 16.5887 11.8491C16.8731 13.4215 16.8789 13.4656 16.815 13.5605C16.7141 13.7105 16.5677 14.0289 16.5154 14.2123L16.4682 14.3776H16.0841C15.8729 14.3776 15.7001 14.366 15.7001 14.3519C15.7001 14.3377 15.7519 14.2415 15.8153 14.1381C15.9417 13.9317 16.1178 13.7711 16.3568 13.6443C16.5247 13.5552 16.6285 13.43 16.6285 13.3165C16.6285 13.248 15.7115 10.8164 15.6015 10.5933C15.5414 10.4712 15.5288 10.4648 15.0131 10.2924C14.8089 10.2241 14.4594 10.073 14.2366 9.95659C12.8619 9.23848 12.0895 8.18935 11.9656 6.87192C11.9329 6.52371 11.854 6.40379 11.658 6.40379C11.486 6.40379 11.3681 6.48758 11.338 6.63111C11.303 6.79805 11.4152 7.49917 11.5353 7.86425L11.6418 8.18768L11.4336 8.28216C10.9378 8.50702 10.3616 8.6215 9.58614 8.64911C8.69605 8.68081 7.78465 8.57338 6.85528 8.32716C6.41044 8.20935 6.37145 8.20927 6.24207 8.3258L6.13787 8.41966L6.10393 9.57676L6.06999 10.7338L6.171 10.8248C6.30873 10.9489 6.48824 10.9455 6.60388 10.8166C6.68903 10.7216 6.69404 10.6856 6.71873 9.99C6.73296 9.58999 6.74596 9.20009 6.74759 9.12354L6.7506 8.98433L7.09409 9.06313C7.28304 9.1065 7.44216 9.14474 7.44777 9.14816C7.46875 9.16099 7.15622 13.5509 7.11864 13.7711C7.09706 13.8975 7.09057 14.0856 7.10416 14.1892L7.12893 14.3776H6.66125C6.25745 14.3776 6.19357 14.3692 6.19357 14.3154C6.19357 14.2069 6.31281 13.9851 6.40528 13.9217C6.57877 13.8026 6.5947 13.7122 6.62712 12.664C6.64398 12.1197 6.65512 11.6247 6.65193 11.564C6.63578 11.2578 6.2189 11.1539 6.08191 11.422C6.06041 11.4641 6.02598 11.9301 6.00545 12.4576C5.9688 13.3992 5.96642 13.4189 5.87455 13.5332C5.73448 13.7076 5.60967 13.9877 5.58014 14.1941L5.55385 14.3776H5.1867C4.9848 14.3776 4.81959 14.3615 4.81959 14.3417C4.81959 14.2729 5.08963 13.9286 5.34055 13.6775L5.59318 13.4247L5.6201 12.8801C5.67621 11.7453 5.59095 10.4761 5.41285 9.79525C5.26973 9.24805 5.09345 8.97728 4.7191 8.72967C4.42841 8.53736 4.25049 8.30064 4.14336 7.96344C4.06846 7.7278 4.06126 7.62263 4.05498 6.67607C4.04733 5.51702 4.0288 5.39446 3.78178 4.86737C3.70157 4.69622 3.54296 4.43849 3.42937 4.29469C3.24147 4.0568 3.22279 4.01611 3.22279 3.84469C3.22279 3.46794 3.01765 2.97667 2.82894 2.90153C2.70119 2.85065 2.56814 2.89192 2.4795 3.00993C2.38139 3.14058 2.38662 3.25051 2.50163 3.47475C2.64579 3.75585 2.61968 4.03976 2.41644 4.40061C2.20247 4.78047 2.13845 5.02615 2.12753 5.50917L2.11829 5.91758L1.90279 6.03416C1.73424 6.12537 1.6391 6.15077 1.46575 6.15085L1.24421 6.15097L1.11784 5.70365C0.961276 5.14937 0.794838 4.37505 0.716595 3.8366C0.631556 3.25175 0.604002 2.30434 0.657922 1.81988C0.723873 1.22706 0.717412 1.23534 0.949133 1.44764C1.05593 1.54554 1.19872 1.72486 1.26638 1.84614C1.42375 2.12826 1.53898 2.20232 1.70813 2.13005C2.20552 1.91755 2.47148 1.84388 2.81085 1.82459C3.49918 1.78546 4.13281 1.97049 4.85757 2.42228C5.0447 2.53889 5.17445 2.53138 5.30327 2.39645C5.38225 2.31372 5.39985 2.12666 5.33973 2.009C5.29369 1.91884 4.73637 1.58569 4.39948 1.44698C3.61133 1.12239 2.91453 1.07711 2.02519 1.29264L1.92307 1.31737V1.00169C1.92307 0.728827 1.93191 0.685302 1.98805 0.681023C2.86614 0.614159 3.36241 0.6212 3.97533 0.709223ZM1.23076 3.40843C1.11275 3.45829 1.03183 3.60217 1.03183 3.76216C1.03183 4.0908 1.43805 4.24214 1.64125 3.9892C1.88794 3.68215 1.58782 3.25751 1.23076 3.40843ZM16.7399 4.46067C17.3596 4.56339 17.7531 4.96745 17.9534 5.70676C18.0117 5.92202 18.0214 6.11755 18.0237 7.12339C18.0258 8.08919 18.0376 8.34385 18.092 8.60115C18.1282 8.7721 18.1663 8.92656 18.1768 8.94434C18.2311 9.03645 17.8854 8.79883 17.7694 8.66436C17.4739 8.32168 17.3473 7.9056 17.1305 6.56405C17.0295 5.93859 16.9302 5.59906 16.7581 5.29057C16.6303 5.06147 16.2934 4.68347 16.1111 4.56475L15.9786 4.4784L16.1271 4.45475C16.3647 4.41691 16.4829 4.41807 16.7399 4.46067ZM12.2034 9.12132C12.5634 9.59357 13.1439 10.102 13.6306 10.3712C13.7272 10.4246 13.8062 10.4906 13.8062 10.5176C13.8062 10.5447 13.7806 10.6673 13.7492 10.79C13.6945 11.0042 13.6979 11.0594 13.835 12.1872C13.974 13.331 13.976 13.3648 13.9121 13.4903C13.8307 13.6503 13.7454 13.9495 13.7119 14.1929L13.6864 14.3776H13.2821C13.0173 14.3776 12.8778 14.3631 12.8778 14.3356C12.8778 14.2422 13.1602 13.8569 13.366 13.6694C13.4866 13.5596 13.594 13.4331 13.6046 13.3884C13.6287 13.2882 13.1525 11.1232 13.0809 11.007C13.0525 10.9608 12.9409 10.8928 12.8328 10.8557C12.2228 10.6465 11.7625 10.2198 11.301 9.4358C11.2083 9.27839 11.1325 9.13805 11.1325 9.12397C11.1325 9.10985 11.2787 9.04318 11.4574 8.97581C11.6362 8.90844 11.8074 8.83628 11.8381 8.81551C11.8687 8.7947 11.9043 8.77743 11.9171 8.77708C11.93 8.77677 12.0588 8.93166 12.2034 9.12132Z" fill="#333333"/>
</svg>
