<svg width="70" height="70" viewBox="0 0 70 70" fill="none" xmlns="http://www.w3.org/2000/svg">
<path fill-rule="evenodd" clip-rule="evenodd" d="M44.4009 0.251807C43.4634 0.747091 43.3398 1.20818 43.3398 4.20997C43.3398 7.23939 43.4611 7.68024 44.43 8.17484C45.1134 8.52363 45.6679 8.52363 46.3512 8.17484C47.3201 7.68024 47.4414 7.23939 47.4414 4.20997C47.4414 1.86432 47.4135 1.54562 47.1662 1.06046C46.6617 0.0711198 45.4267 -0.289982 44.4009 0.251807ZM28.6191 7.07389C27.6808 7.5001 27.2219 8.44703 27.4832 9.41776C27.6084 9.88296 27.9627 10.3309 29.2303 11.6264C31.086 13.5228 31.4902 13.8075 32.3282 13.8075C33.4857 13.8075 34.3392 12.956 34.3392 11.8013C34.3392 10.9564 34.0581 10.5561 32.161 8.69816C30.9397 7.50201 30.4056 7.07225 30.0007 6.95968C29.3069 6.76695 29.292 6.76818 28.6191 7.07389ZM60.7163 6.96734C60.2077 7.11355 57.2136 9.93753 56.7198 10.7369C55.8939 12.0739 56.8724 13.8075 58.453 13.8075C59.2911 13.8075 59.6952 13.5228 61.5509 11.6264C63.3925 9.74426 63.6301 9.26772 63.2383 8.24131C62.9806 7.56603 62.7266 7.30806 62.0356 7.01918C61.4697 6.78268 61.3717 6.77885 60.7163 6.96734ZM42.3501 12.8356C41.6119 13.2256 41.3447 13.8592 41.2288 15.4944C40.8862 20.327 38.4609 26.1537 35.9732 28.121C34.8115 29.0397 30.4404 30.7234 24.91 32.3826L22.6164 33.0707H12.123C1.87619 33.0707 1.61711 33.0772 1.0902 33.3461C0.742793 33.5233 0.452402 33.8139 0.275215 34.1614C0.00437501 34.6925 0 34.9382 0 49.4844C0 64.0307 0.00437501 64.2763 0.275215 64.8074C0.452402 65.155 0.742793 65.4455 1.0902 65.6228C1.58662 65.8761 1.89219 65.8981 4.91641 65.8981H8.20312V67.1346C8.20312 68.6582 8.47711 69.3096 9.29332 69.7262C9.8041 69.9869 10.0901 70.0014 14.6576 69.9999C19.7963 69.9981 20.2195 69.9552 21.5495 69.2989C22.365 68.8966 23.6545 67.6556 24.0375 66.9048L24.3258 66.3391L31.6112 68.1665L38.8965 69.9938L45.4062 69.9976C49.2799 69.9999 52.2137 69.9451 52.6516 69.8619C55.1921 69.3799 57.1565 67.3436 57.5868 64.7462C57.7269 63.9 57.6399 62.8307 57.3523 61.8624C57.2834 61.6306 57.4057 61.5295 58.1461 61.2068C60.6011 60.1368 62.1399 57.3581 61.6901 54.8073C61.6049 54.3247 61.4987 53.8064 61.4538 53.6556C61.3849 53.4237 61.5073 53.3226 62.2476 53C65.7099 51.4909 66.9214 47.1847 64.7894 43.9646L64.3688 43.3293L64.7894 42.6939C67.2447 38.9855 65.19 34.0328 60.8547 33.2104C60.4427 33.1321 58.0256 33.0707 55.3611 33.0707H50.6033L50.9843 31.9423C51.893 29.2513 52.9102 24.0629 52.9102 22.1194C52.9102 20.2583 52.3142 18.2875 51.3056 16.8135C50.305 15.3509 48.4245 13.8398 46.8148 13.2047C46.0217 12.8917 44.2872 12.5525 43.5165 12.5596C43.1387 12.5632 42.6449 12.68 42.3501 12.8356ZM45.9391 17.3418C47.1451 17.9573 48.0521 19.0573 48.5416 20.4982C48.9382 21.6657 48.8507 23.1664 48.2014 26.3319C47.6618 28.9631 46.9041 31.3824 45.9963 33.3733C45.6632 34.1038 45.3906 34.8957 45.3906 35.1327C45.3906 35.7527 45.8879 36.5488 46.4849 36.8844C46.9898 37.1684 47.1313 37.1742 53.5836 37.1742C59.9121 37.1742 60.1881 37.1848 60.7067 37.4495C61.3133 37.7592 61.7969 38.5472 61.7969 39.2259C61.7969 39.9046 61.3133 40.6926 60.7067 41.0022C60.1881 41.2669 59.9119 41.2776 53.5938 41.2776C47.2756 41.2776 46.9994 41.2882 46.4808 41.5529C45.8742 41.8626 45.3906 42.6506 45.3906 43.3293C45.3906 44.008 45.8742 44.796 46.4808 45.1057C46.9994 45.3703 47.2756 45.381 53.5938 45.381C59.9119 45.381 60.1881 45.3917 60.7067 45.6563C61.3133 45.966 61.7969 46.754 61.7969 47.4327C61.7969 48.1114 61.3133 48.8994 60.7067 49.2091C60.1881 49.4738 59.9119 49.4844 53.5938 49.4844C47.2756 49.4844 46.9994 49.4951 46.4808 49.7598C45.8742 50.0694 45.3906 50.8574 45.3906 51.5361C45.3906 52.2148 45.8742 53.0028 46.4808 53.3125C46.9894 53.572 47.2801 53.5879 51.543 53.5879C55.8059 53.5879 56.0965 53.6037 56.6051 53.8632C57.2117 54.1729 57.6953 54.9609 57.6953 55.6396C57.6953 56.3183 57.2117 57.1063 56.6051 57.4159C56.0965 57.6754 55.8059 57.6913 51.543 57.6913C47.2801 57.6913 46.9894 57.7071 46.4808 57.9666C45.8742 58.2763 45.3906 59.0643 45.3906 59.743C45.3906 60.4217 45.8742 61.2097 46.4808 61.5194C46.9626 61.7653 47.2846 61.7947 49.4922 61.7947C51.6998 61.7947 52.0218 61.8241 52.5036 62.07C53.1102 62.3797 53.5938 63.1677 53.5938 63.8464C53.5938 64.5251 53.1102 65.3131 52.5036 65.6228C51.9857 65.887 51.7125 65.898 45.7037 65.8942L39.4434 65.8901L32.1973 64.0732L24.9512 62.2563L24.9163 49.4639L24.8814 36.6715L26.4202 36.2205C30.2894 35.0867 35.0875 33.3268 36.9538 32.357C38.1039 31.7593 39.6382 30.4269 40.5747 29.2124C42.5213 26.688 44.5189 21.7517 45.0466 18.1616C45.1552 17.4231 45.2497 17.0674 45.3369 17.0674C45.3724 17.0674 45.6434 17.1909 45.9391 17.3418ZM21.8423 23.0942C21.2651 23.3991 20.7812 24.2061 20.7812 24.8639C20.7812 25.5426 21.2648 26.3306 21.8714 26.6402C22.3532 26.8862 22.6752 26.9156 24.8828 26.9156C27.0904 26.9156 27.4124 26.8862 27.8942 26.6402C28.5008 26.3306 28.9844 25.5426 28.9844 24.8639C28.9844 24.1852 28.5008 23.3972 27.8942 23.0875C27.4101 22.8405 27.0975 22.8128 24.8541 22.8182C22.6354 22.8235 22.296 22.8547 21.8423 23.0942ZM62.8579 23.0942C62.2807 23.3991 61.7969 24.2061 61.7969 24.8639C61.7969 25.5426 62.2804 26.3306 62.8871 26.6402C63.3689 26.8862 63.6908 26.9156 65.8984 26.9156C68.106 26.9156 68.428 26.8862 68.9098 26.6402C69.5164 26.3306 70 25.5426 70 24.8639C70 24.1852 69.5164 23.3972 68.9098 23.0875C68.4257 22.8405 68.1131 22.8128 65.8697 22.8182C63.6511 22.8235 63.3116 22.8547 62.8579 23.0942ZM8.20312 49.4844V61.7947H6.15234H4.10156V49.4844V37.1742H6.15234H8.20312V49.4844ZM20.7812 50.7209C20.7812 64.0279 20.7763 64.2773 20.506 64.8074C20.3288 65.155 20.0385 65.4455 19.6911 65.6228C19.1929 65.8771 18.8893 65.8981 15.7281 65.8981H12.3047V51.5361V37.1742H16.543H20.7812V50.7209Z" fill="#333333"/>
</svg>
