<svg width="46" height="37" viewBox="0 0 46 37" fill="none" xmlns="http://www.w3.org/2000/svg">
<path fill-rule="evenodd" clip-rule="evenodd" d="M9.88577 0.0819938C8.99874 0.253212 8.18462 0.908756 7.89186 1.68749C7.7979 1.93738 7.24153 4.83843 6.65546 8.13442L5.58979 14.127H3.77678H1.96367L1.41297 14.3955C0.829244 14.6801 0.52082 14.9772 0.198176 15.5656L0 15.927V25.5416V35.1561L0.241735 35.603C0.52433 36.1256 0.995831 36.5558 1.57038 36.8151L1.97996 37H19.3946H36.8093L37.3207 36.755C37.9 36.4775 38.3227 36.0521 38.5997 35.4679C38.7806 35.0866 38.7904 34.9115 38.8156 31.6346L38.842 28.2011L39.3106 28.2852C40.1072 28.4282 41.0871 28.33 41.5597 28.0598C42.0921 27.7554 42.5735 27.2 42.7447 26.6926C42.8198 26.47 43.5943 22.2972 44.466 17.4197C45.7388 10.2969 46.04 8.45964 45.9959 8.08472C45.8753 7.0575 45.0843 6.14328 44.091 5.88356C43.7667 5.79874 39.6796 5.08182 21.9596 2.00174C12.2867 0.320294 10.3611 -0.0104638 10.3079 0.000248268C10.2814 0.00551651 10.0915 0.0423064 9.88577 0.0819938ZM27.142 4.38018C38.2728 6.31722 43.864 7.3253 44.016 7.4225C44.3183 7.61567 44.504 7.9848 44.5047 8.39344C44.5049 8.57695 44.3967 9.3484 44.264 10.1078C44.0372 11.4063 44.0117 11.4861 43.836 11.4464C43.7332 11.4231 40.5712 10.87 36.8093 10.2171C33.0474 9.56431 28.7342 8.81516 27.2245 8.55245C12.3078 5.95679 8.72677 5.32899 8.70256 5.30537C8.62975 5.23434 9.23796 2.22301 9.3627 2.03739C9.54332 1.76845 10.0183 1.48405 10.2876 1.48361C10.4018 1.48343 17.9863 2.78689 27.142 4.38018ZM26.0545 9.8242C35.5336 11.4717 43.394 12.847 43.5222 12.8807L43.7552 12.9417L42.6046 19.3953C41.9719 22.9448 41.4098 25.9972 41.3555 26.1785C41.1791 26.7676 40.6278 26.9658 39.5317 26.834L38.8342 26.7503V21.5521C38.8342 15.7878 38.8369 15.8178 38.2519 15.0701C38.0413 14.8011 37.7555 14.5805 37.3819 14.3983L36.8256 14.127H21.9902C7.28248 14.127 7.15486 14.1255 7.15486 13.9538C7.15486 13.8046 8.23115 7.67942 8.37929 6.98559C8.42222 6.7846 8.46973 6.74562 8.62615 6.78276C8.73271 6.80814 16.5754 8.17674 26.0545 9.8242ZM36.617 15.653C36.7804 15.7195 37.0019 15.8829 37.1092 16.0161L37.3043 16.258V25.5179C37.3043 34.0884 37.2928 34.7966 37.1507 35.0314C36.8132 35.5887 38.0981 35.5512 19.354 35.5512C4.27384 35.5512 2.25527 35.5357 2.02199 35.418C1.45545 35.1322 1.48497 35.6762 1.48497 25.5216C1.48497 15.2927 1.4397 16.0681 2.05799 15.7003C2.33293 15.5367 2.76367 15.5325 19.33 15.5323C33.5656 15.532 36.3682 15.5516 36.617 15.653ZM5.2658 23.2864C4.79394 23.433 4.23532 24.0243 4.11004 24.5098C3.97945 25.0156 3.97279 27.1372 4.10032 27.5854C4.22317 28.017 4.67541 28.5133 5.12909 28.7144C5.45551 28.8591 5.78653 28.8744 8.6032 28.8762C11.6904 28.8781 11.7198 28.8765 12.1131 28.6738C12.3313 28.5615 12.6313 28.3014 12.7798 28.0959L13.0497 27.7223L13.0791 26.2149C13.0968 25.3041 13.07 24.5814 13.0113 24.3891C12.8881 23.985 12.2337 23.3897 11.7767 23.2658C11.3015 23.1371 5.68924 23.1548 5.2658 23.2864ZM11.5468 24.7689C11.6197 24.84 11.6548 25.2444 11.6548 26.0132C11.6548 26.9498 11.6283 27.1806 11.5058 27.3127C11.3678 27.4616 11.1572 27.4733 8.61994 27.4733C6.90548 27.4733 5.81803 27.4393 5.70895 27.3824C5.54929 27.299 5.53489 27.1874 5.53489 26.036C5.53489 25.3456 5.56189 24.7542 5.59492 24.7221C5.62786 24.6899 6.95623 24.6635 8.54686 24.6635C10.6761 24.6635 11.4672 24.6913 11.5468 24.7689ZM4.56057 31.452C4.29229 31.7307 4.30336 32.1626 4.58586 32.4381L4.80672 32.6537H7.17574C9.73907 32.6537 9.85427 32.634 10.037 32.1652C10.1381 31.9056 9.98792 31.4532 9.7613 31.3348C9.66563 31.2848 8.58304 31.2488 7.17646 31.2488C4.76307 31.2488 4.75578 31.2494 4.56057 31.452ZM12.6513 31.4802C12.3988 31.7933 12.4124 32.1716 12.6857 32.4381L12.9066 32.6537H15.3025H17.6985L17.9721 32.3868C18.2011 32.1634 18.2366 32.0738 18.1899 31.838C18.0751 31.2581 18.0296 31.2488 15.2963 31.2488H12.8378L12.6513 31.4802ZM20.7512 31.4802C20.5403 31.7417 20.5166 31.9627 20.6693 32.2424C20.8864 32.6402 20.9401 32.648 23.4714 32.6509L25.883 32.6537L26.1038 32.4214C26.3736 32.1372 26.3863 31.7882 26.1379 31.4802L25.9514 31.2488H23.4445H20.9376L20.7512 31.4802ZM28.9447 31.4025C28.8404 31.487 28.7299 31.6829 28.6992 31.838C28.6525 32.0738 28.688 32.1634 28.917 32.3868L29.1906 32.6537H31.5866H33.9825L34.2034 32.4381C34.4957 32.153 34.5015 31.7013 34.2161 31.4397C34.0128 31.2534 33.949 31.2488 31.571 31.2488C29.3826 31.2488 29.1151 31.2645 28.9447 31.4025Z" fill="#F5C331"/>
</svg>
