<svg width="16" height="11" viewBox="0 0 16 11" fill="none" xmlns="http://www.w3.org/2000/svg">
<path fill-rule="evenodd" clip-rule="evenodd" d="M14.3281 0.0139317C14.2937 0.027597 12.3743 1.81464 10.0627 3.98516L5.85972 7.93151L3.78087 5.98157C1.81975 4.14201 1.69581 4.03161 1.59234 4.03161C1.49075 4.03161 1.42784 4.08319 0.741313 4.72947C0.110531 5.32327 0 5.44018 0 5.51352C0 5.58868 0.362531 5.94023 2.83594 8.26323C4.39569 9.72817 5.712 10.9467 5.76103 10.9711C5.83116 11.006 5.86809 11.0085 5.93425 10.9828C5.98047 10.9648 8.26419 8.84233 11.0092 6.26617C15.3824 2.16184 16 1.57154 16 1.49588C16 1.42225 15.8908 1.30723 15.2578 0.714437C14.8496 0.332133 14.4875 0.0125243 14.4531 0.00422548C14.4187 -0.0041027 14.3625 0.000266475 14.3281 0.0139317Z" fill="#35D261"/>
</svg>
